<svg xmlns="http://www.w3.org/2000/svg" viewBox="0 0 130.3 19"><path d="M68.2 18.8c-.7 0-1.4-.5-1.7-1.2l-3.1-8.9a1.793 1.793 0 0 1 .8-3.4c1.1 0 2 .7 2.4 1.7l3.3 9.4c.3.9-.2 2-1.1 2.3-.2.1-.4.1-.6.1"/><path d="M59.6 18.8c-.2 0-.5 0-.7-.1-.9-.4-1.4-1.5-1-2.4L61.8 7c.4-1.1 1.3-1.7 2.4-1.7a1.793 1.793 0 0 1 .8 3.4l-3.7 8.9c-.3.8-1 1.2-1.7 1.2m-8.6 0c-.2 0-.4 0-.6-.1-.9-.3-1.4-1.4-1.1-2.3L52.6 7c.4-1 1.3-1.7 2.4-1.7a1.793 1.793 0 0 1 .8 3.4l-3.1 8.9c-.3.8-1 1.2-1.7 1.2"/><path d="M59.6 18.8c-.7 0-1.4-.4-1.7-1.1l-3.7-8.9a1.793 1.793 0 0 1 .8-3.4c1 0 2 .6 2.3 1.6l3.9 9.3c.4.9 0 2-1 2.4-.1 0-.4.1-.6.1"/><path d="M54.6 7.8H51c-.7 0-1.2-.6-1.2-1.2 0-.7.6-1.2 1.2-1.2h3.6c.7 0 1.2.6 1.2 1.2.1.6-.5 1.2-1.2 1.2M4.4 2.1C4.4.9 5.2 0 6.5 0s2.1.8 2.1 2.1v10c0 2.5 1.4 3.6 3.7 3.6 2.4 0 3.7-1.1 3.7-3.6v-10c0-1.2.8-2.1 2.1-2.1s2.1.8 2.1 2.1v9.6c0 5-3.1 7.2-7.8 7.2-4.8 0-7.8-2.2-7.8-7.2V2.1m20.1-.2c0-1.2.7-1.8 1.8-1.8s1.8.6 1.8 1.8v15.2c0 1.2-.7 1.8-1.8 1.8s-1.8-.6-1.8-1.8V1.9M44.4 0c1.1 0 1.9.9 1.9 1.9 0 1.1-.9 1.9-1.9 1.9-1.1 0-1.9-.9-1.9-1.9 0-1.1.8-1.9 1.9-1.9zm-1.9 6.9c0-1 .4-1.8 1.8-1.8s1.8.9 1.8 1.8v10.2c0 1-.4 1.8-1.8 1.8s-1.8-.9-1.8-1.8V6.9zm51.4 4c0-1.1.6-1.6.6-1.6l3.2-3.6c.4-.4.9-.7 1.4-.7.8 0 1.7.7 1.7 1.7 0 .7-.2.9-.6 1.2l-2.7 2.9 3.8 5.2c.1.2.4.6.4 1.2 0 .9-.8 1.8-1.7 1.8-.9 0-1.4-.5-1.7-.9l-3.5-4.9c.1-.1-.9-1.1-.9-2.3zm-1 3.4v2.8c0 1.2-.7 1.8-1.8 1.8s-1.8-.6-1.8-1.8V1.9c0-1.2.7-1.8 1.8-1.8s1.8.6 1.8 1.8v12.4z"/><path d="M6.4 2.5H1.2C.6 2.5 0 2 0 1.3S.6.1 1.2.1h5.2c.7 0 1.3.5 1.3 1.2s-.6 1.2-1.3 1.2m20 0h-2c-.7 0-1.2-.6-1.2-1.2 0-.7.6-1.2 1.2-1.2h2c.7 0 1.2.6 1.2 1.2 0 .7-.5 1.2-1.2 1.2m8.5 5.4h-2c-.7 0-1.2-.6-1.2-1.2 0-.7.6-1.2 1.2-1.2h2c.7 0 1.2.6 1.2 1.2s-.6 1.2-1.2 1.2m55.9-5.4h-2c-.7 0-1.2-.6-1.2-1.2 0-.7.6-1.2 1.2-1.2h2c.7 0 1.2.6 1.2 1.2 0 .7-.6 1.2-1.2 1.2m24.5 10.2h-4.9c-.6 0-1.1-.5-1.1-1.1s.5-1.1 1.1-1.1h4.9c.6 0 1.1.5 1.1 1.1 0 .6-.5 1.1-1.1 1.1m-95.2 6.2h-1.2c-.7 0-1.2-.6-1.2-1.2v-5.3c0-.7.6-1.2 1.2-1.2.7 0 1.2.6 1.2 1.2v4.1c.7 0 1.2.6 1.2 1.2s-.5 1.2-1.2 1.2"/><path d="M36.6 15.7v1.5c0 1.2-.7 1.8-1.8 1.8s-1.8-.6-1.8-1.8v-14c0-1.2.7-1.8 1.8-1.8s1.8.6 1.8 1.8v2.2h1.1c1.1 0 1.7.3 1.7 1.2s-.6 1.2-1.7 1.2h-1.1v7.9m88.1-1.4v2.8c0 1.2-.7 1.8-1.8 1.8s-1.8-.6-1.8-1.8V6.9c0-1.2.7-1.8 1.8-1.8s1.8.6 1.8 1.8v7.4"/><path d="M122.6 7.5h-2c-.7 0-1.2-.6-1.2-1.2 0-.7.6-1.2 1.2-1.2h2c.7 0 1.2.6 1.2 1.2 0 .7-.6 1.2-1.2 1.2m.7 2.9c-.4 0-.7-.2-1-.5-.4-.5-.3-1.3.2-1.7l3.1-2.3c.2-.2.5-.3.7-.3h2.6c.7 0 1.2.6 1.2 1.2 0 .7-.6 1.2-1.2 1.2h-2.2l-2.7 2.1c-.2.2-.4.3-.7.3"/><path d="M128.5 8.2h-2.1c-1 0-1.8-.3-1.8-1.3s.8-1.8 1.8-1.8h2.1c1 0 1.8.8 1.8 1.8 0 .9-.8 1.3-1.8 1.3M85 15V8.8c0-2.7-2.7-3.5-7.5-3.5l-3.2.5c-.8.2-1.5.6-1.5 1.5 0 .7.5 1.5 1.5 1.3l3.5-.6h1.3c1.2 0 2.3.2 2.3 1.2v4.5c0 1.4-1.2 2.7-3.2 2.7-1.3 0-2-.7-2-1.5 0-1.1.8-1.6 2.4-1.8 0 0 1.1-.2.8-1.3-.3-1.1-1.7-.9-1.7-.9-2.8.3-5.1 1.2-5.1 4.2 0 2.3 2.1 3.8 4.1 3.8 1.9 0 3.6-.6 5-2.1.1 1.1.6 2.1 2.2 2.1.9 0 1.7-.6 1.7-1.4-.2-.6-.6-.9-.6-2.5m25.1-2.3h5.7c1.2 0 1.6-.3 1.6-1.6 0-3-2.4-6-6.6-6-4.3 0-6.9 2.9-6.9 7.2 0 3.2 1.9 6.7 7 6.7l4-.6c.9-.2 1.7-.8 1.6-1.8-.1-.7-.6-1.3-1.6-1.2l-4 .6c-2.1 0-3.4-1.4-3.4-3.4 0 0-.6-5.1 3.3-5.1 1.6 0 2.9 1.2 3.1 2.9h-3.3l-.5 2.3"/></svg>