<svg xmlns="http://www.w3.org/2000/svg" viewBox="0 0 204.39 66.99"><defs><style>.cls-3{fill:#a07100}</style><linearGradient id="linear-gradient" x1="102.2" x2="102.2" y2="66.99" gradientUnits="userSpaceOnUse"><stop offset="0" stop-color="#ffe125"/><stop offset=".69" stop-color="#ffdf27"/><stop offset=".84" stop-color="#ffdc2a"/><stop offset=".9" stop-color="#feda29"/><stop offset=".93" stop-color="#fbd326"/><stop offset=".95" stop-color="#f5c720"/><stop offset=".96" stop-color="#ecb618"/><stop offset=".98" stop-color="#e19f0d"/><stop offset=".98" stop-color="#e09d0c"/></linearGradient><linearGradient id="linear-gradient-2" x1="102.2" x2="102.2" y2="66.99" gradientUnits="userSpaceOnUse"><stop offset="0" stop-color="#fc0"/><stop offset=".55" stop-color="#ffca00"/><stop offset=".75" stop-color="#ffc300"/><stop offset=".84" stop-color="#ffbc00"/><stop offset=".92" stop-color="#ffdc2a"/><stop offset=".99" stop-color="#e0930c"/></linearGradient></defs><g id="Layer_2" data-name="Layer 2"><g id="Layer_1-2" data-name="Layer 1"><path fill="url(#linear-gradient)" d="M87.73 0H0l114.49 66.99h89.9L87.73 0z"/><path fill="url(#linear-gradient-2)" d="M118.49 66.99L4 0h79.73l116.66 66.99h-81.9z"/><path class="cls-3" d="M82.53 8.74L85 10.28c2.42 1.5 3.81 3.79 2.1 6.54-1.51 2.43-4.31 2.5-6.55 1.11l-2.71-1.68zm-2.06 7l.86.53c1.54 1 3.06 1.09 4.12-.62.92-1.48.17-2.9-1.23-3.77l-1-.61zM91.36 23.41a3.3 3.3 0 0 1-2.81-.33 3.19 3.19 0 1 1 3.36-5.41c1.49.92 1.76 2.57.74 4.21l-.31.5-3.69-2.3a1.4 1.4 0 0 0 .58 1.74 1.6 1.6 0 0 0 1.52.08zm.06-3.11a1.12 1.12 0 0 0-.37-1.58 1.25 1.25 0 0 0-1.73.28zM97.41 23.36a1.33 1.33 0 0 0-.65-1c-.27-.17-.66-.25-.85.06-.47.76 2.61 1.79 1.39 3.75-.82 1.32-2.33.91-3.43.22a3.34 3.34 0 0 1-1.59-2l1.63-.39a1.63 1.63 0 0 0 .78 1.26c.36.22.78.35 1 .08.52-.83-2.61-1.79-1.38-3.76.75-1.21 2.16-1.07 3.25-.4A3.07 3.07 0 0 1 99 23zM100.59 23.23l1.59 1L99 29.38l-1.59-1zm2.41-2.05a1.09 1.09 0 1 1-1.5.35 1.09 1.09 0 0 1 1.5-.35zM106 33.15c-1.21 1.94-2.84 2.37-4.84 1.13a4.76 4.76 0 0 1-2.12-2.36l1.7-.77a3 3 0 0 0 1.26 1.71 1.45 1.45 0 0 0 2.21-.38l.31-.5a2.12 2.12 0 0 1-1.88-.23 2.92 2.92 0 0 1-.88-4.24 2.94 2.94 0 0 1 4-1.22 2.48 2.48 0 0 1 1.26 1.9l.42-.68 1.46.91zm-2.18-2.6a1.5 1.5 0 1 0-.48-2.07 1.51 1.51 0 0 0 .5 2.07zM110.44 29.35l1.53.95-.44.7a2 2 0 0 1 2 .11c1.61 1 1.25 2.25.39 3.63l-1.72 2.86-1.59-1 1.57-2.53c.37-.59.83-1.37 0-1.87s-1.36.05-1.77.72l-1.6 2.57-1.59-1zM59.21 13.41l-1.05-.65.79-1.27 1.05.65.57-.91c.7-1.12 1.58-1.9 3.31-.83a4.56 4.56 0 0 1 .88.68l-.91 1.3a1.74 1.74 0 0 0-.45-.43c-.51-.32-.86-.32-1.29.36l-.51.82 1.18.73-.78 1.27-1.2-.73-2.41 3.88-1.59-1zM66.34 15.9a3.19 3.19 0 1 1-4.55.93 3.17 3.17 0 0 1 4.55-.93zm-2.49 4a1.42 1.42 0 0 0 2.09-.51 1.5 1.5 0 1 0-2.09.51zM70.27 18.52l1.59 1-.51.83a1.85 1.85 0 0 1 2.08 0 2.47 2.47 0 0 1 .5.38L73 22.16a3 3 0 0 0-.61-.53c-1.21-.75-1.79-.14-2.43.89l-1.34 2.15-1.59-1zM82.3 22.73l1.37.85-1.4 9.55L80.4 32l.34-2-2.92-1.81-1.62 1.2-1.82-1.13zm-.72 2.58l-2.36 1.77 1.84 1.14zM88.72 36.53c-1.21 1.94-2.84 2.37-4.84 1.13a4.76 4.76 0 0 1-2.12-2.36l1.7-.77a3 3 0 0 0 1.26 1.71 1.45 1.45 0 0 0 2.21-.38l.31-.5a2.13 2.13 0 0 1-1.88-.23 2.91 2.91 0 0 1-.88-4.24 2.94 2.94 0 0 1 4-1.22 2.48 2.48 0 0 1 1.26 1.9l.42-.68 1.46.91zm-2.18-2.6a1.5 1.5 0 1 0-.48-2.07 1.51 1.51 0 0 0 .48 2.07zM95.37 40a3.3 3.3 0 0 1-2.81-.33 3.19 3.19 0 1 1 3.37-5.41c1.49.92 1.76 2.57.74 4.21l-.31.5-3.69-2.3a1.4 1.4 0 0 0 .58 1.74 1.6 1.6 0 0 0 1.52.08zm.06-3.11a1.13 1.13 0 0 0-.37-1.58 1.25 1.25 0 0 0-1.73.28zM99.45 36.65l1.53.95-.44.7a2 2 0 0 1 2 .11c1.61 1 1.25 2.25.39 3.63l-1.77 2.84-1.59-1 1.57-2.53c.37-.59.83-1.36 0-1.87s-1.36.05-1.77.72l-1.6 2.57-1.59-1zM108.21 44.41a1.16 1.16 0 0 0-.54-.88 1.54 1.54 0 0 0-1.67 2.61 1.19 1.19 0 0 0 1 .1l.37 1.76a3 3 0 0 1-2.26-.45 3.19 3.19 0 1 1 3.36-5.41 3 3 0 0 1 1.48 1.86zM111.1 43.9l1.59 1-3.2 5.1-1.59-1zm2.38-2.05a1.09 1.09 0 1 1-1.5.35 1.09 1.09 0 0 1 1.5-.36zM116.29 53a3.3 3.3 0 0 1-2.81-.33 3.19 3.19 0 1 1 3.37-5.41c1.49.92 1.76 2.57.74 4.21l-.31.5-3.69-2.3a1.4 1.4 0 0 0 .58 1.74 1.6 1.6 0 0 0 1.53.08zm.06-3.11a1.13 1.13 0 0 0-.37-1.58 1.25 1.25 0 0 0-1.73.28zM122.34 53a1.34 1.34 0 0 0-.65-1c-.27-.16-.66-.25-.85.06-.48.76 2.61 1.79 1.39 3.75-.82 1.32-2.33.91-3.43.22a3.34 3.34 0 0 1-1.59-2l1.63-.47a1.62 1.62 0 0 0 .77 1.26c.36.22.78.35 1 .08.51-.83-2.61-1.8-1.38-3.76.75-1.21 2.16-1.07 3.25-.4a3.07 3.07 0 0 1 1.49 1.87z"/></g></g></svg>