<svg id="Layer_1" xmlns="http://www.w3.org/2000/svg" xmlns:xlink="http://www.w3.org/1999/xlink" viewBox="0 0 562 1520.3"><style>.st0{fill:#fff}.st1{fill:#e2e4e7}.st2{fill:#acb2b8}.st3{fill:#c2c8cd}.st7{fill:#888c90}.st10{fill:#ced3d6}.st11{fill:#adb3b9}.st12{fill:#2d85dd}.st13{fill:#cfd3d7}.st14{fill:#cdd2d5}.st16{fill:#afb3ba}.st17{fill:#2e86dd}</style><g id="AompSk.tif_1_"><image width="372" height="1014" id="Layer_0_3_" xlink:href="9E542F47E2E52E27.png" transform="translate(4.432 -.397) scale(1.4997)" overflow="visible"/></g><path class="st0" d="M0-.4h562.3v1520.7H0z"/><path class="st1" d="M52 67.5h457v204H52z"/><path class="st2" d="M177 144.3h208v15H177z"/><path class="st3" d="M143 184h277.3v10H143zM143 170.3h277.3v10H143z"/><path class="st2" d="M491.2 169.3l-13.6-9.4c-.1-.1-.3-.1-.5 0s-.3.2-.3.4V179c0 .2.1.3.3.4.1 0 .1.1.2.1s.2 0 .3-.1l13.6-9.4c.1-.1.2-.2.2-.4s-.1-.2-.2-.3zm-13.4 8.8v-16.9l12.3 8.5-12.3 8.4zM68.9 169.7c0 .2.1.3.2.4l13.6 9.4c.1.1.2.1.3.1.1 0 .1 0 .2-.1.2-.1.3-.2.3-.4v-18.7c0-.2-.1-.3-.3-.4-.2-.1-.3-.1-.5 0l-13.6 9.4c-.1 0-.2.1-.2.3zm1.3 0l12.3-8.5v16.9l-12.3-8.4zM128.5 20.4H440V40H128.5zM487.5 20.4h20.7V40h-20.7zM464.2 20.4h20.7V40h-20.7zM52 20.1h46.6v19.6H52z"/><text transform="translate(61.938 33.813)" font-size="12" font-family="MyriadPro-Regular" fill="#fcfcfc">Logo</text><path class="st7" d="M194.1 27.3h34.8v5.2h-34.8zM243.2 27.4H278v5.2h-34.8zM290.4 27.5h34.8v5.2h-34.8zM339.1 27.2h34.8v5.2h-34.8zM388.1 27.5h34.8v5.2h-34.8zM145.5 27.6h34.8v5.2h-34.8z"/><path fill="#fff" stroke="#acb2b8" stroke-miterlimit="10" d="M209.8 42.5l-2.8 5.3h-11.2v48.7h77.3v-49h-61z"/><path class="st2" d="M202.8 58.2h61.4v5.6h-61.4zM202.8 80h61.4v5.6h-61.4zM202.8 69.1h61.4v5.6h-61.4z"/><path class="st1" d="M225.3 300.7h283.8V572H225.3z"/><path fill="#abb1b7" d="M322 326.3h88.7V337H322z"/><path class="st10" d="M241.7 357.3h250v5.7h-250zM241.7 375.4h250v5.7h-250zM241.3 393.4h250v5.7h-250zM241.3 411.5h250v5.7h-250zM241.3 429.5h250v5.7h-250zM241.3 447.6h250v5.7h-250zM241.3 465.6h250v5.7h-250zM241.3 483.7h250v5.7h-250zM241.3 501.7h250v5.7h-250zM241.3 519.8h250v5.7h-250zM241.7 537.8h250v5.7h-250z"/><path class="st1" d="M51.2 300.7H208v26.5H51.2z"/><path class="st2" d="M62.8 311.4h55v5.7h-55z"/><path class="st2" d="M196.7 313.1l-.5-.5-1.7 1.7-1.8-1.7-.5.5 2.3 2.3z" id="chevron-right"/><path class="st1" d="M51.2 395.2H208v26.5H51.2z"/><path class="st2" d="M62.8 405.9h55v5.7h-55z"/><path class="st2" d="M196.7 407.6l-.5-.5-1.7 1.7-1.8-1.7-.5.5 2.3 2.3z" id="chevron-right_1_"/><path class="st1" d="M51.2 425.5H208V452H51.2z"/><path class="st2" d="M62.8 436.2h55v5.7h-55z"/><path class="st2" d="M196.7 437.9l-.5-.6-1.7 1.8-1.8-1.8-.5.6 2.3 2.2z" id="chevron-right_2_"/><path class="st1" d="M51.2 455.7H208v26.5H51.2z"/><path class="st2" d="M62.8 466.4h55v5.7h-55z"/><path class="st2" d="M196.7 468.1l-.5-.5-1.7 1.7-1.8-1.7-.5.5 2.3 2.2z" id="chevron-right_3_"/><path class="st1" d="M51.2 485.9H208v26.5H51.2z"/><path class="st2" d="M62.8 496.6h55v5.7h-55z"/><path class="st2" d="M196.7 498.3l-.5-.5-1.7 1.7-1.8-1.7-.5.5 2.3 2.3z" id="chevron-right_4_"/><path class="st1" d="M51.2 516.2H208v26.5H51.2z"/><path class="st2" d="M62.8 526.9h55v5.7h-55z"/><path class="st2" d="M196.7 528.6l-.5-.6-1.7 1.8-1.8-1.8-.5.6 2.3 2.2z" id="chevron-right_5_"/><path class="st1" d="M51.7 546.4h156.8v26.5H51.7z"/><path class="st2" d="M63.2 557.1h55v5.7h-55z"/><path class="st2" d="M197.1 558.8l-.5-.5-1.7 1.7-1.8-1.7-.5.5 2.3 2.2z" id="chevron-right_6_"/><path class="st11" d="M71 336.1h125v4.6H71zM71 350.7h125v4.6H71zM71 365.3h125v4.6H71zM71 379.9h125v4.6H71z"/><circle class="st12" cx="65" cy="337.9" r="1.5"/><circle class="st12" cx="65" cy="353" r="1.5"/><circle class="st12" cx="65" cy="367.6" r="1.5"/><circle class="st12" cx="65" cy="382.8" r="1.5"/><path class="st1" d="M51.4 599.8h157.2v120.5H51.4z"/><path class="st2" d="M85.7 640.9h88.5v8H85.7z"/><path class="st13" d="M71 657.2h117.9v4.9H71zM71 667.2h117.9v4.9H71z"/><path class="st1" d="M225.3 599.8h283.8v120.5H225.3z"/><path class="st2" d="M322.4 640.9h88.5v8h-88.5z"/><path class="st13" d="M307.7 657.2h117.9v4.9H307.7zM307.7 667.2h117.9v4.9H307.7z"/><path class="st1" d="M51.4 748H156v137H51.4z"/><path class="st2" d="M81.3 844.3H127v8.8H81.3z"/><path class="st14" d="M73.3 861.5h61.3v5.3H73.3z"/><path class="st0" d="M116.2 787.6H93.7c-1.7 0-3.1 1.4-3.1 3.1v17.5c0 1.7 1.4 3.1 3.1 3.1h22.5c1.7 0 3.1-1.4 3.1-3.1v-17.5c0-1.7-1.4-3.1-3.1-3.1zm1.8 12l-3-3c-.5-.5-1.2-.5-1.7 0l-7.1 7.1-3.6-3.6c-.5-.5-1.3-.5-1.7 0l-3.1 3.1c-.2.2-.2.6 0 .9s.6.2.9 0l3.1-3.1 3.6 3.6-2.5 2.5c-.2.2-.2.6 0 .9.1.1.3.2.4.2s.3-.1.4-.2l10.5-10.5 3.7 3.7.1.1v6.9c0 1-.8 1.9-1.9 1.9H93.7c-1 0-1.9-.8-1.9-1.9v-17.5c0-1 .8-1.9 1.9-1.9h22.5c1 0 1.9.8 1.9 1.9v8.9z"/><path class="st0" d="M96.2 804.6l-.6.6c-.2.2-.2.6 0 .9.1.1.3.2.4.2s.3-.1.4-.2l.6-.6c.2-.2.2-.6 0-.9s-.5-.2-.8 0zM97.4 791.3c-1.7 0-3.1 1.4-3.1 3.1 0 1.7 1.4 3.1 3.1 3.1 1.7 0 3.1-1.4 3.1-3.1.1-1.7-1.3-3.1-3.1-3.1zm0 5c-1 0-1.9-.8-1.9-1.9s.8-1.9 1.9-1.9c1 0 1.9.8 1.9 1.9s-.8 1.9-1.9 1.9z"/><path class="st3" d="M51.7 914h144v103.1h-144z"/><path class="st2" d="M52 1029.3h90.9v8.8H52z"/><path class="st14" d="M52 1042.5h143.7v5.3H52zM52 1053h143.7v5.3H52z"/><path class="st0" d="M135.8 953.6h-22.5c-1.7 0-3.1 1.4-3.1 3.1v17.5c0 1.7 1.4 3.1 3.1 3.1h22.5c1.7 0 3.1-1.4 3.1-3.1v-17.5c.1-1.7-1.3-3.1-3.1-3.1zm1.9 12l-3-3c-.5-.5-1.2-.5-1.7 0l-7.1 7.1-3.6-3.6c-.5-.5-1.3-.5-1.7 0l-3.1 3.1c-.2.2-.2.6 0 .9.2.2.6.2.9 0l3.1-3.1 3.6 3.6-2.5 2.5c-.2.2-.2.6 0 .9.1.1.3.2.4.2s.3-.1.4-.2l10.5-10.5 3.7 3.7.1.1v6.9c0 1-.8 1.9-1.9 1.9h-22.5c-1 0-1.9-.8-1.9-1.9v-17.5c0-1 .8-1.9 1.9-1.9h22.5c1 0 1.9.8 1.9 1.9v8.9z"/><path class="st0" d="M115.9 970.6l-.6.6c-.2.2-.2.6 0 .9.1.1.3.2.4.2s.3-.1.4-.2l.6-.6c.2-.2.2-.6 0-.9s-.6-.2-.8 0zM117.1 957.3c-1.7 0-3.1 1.4-3.1 3.1 0 1.7 1.4 3.1 3.1 3.1 1.7 0 3.1-1.4 3.1-3.1 0-1.7-1.4-3.1-3.1-3.1zm0 5c-1 0-1.9-.8-1.9-1.9s.8-1.9 1.9-1.9c1 0 1.9.8 1.9 1.9s-.9 1.9-1.9 1.9z"/><path class="st3" d="M209 914h144v103.1H209z"/><path class="st2" d="M209.3 1029.3h90.9v8.8h-90.9z"/><path class="st14" d="M209.3 1042.5H353v5.3H209.3zM209.3 1053H353v5.3H209.3z"/><path class="st0" d="M293.2 953.6h-22.5c-1.7 0-3.1 1.4-3.1 3.1v17.5c0 1.7 1.4 3.1 3.1 3.1h22.5c1.7 0 3.1-1.4 3.1-3.1v-17.5c0-1.7-1.4-3.1-3.1-3.1zm1.8 12l-3-3c-.5-.5-1.2-.5-1.7 0l-7.1 7.1-3.6-3.6c-.5-.5-1.3-.5-1.7 0l-3.1 3.1c-.2.2-.2.6 0 .9s.6.2.9 0l3.1-3.1 3.6 3.6-2.5 2.5c-.2.2-.2.6 0 .9.1.1.3.2.4.2s.3-.1.4-.2l10.5-10.5 3.7 3.7.1.1v6.9c0 1-.8 1.9-1.9 1.9h-22.5c-1 0-1.9-.8-1.9-1.9v-17.5c0-1 .8-1.9 1.9-1.9h22.5c1 0 1.9.8 1.9 1.9v8.9z"/><path class="st0" d="M273.2 970.6l-.6.6c-.2.2-.2.6 0 .9.1.1.3.2.4.2s.3-.1.4-.2l.6-.6c.2-.2.2-.6 0-.9s-.5-.2-.8 0zM274.4 957.3c-1.7 0-3.1 1.4-3.1 3.1 0 1.7 1.4 3.1 3.1 3.1s3.1-1.4 3.1-3.1c.1-1.7-1.3-3.1-3.1-3.1zm0 5c-1 0-1.9-.8-1.9-1.9s.8-1.9 1.9-1.9 1.9.8 1.9 1.9-.8 1.9-1.9 1.9z"/><path class="st3" d="M364.5 914h144v103.1h-144z"/><path class="st2" d="M364.8 1029.3h90.9v8.8h-90.9z"/><path class="st14" d="M364.8 1042.5h143.7v5.3H364.8zM364.8 1053h143.7v5.3H364.8z"/><path class="st0" d="M448.7 953.6h-22.5c-1.7 0-3.1 1.4-3.1 3.1v17.5c0 1.7 1.4 3.1 3.1 3.1h22.5c1.7 0 3.1-1.4 3.1-3.1v-17.5c0-1.7-1.4-3.1-3.1-3.1zm1.8 12l-3-3c-.5-.5-1.2-.5-1.7 0l-7.1 7.1-3.6-3.6c-.5-.5-1.3-.5-1.7 0l-3.1 3.1c-.2.2-.2.6 0 .9.2.2.6.2.9 0l3.1-3.1 3.6 3.6-2.5 2.5c-.2.2-.2.6 0 .9.1.1.3.2.4.2.2 0 .3-.1.4-.2l10.5-10.5 3.7 3.7.1.1v6.9c0 1-.8 1.9-1.9 1.9h-22.5c-1 0-1.9-.8-1.9-1.9v-17.5c0-1 .8-1.9 1.9-1.9h22.5c1 0 1.9.8 1.9 1.9v8.9z"/><path class="st0" d="M428.7 970.6l-.6.6c-.2.2-.2.6 0 .9.1.1.3.2.4.2s.3-.1.4-.2l.6-.6c.2-.2.2-.6 0-.9-.1-.2-.5-.2-.8 0zM429.9 957.3c-1.7 0-3.1 1.4-3.1 3.1 0 1.7 1.4 3.1 3.1 3.1s3.1-1.4 3.1-3.1c.1-1.7-1.3-3.1-3.1-3.1zm0 5c-1 0-1.9-.8-1.9-1.9s.8-1.9 1.9-1.9 1.9.8 1.9 1.9-.8 1.9-1.9 1.9z"/><path class="st1" d="M169 748h104.6v137H169z"/><path class="st2" d="M199 844.3h45.7v8.8H199z"/><path class="st14" d="M191 861.5h61.3v5.3H191z"/><path class="st0" d="M233.8 787.6h-22.5c-1.7 0-3.1 1.4-3.1 3.1v17.5c0 1.7 1.4 3.1 3.1 3.1h22.5c1.7 0 3.1-1.4 3.1-3.1v-17.5c.1-1.7-1.3-3.1-3.1-3.1zm1.9 12l-3-3c-.5-.5-1.2-.5-1.7 0l-7.1 7.1-3.6-3.6c-.5-.5-1.3-.5-1.7 0l-3.1 3.1c-.2.2-.2.6 0 .9.2.2.6.2.9 0l3.1-3.1 3.6 3.6-2.5 2.5c-.2.2-.2.6 0 .9.1.1.3.2.4.2s.3-.1.4-.2l10.5-10.5 3.7 3.7.1.1v6.9c0 1-.8 1.9-1.9 1.9h-22.5c-1 0-1.9-.8-1.9-1.9v-17.5c0-1 .8-1.9 1.9-1.9h22.5c1 0 1.9.8 1.9 1.9v8.9z"/><path class="st0" d="M213.9 804.6l-.6.6c-.2.2-.2.6 0 .9.1.1.3.2.4.2s.3-.1.4-.2l.6-.6c.2-.2.2-.6 0-.9s-.6-.2-.8 0zM215.1 791.3c-1.7 0-3.1 1.4-3.1 3.1 0 1.7 1.4 3.1 3.1 3.1 1.7 0 3.1-1.4 3.1-3.1 0-1.7-1.4-3.1-3.1-3.1zm0 5c-1 0-1.9-.8-1.9-1.9s.8-1.9 1.9-1.9c1 0 1.9.8 1.9 1.9s-.9 1.9-1.9 1.9z"/><path class="st1" d="M286.9 748h104.6v137H286.9z"/><path class="st2" d="M316.8 844.3h45.7v8.8h-45.7z"/><path class="st14" d="M308.8 861.5h61.3v5.3h-61.3z"/><path class="st0" d="M351.7 787.6h-22.5c-1.7 0-3.1 1.4-3.1 3.1v17.5c0 1.7 1.4 3.1 3.1 3.1h22.5c1.7 0 3.1-1.4 3.1-3.1v-17.5c0-1.7-1.4-3.1-3.1-3.1zm1.9 12l-3-3c-.5-.5-1.2-.5-1.7 0l-7.1 7.1-3.6-3.6c-.5-.5-1.3-.5-1.7 0l-3.1 3.1c-.2.2-.2.6 0 .9.2.2.6.2.9 0l3.1-3.1 3.6 3.6-2.5 2.5c-.2.2-.2.6 0 .9.1.1.3.2.4.2.2 0 .3-.1.4-.2l10.5-10.5 3.7 3.7.1.1v6.9c0 1-.8 1.9-1.9 1.9h-22.5c-1 0-1.9-.8-1.9-1.9v-17.5c0-1 .8-1.9 1.9-1.9h22.5c1 0 1.9.8 1.9 1.9v8.9z"/><path class="st0" d="M331.7 804.6l-.6.6c-.2.2-.2.6 0 .9.1.1.3.2.4.2s.3-.1.4-.2l.6-.6c.2-.2.2-.6 0-.9-.1-.2-.5-.2-.8 0zM333 791.3c-1.7 0-3.1 1.4-3.1 3.1 0 1.7 1.4 3.1 3.1 3.1s3.1-1.4 3.1-3.1c0-1.7-1.4-3.1-3.1-3.1zm0 5c-1 0-1.9-.8-1.9-1.9s.8-1.9 1.9-1.9 1.9.8 1.9 1.9-.9 1.9-1.9 1.9z"/><g><path class="st1" d="M404.5 748h104.6v137H404.5z"/><path class="st2" d="M434.5 844.3h45.7v8.8h-45.7z"/><path class="st14" d="M426.5 861.5h61.3v5.3h-61.3z"/><path class="st0" d="M469.4 787.6h-22.5c-1.7 0-3.1 1.4-3.1 3.1v17.5c0 1.7 1.4 3.1 3.1 3.1h22.5c1.7 0 3.1-1.4 3.1-3.1v-17.5c0-1.7-1.4-3.1-3.1-3.1zm1.8 12l-3-3c-.5-.5-1.2-.5-1.7 0l-7.1 7.1-3.6-3.6c-.5-.5-1.3-.5-1.7 0l-3.1 3.1c-.2.2-.2.6 0 .9s.6.2.9 0l3.1-3.1 3.6 3.6-2.5 2.5c-.2.2-.2.6 0 .9.1.1.3.2.4.2s.3-.1.4-.2l10.5-10.5 3.7 3.7.1.1v6.9c0 1-.8 1.9-1.9 1.9h-22.5c-1 0-1.9-.8-1.9-1.9v-17.5c0-1 .8-1.9 1.9-1.9h22.5c1 0 1.9.8 1.9 1.9v8.9z"/><path class="st0" d="M449.4 804.6l-.6.6c-.2.2-.2.6 0 .9.1.1.3.2.4.2s.3-.1.4-.2l.6-.6c.2-.2.2-.6 0-.9s-.5-.2-.8 0zM450.6 791.3c-1.7 0-3.1 1.4-3.1 3.1 0 1.7 1.4 3.1 3.1 3.1s3.1-1.4 3.1-3.1c0-1.7-1.4-3.1-3.1-3.1zm0 5c-1 0-1.9-.8-1.9-1.9s.8-1.9 1.9-1.9 1.9.8 1.9 1.9-.8 1.9-1.9 1.9z"/></g><path class="st10" d="M179 1088h330.2v35.3H179z"/><path class="st1" d="M51.7 1087.8H179v35.5H51.7zM51.7 1123.3h457.5V1310H51.7z"/><path class="st2" d="M247 1101h63.7v8.7H247zM84.5 1101.2h63.7v8.7H84.5zM375.7 1101h63.7v8.7h-63.7z"/><path class="st3" d="M68.3 1146.7h157v130h-157z"/><path class="st10" d="M241 1146.7h251.7v5.3H241zM241 1164.5h251.7v5.3H241zM241 1182.3h251.7v5.3H241zM241 1200.2h251.7v5.3H241zM241 1218h251.7v5.3H241zM241 1235.8h251.7v5.3H241zM241 1253.7h251.7v5.3H241zM241 1271.5h251.7v5.3H241z"/><g><path class="st0" d="M158.1 1193.6h-22.5c-1.7 0-3.1 1.4-3.1 3.1v17.5c0 1.7 1.4 3.1 3.1 3.1h22.5c1.7 0 3.1-1.4 3.1-3.1v-17.5c0-1.7-1.4-3.1-3.1-3.1zm1.8 12l-3-3c-.5-.5-1.2-.5-1.7 0l-7.1 7.1-3.6-3.6c-.5-.5-1.3-.5-1.7 0l-3.1 3.1c-.2.2-.2.6 0 .9.2.2.6.2.9 0l3.1-3.1 3.6 3.6-2.5 2.5c-.2.2-.2.6 0 .9.1.1.3.2.4.2s.3-.1.4-.2l10.5-10.5 3.7 3.7.1.1v6.9c0 1-.8 1.9-1.9 1.9h-22.5c-1 0-1.9-.8-1.9-1.9v-17.5c0-1 .8-1.9 1.9-1.9H158c1 0 1.9.8 1.9 1.9v8.9z"/><path class="st0" d="M138.1 1210.7l-.6.6c-.2.2-.2.6 0 .9.1.1.3.2.4.2s.3-.1.4-.2l.6-.6c.2-.2.2-.6 0-.9-.1-.3-.5-.3-.8 0zM139.3 1197.4c-1.7 0-3.1 1.4-3.1 3.1s1.4 3.1 3.1 3.1 3.1-1.4 3.1-3.1-1.3-3.1-3.1-3.1zm0 5c-1 0-1.9-.8-1.9-1.9 0-1 .8-1.9 1.9-1.9s1.9.8 1.9 1.9c0 1-.8 1.9-1.9 1.9z"/></g><path fill="#d9dee3" d="M0 1349h562.3v171.3H0z"/><path class="st16" d="M223.8 1373.5h112v6h-112zM223.8 1391.3h112v6h-112zM223.8 1409.2h112v6h-112zM223.8 1427h112v6h-112zM223.8 1488.5h112v6h-112zM51.7 1373.5h112v6h-112zM51.7 1391.3h112v6h-112zM51.7 1409.2h112v6h-112zM51.7 1427h112v6h-112zM396.7 1373.5h112v6h-112zM396.7 1391.3h112v6h-112zM396.7 1409.2h112v6h-112zM396.7 1427h112v6h-112zM303.4 1457.5H319v15.6h-15.6zM283.1 1457.5h15.6v15.6h-15.6zM262.8 1457.5h15.6v15.6h-15.6zM242.5 1457.5h15.6v15.6h-15.6z"/><g><circle class="st17" cx="44.3" cy="30.4" r="26"/><path class="st0" d="M46.6 40.6h-2.7V22.5l-3.5 3.7-1.6-1.7 5.4-5.6h2.4v21.7z"/></g><g><circle class="st17" cx="195.8" cy="30" r="26"/><path class="st0" d="M203.3 40.2h-14.9v-2.1c2.3-1.8 4-3.2 5.2-4.2l3.6-3.3c1.2-1.2 2-2.2 2.5-3.2s.7-1.8.7-2.7c0-1.3-.4-2.3-1.3-3-.9-.7-2-1-3.2-1-2.5 0-4.5.9-5.9 2.7l-1.7-1.7c.8-1.1 1.9-1.9 3.2-2.5 1.3-.6 2.8-.9 4.3-.9 2 0 3.7.6 5.1 1.7 1.4 1.1 2.2 2.7 2.2 4.7s-.9 4-2.6 6c-1.7 2-4.4 4.4-7.9 7.2h10.6v2.3z"/></g><g><circle class="st17" cx="464.8" cy="30.7" r="26"/><path class="st0" d="M465.8 41.3c-1.7 0-3.3-.3-4.6-1s-2.4-1.5-3.1-2.6l1.6-1.7c.6.9 1.5 1.6 2.6 2.1s2.2.8 3.5.8c1.6 0 2.8-.4 3.7-1.1.9-.7 1.3-1.7 1.3-3s-.5-2.3-1.4-2.9c-1-.6-2.3-.9-3.9-.9h-2.2v-2.5h2.2c1.5 0 2.7-.3 3.6-.9.9-.6 1.4-1.5 1.4-2.7 0-1.1-.5-2.1-1.4-2.7-.9-.7-2.1-1-3.5-1-2.2 0-4.1.9-5.7 2.6l-1.5-1.7c1.8-2.2 4.3-3.3 7.4-3.3 2.1 0 3.9.5 5.3 1.5s2.1 2.4 2.1 4.2c0 1.4-.5 2.6-1.4 3.4-1 .9-2 1.4-3.2 1.6 1.2.1 2.3.6 3.4 1.6 1.1.9 1.6 2.2 1.6 3.8 0 1.8-.7 3.3-2.1 4.5s-3.4 1.9-5.7 1.9z"/></g><g><circle class="st17" cx="89.8" cy="105.6" r="26"/><path class="st0" d="M94.7 115.9H92v-5.5H81.7v-2.2l9.3-14h3.7V108h3.1v2.4h-3.1v5.5zM92 108V96.7L84.4 108H92z"/></g><g><circle class="st17" cx="44.3" cy="313.4" r="26"/><path class="st0" d="M45.1 324.1c-1.5 0-2.7-.3-3.8-.9s-2-1.4-2.6-2.5c-.6-1.1-1.1-2.2-1.4-3.5-.3-1.3-.5-2.7-.5-4.2 0-2 .3-3.9.9-5.5.6-1.6 1.6-3 2.9-4.1 1.4-1.1 3-1.6 5-1.6 2.5 0 4.5.9 6 2.6l-1.4 2c-1.3-1.5-2.8-2.2-4.6-2.2-1.3 0-2.5.4-3.4 1.3-.9.8-1.6 1.9-2 3.1-.4 1.2-.6 2.6-.6 4.1v.8c.5-.9 1.4-1.6 2.5-2.3 1.1-.7 2.3-1 3.6-1 2.1 0 3.8.6 5.1 1.8 1.3 1.2 2 2.9 2 5.1 0 2-.7 3.6-2.1 5-1.4 1.3-3.3 2-5.6 2zm-.1-2.4c1.6 0 2.8-.5 3.7-1.4.9-.9 1.3-2 1.3-3.2 0-1.5-.5-2.7-1.4-3.5-.9-.8-2.1-1.2-3.6-1.2-1.1 0-2.1.3-3.1.9-1 .6-1.8 1.4-2.4 2.4.2 1.6.7 3 1.6 4.2.9 1.2 2.2 1.8 3.9 1.8z"/></g><g><circle class="st17" cx="262.8" cy="337" r="26"/><path class="st0" d="M262 347.3h-3l8.7-19.3H256v-2.4h14.8v1.9l-8.8 19.8z"/></g><g><circle class="st17" cx="89.3" cy="637.5" r="26"/><path class="st0" d="M95.2 646.5c-1.5 1.1-3.3 1.6-5.5 1.6s-4.1-.5-5.5-1.6c-1.5-1.1-2.2-2.5-2.2-4.3 0-1.4.5-2.5 1.5-3.5s2.2-1.7 3.7-2.1c-1.4-.4-2.5-1-3.4-1.9-.9-.9-1.4-2-1.4-3.3 0-1.8.7-3.2 2.2-4.2 1.5-1 3.2-1.4 5.2-1.4s3.7.5 5.2 1.4c1.5 1 2.2 2.4 2.2 4.2 0 1.3-.5 2.4-1.4 3.3-.9.9-2.1 1.5-3.5 1.9 1.5.4 2.7 1.1 3.7 2.1s1.5 2.2 1.5 3.5c-.1 1.8-.8 3.2-2.3 4.3zm-5.5-.8c1.4 0 2.6-.3 3.6-1s1.5-1.6 1.5-2.7c0-.9-.3-1.6-1-2.3s-1.4-1.1-2.1-1.4c-.7-.3-1.3-.4-1.9-.5-.6.1-1.2.2-1.9.5s-1.4.7-2.1 1.4c-.7.7-1 1.4-1 2.3 0 1.1.5 2 1.5 2.7.7.7 1.9 1 3.4 1zm0-10.3c.4-.1.9-.2 1.3-.3.4-.2.9-.4 1.5-.6.6-.3 1-.7 1.4-1.1s.5-1 .5-1.6c0-1.1-.4-2-1.3-2.6-.9-.7-2-1-3.4-1s-2.5.3-3.4 1c-.9.6-1.3 1.5-1.3 2.6 0 .6.2 1.2.5 1.6.3.5.8.9 1.4 1.1.6.3 1.1.5 1.5.6.4.1.8.2 1.3.3z"/></g><g><circle class="st17" cx="262.9" cy="637.5" r="26"/><path class="st0" d="M262.5 648.1c-2.5 0-4.5-.9-6-2.6l1.4-2c1.3 1.5 2.8 2.2 4.6 2.2 1.4 0 2.6-.4 3.5-1.3 1-.9 1.6-1.9 2-3.2.4-1.2.6-2.6.6-4v-.9c-.5.9-1.4 1.6-2.5 2.3-1.1.7-2.3 1-3.6 1-2.1 0-3.8-.6-5.1-1.8-1.3-1.2-2-2.9-2-5.1 0-2 .7-3.6 2.1-5 1.4-1.4 3.2-2.1 5.5-2.1 1.5 0 2.8.3 3.9.9s2 1.4 2.6 2.5c.6 1.1 1.1 2.2 1.4 3.5.3 1.3.5 2.7.5 4.3 0 2-.3 3.9-.9 5.5-.6 1.6-1.6 3-2.9 4.1-1.5 1.1-3.1 1.7-5.1 1.7zm.6-10.8c1.1 0 2.1-.3 3.1-.9 1-.6 1.8-1.4 2.3-2.3-.1-1.6-.6-3-1.5-4.2-.9-1.2-2.2-1.8-3.9-1.8-1.5 0-2.8.5-3.6 1.4-.9 1-1.3 2-1.3 3.2 0 1.5.5 2.7 1.4 3.5s2.1 1.1 3.5 1.1z"/></g><g><circle class="st17" cx="88.8" cy="785.6" r="26"/><path class="st0" d="M83.8 795.8h-2.7v-18.1l-3.5 3.7-1.6-1.7 5.4-5.6h2.4v21.7zM96.2 796.2c-1.4 0-2.7-.3-3.8-1-1.1-.7-2-1.5-2.6-2.6-.6-1.1-1.1-2.3-1.4-3.6-.3-1.3-.5-2.6-.5-4s.2-2.7.5-4c.3-1.3.8-2.5 1.4-3.6.6-1.1 1.5-2 2.6-2.6 1.1-.7 2.4-1 3.8-1s2.7.3 3.8 1c1.1.7 2 1.5 2.6 2.6.6 1.1 1.1 2.3 1.4 3.6.3 1.3.5 2.6.5 4s-.2 2.7-.5 4c-.3 1.3-.8 2.5-1.4 3.6-.6 1.1-1.5 2-2.6 2.6-1.1.7-2.3 1-3.8 1zm-3.2-3.7c.9.9 2 1.3 3.2 1.3 1.3 0 2.4-.5 3.3-1.3.9-.9 1.5-2 1.8-3.2.3-1.3.5-2.7.5-4.2 0-1.6-.2-3-.5-4.2-.3-1.3-.9-2.3-1.8-3.2-.9-.9-2-1.3-3.3-1.3-1.3 0-2.4.4-3.2 1.3-.9.9-1.5 2-1.8 3.2s-.5 2.7-.5 4.2c0 1.6.2 3 .5 4.2s.9 2.3 1.8 3.2z"/></g><g><circle class="st17" cx="90.6" cy="951.6" r="26"/><path class="st0" d="M87 961.8h-2.7v-18.1l-3.5 3.7-1.6-1.7 5.4-5.6H87v21.7zM98 961.8h-2.7v-18.1l-3.5 3.7-1.6-1.7 5.4-5.6H98v21.7z"/></g><g><circle class="st17" cx="90.6" cy="1105.6" r="26"/><path class="st0" d="M84 1115.8h-2.7v-18.1l-3.5 3.7-1.6-1.7 5.4-5.6H84v21.7zM103.2 1115.8H88.3v-2.1c2.3-1.8 4-3.2 5.2-4.2l3.6-3.3c1.2-1.2 2-2.2 2.5-3.2s.7-1.8.7-2.7c0-1.3-.4-2.3-1.3-3-.9-.7-2-1-3.2-1-2.5 0-4.5.9-5.9 2.7l-1.7-1.7c.8-1.1 1.9-1.9 3.2-2.5s2.8-.9 4.3-.9c2 0 3.7.6 5.1 1.7 1.4 1.1 2.2 2.7 2.2 4.7s-.9 4-2.6 6c-1.7 2-4.4 4.4-7.9 7.2h10.6v2.3z"/></g><g><circle class="st17" cx="105.6" cy="1183.5" r="26"/><path class="st0" d="M99 1193.7h-2.7v-18.1l-3.5 3.7-1.6-1.7 5.4-5.6H99v21.7zM110.2 1194.1c-1.7 0-3.3-.3-4.6-1-1.3-.7-2.4-1.5-3.1-2.6l1.6-1.7c.6.9 1.5 1.6 2.6 2.1s2.2.8 3.5.8c1.6 0 2.8-.4 3.7-1.1.9-.7 1.3-1.7 1.3-3s-.5-2.3-1.4-2.9c-1-.6-2.3-.9-3.9-.9h-2.2v-2.5h2.2c1.5 0 2.7-.3 3.6-.9.9-.6 1.4-1.5 1.4-2.7 0-1.1-.5-2.1-1.4-2.7-.9-.7-2.1-1-3.5-1-2.2 0-4.1.9-5.7 2.6l-1.5-1.7c1.8-2.2 4.3-3.3 7.4-3.3 2.1 0 3.9.5 5.3 1.5s2.1 2.4 2.1 4.2c0 1.4-.5 2.6-1.4 3.4-1 .9-2 1.4-3.2 1.6 1.2.1 2.3.6 3.4 1.6 1.1.9 1.6 2.2 1.6 3.8 0 1.8-.7 3.3-2.1 4.5-1.5 1.4-3.4 1.9-5.7 1.9z"/></g><g><circle class="st17" cx="278.6" cy="1182.3" r="26"/><path class="st0" d="M272 1192.6h-2.7v-18.1l-3.5 3.7-1.6-1.7 5.4-5.6h2.4v21.7zM288.6 1192.6h-2.7v-5.5h-10.3v-2.2l9.3-13.9h3.7v13.8h3.1v2.4h-3.1v5.4zm-2.7-7.9v-11.3l-7.6 11.3h7.6z"/></g><g><circle class="st17" cx="105.6" cy="1379.5" r="26"/><path class="st0" d="M99 1389.7h-2.7v-18.1l-3.5 3.7-1.6-1.7 5.4-5.6H99v21.7zM111.3 1390.1c-3.3 0-5.9-1.2-7.6-3.5l1.7-1.8c1.5 1.9 3.5 2.9 6 2.9 1.5 0 2.7-.4 3.6-1.3.9-.9 1.4-2 1.4-3.3 0-1.4-.5-2.5-1.4-3.4-.9-.9-2.1-1.3-3.6-1.3-2 0-3.6.7-5 2l-2-.7V1368h13.3v2.4h-10.6v7.5c1.3-1.3 3-1.9 5.1-1.9 1.9 0 3.5.6 4.9 1.9 1.3 1.2 2 2.9 2 5.1 0 2.2-.7 3.9-2.2 5.2-1.5 1.3-3.3 1.9-5.6 1.9z"/></g><g><circle class="st17" cx="238.9" cy="1460.8" r="26"/><path class="st0" d="M232.4 1471h-2.7v-18.1l-3.5 3.7-1.6-1.7 5.4-5.6h2.4v21.7zM244.9 1471.4c-1.5 0-2.7-.3-3.8-.9-1.1-.6-2-1.4-2.6-2.5-.6-1-1.1-2.2-1.4-3.5-.3-1.3-.5-2.7-.5-4.2 0-2 .3-3.9.9-5.5s1.6-3 2.9-4.1 3-1.6 5-1.6c2.5 0 4.5.9 6 2.6l-1.4 2c-1.3-1.5-2.8-2.2-4.6-2.2-1.3 0-2.5.4-3.4 1.3-.9.8-1.6 1.9-2 3.1-.4 1.2-.6 2.6-.6 4.1v.8c.5-.9 1.4-1.6 2.5-2.3 1.1-.7 2.3-1 3.6-1 2.1 0 3.8.6 5.1 1.8 1.3 1.2 2 2.9 2 5.1 0 2-.7 3.6-2.1 5-1.5 1.3-3.3 2-5.6 2zm-.1-2.4c1.6 0 2.8-.5 3.7-1.4s1.3-2 1.3-3.2c0-1.5-.5-2.7-1.4-3.5-.9-.8-2.1-1.2-3.6-1.2-1.1 0-2.1.3-3.1.9s-1.8 1.4-2.4 2.4c.2 1.6.7 3 1.6 4.2.9 1.2 2.2 1.8 3.9 1.8z"/></g><g><circle class="st17" cx="165.1" cy="151.6" r="26"/><path class="st0" d="M165.8 162.3c-3.3 0-5.9-1.2-7.6-3.5l1.7-1.8c1.5 1.9 3.5 2.9 6 2.9 1.5 0 2.7-.4 3.6-1.3.9-.9 1.4-2 1.4-3.3 0-1.4-.5-2.5-1.4-3.4s-2.1-1.3-3.6-1.3c-2 0-3.6.7-5 2l-2-.7v-11.7h13.3v2.4h-10.6v7.5c1.3-1.3 3-2 5.1-2 1.9 0 3.5.6 4.9 1.9 1.3 1.2 2 2.9 2 5.1 0 2.2-.7 3.9-2.2 5.2-1.6 1.3-3.4 2-5.6 2z"/></g></svg>