<svg id="Layer_1" xmlns="http://www.w3.org/2000/svg" xmlns:xlink="http://www.w3.org/1999/xlink" viewBox="0 0 649 624"><style>.st0{fill:#fff}.st1{fill:#e2e4e7}.st3{fill:#ced3d6}.st4{fill:#acb2b8}.st5{fill:#2e86dd}</style><g id="aUBnQj.tif"><image width="649" height="624" id="Layer_0_1_" xlink:href="D3D5D72DD209A142.png" overflow="visible"/></g><path class="st0" d="M0 0h649v623.3H0z"/><path class="st1" d="M62.7 258h529.6v254.6H62.7zM62.7 65h529.6v162.2H62.7z"/><path fill="#d9dee3" d="M.6 543.5H649v79.8H.6z"/><path class="st3" d="M564 333.6H92.7c-.2 0-.4-.2-.4-.4v-6.9H564c.2 0 .4.2.4.4v6.6c0 .1-.2.3-.4.3zM564 353.9H92.7c-.2 0-.4-.2-.4-.4v-6.9H564c.2 0 .4.2.4.4v6.6c0 .1-.2.3-.4.3zM564 375.9H92.7c-.2 0-.4-.2-.4-.4v-6.9H564c.2 0 .4.2.4.4v6.6c0 .1-.2.3-.4.3zM564 395.9H92.7c-.2 0-.4-.2-.4-.4v-6.9H564c.2 0 .4.2.4.4v6.6c0 .1-.2.3-.4.3zM564 416.1H92.7c-.2 0-.4-.2-.4-.4v-6.9H564c.2 0 .4.2.4.4v6.6c0 .1-.2.3-.4.3zM564 438.1H92.7c-.2 0-.4-.2-.4-.4v-6.9H564c.2 0 .4.2.4.4v6.6c0 .1-.2.3-.4.3zM564 458.4H92.7c-.2 0-.4-.2-.4-.4v-6.9H564c.2 0 .4.2.4.4v6.6c0 .1-.2.3-.4.3zM564 480.4H92.7c-.2 0-.4-.2-.4-.4v-6.9H564c.2 0 .4.2.4.4v6.6c0 .1-.2.3-.4.3z"/><path class="st4" d="M245 291.2h165.4v10.2H245zM62.7 574.5h53.8v20.8H62.7zM456.6 578.2h135.1v12.4H456.6zM292.5 28.5h59.8v22.2h-59.8z"/><path class="st0" d="M310.6 35.4h1v7.2h3.5v.9h-4.5v-8.1zM321.3 40.5c0 2.1-1.5 3.1-2.9 3.1-1.6 0-2.8-1.2-2.8-3 0-1.9 1.3-3.1 2.9-3.1 1.7.1 2.8 1.3 2.8 3zm-4.6.1c0 1.3.7 2.2 1.8 2.2 1 0 1.8-.9 1.8-2.3 0-1-.5-2.2-1.7-2.2-1.3.1-1.9 1.2-1.9 2.3zM327.7 37.7v5c0 1.3-.3 2.1-.8 2.7-.6.5-1.4.7-2.1.7-.7 0-1.5-.2-1.9-.5l.3-.8c.4.2 1 .5 1.7.5 1.1 0 1.9-.6 1.9-2v-.6c-.3.5-.9 1-1.8 1-1.4 0-2.5-1.2-2.5-2.8 0-2 1.3-3.1 2.6-3.1 1 0 1.6.5 1.8 1v-.9h.8zm-1.1 2.3c0-.2 0-.3-.1-.5-.2-.6-.7-1.1-1.5-1.1-1 0-1.7.9-1.7 2.2 0 1.1.6 2.1 1.7 2.1.6 0 1.2-.4 1.5-1.1.1-.2.1-.4.1-.6v-1zM334.6 40.5c0 2.1-1.5 3.1-2.9 3.1-1.6 0-2.8-1.2-2.8-3 0-1.9 1.3-3.1 2.9-3.1 1.7.1 2.8 1.3 2.8 3zm-4.6.1c0 1.3.7 2.2 1.8 2.2 1 0 1.8-.9 1.8-2.3 0-1-.5-2.2-1.7-2.2-1.3.1-1.9 1.2-1.9 2.3zM77.8 580.3h1v7.2h3.5v.9h-4.5v-8.1zM88.5 585.4c0 2.1-1.5 3.1-2.9 3.1-1.6 0-2.8-1.2-2.8-3 0-1.9 1.3-3.1 2.9-3.1 1.6 0 2.8 1.3 2.8 3zm-4.6.1c0 1.3.7 2.2 1.8 2.2 1 0 1.8-.9 1.8-2.3 0-1-.5-2.2-1.7-2.2-1.4 0-1.9 1.2-1.9 2.3zM94.8 582.6v5c0 1.3-.3 2.1-.8 2.7-.6.5-1.4.7-2.1.7-.7 0-1.5-.2-1.9-.5l.3-.8c.4.2 1 .5 1.7.5 1.1 0 1.9-.6 1.9-2v-.6c-.3.5-.9 1-1.8 1-1.4 0-2.5-1.2-2.5-2.8 0-2 1.3-3.1 2.6-3.1 1 0 1.6.5 1.8 1v-.9h.8zm-1.1 2.3c0-.2 0-.3-.1-.5-.2-.6-.7-1.1-1.5-1.1-1 0-1.7.9-1.7 2.2 0 1.1.6 2.1 1.7 2.1.6 0 1.2-.4 1.5-1.1.1-.2.1-.4.1-.6v-1zM101.8 585.4c0 2.1-1.5 3.1-2.9 3.1-1.6 0-2.8-1.2-2.8-3 0-1.9 1.3-3.1 2.9-3.1 1.6 0 2.8 1.3 2.8 3zm-4.6.1c0 1.3.7 2.2 1.8 2.2 1 0 1.8-.9 1.8-2.3 0-1-.5-2.2-1.7-2.2-1.4 0-1.9 1.2-1.9 2.3z"/><g><circle class="st5" cx="282.8" cy="38" r="17.6"/><path class="st0" d="M284.3 44.9h-1.8V32.7l-2.4 2.5L279 34l3.7-3.8h1.6v14.7z"/></g><g><circle class="st5" cx="100.3" cy="102.6" r="17.6"/><path class="st0" d="M105.3 109.5h-10V108c1.5-1.2 2.7-2.2 3.6-2.9.8-.7 1.7-1.5 2.4-2.3.8-.8 1.3-1.5 1.7-2.1.3-.6.5-1.2.5-1.9 0-.9-.3-1.5-.9-2s-1.3-.7-2.2-.7c-1.7 0-3 .6-4 1.8l-1.1-1.2c.6-.7 1.3-1.3 2.2-1.7.9-.4 1.9-.6 2.9-.6 1.3 0 2.5.4 3.5 1.1s1.5 1.8 1.5 3.2c0 1.4-.6 2.7-1.8 4.1-1.2 1.4-3 3-5.4 4.9h7.2v1.8z"/></g><g><circle class="st5" cx="100.3" cy="326.3" r="17.6"/><path class="st0" d="M100.9 333.5c-1.2 0-2.2-.2-3.1-.7-.9-.5-1.6-1-2.1-1.7l1.1-1.1c.4.6 1 1.1 1.7 1.4.7.4 1.5.5 2.4.5 1.1 0 1.9-.2 2.5-.7.6-.5.9-1.2.9-2 0-.9-.3-1.5-1-2-.7-.4-1.5-.6-2.7-.6h-1.5v-1.7h1.5c1 0 1.8-.2 2.5-.6s1-1 1-1.8-.3-1.4-.9-1.8c-.6-.4-1.4-.7-2.3-.7-1.5 0-2.8.6-3.9 1.8l-1-1.1c1.2-1.5 2.9-2.3 5-2.3 1.5 0 2.6.3 3.6 1 .9.7 1.4 1.7 1.4 2.9 0 1-.3 1.7-1 2.3-.6.6-1.4.9-2.2 1.1.8.1 1.6.4 2.3 1.1.7.6 1.1 1.5 1.1 2.6 0 1.2-.5 2.3-1.4 3-1 .7-2.3 1.1-3.9 1.1z"/></g><g><circle class="st5" cx="100.3" cy="567.3" r="17.6"/><path class="st0" d="M102.6 574.2h-1.8v-3.7h-7V569l6.3-9.4h2.5v9.3h2.1v1.6h-2.1v3.7zm-1.8-5.3v-7.7l-5.1 7.7h5.1z"/></g></svg>