<svg id="Layer_1" xmlns="http://www.w3.org/2000/svg" viewBox="0 0 562 2378.3"><style>.st1{fill:#fff}.st2{fill:#e2e4e7}.st3{fill:#acb2b8}.st4{fill:#c2c8cd}.st5{fill:#fcfcfc}.st6{fill:#888c90}.st7{fill:#abb1b7}.st8{fill:#ced3d6}.st9{fill:#adb3b9}.st10{fill:#2d85dd}.st11{fill:#cdd2d5}.st13{fill:#afb3ba}.st14{fill:#c2c7cc}.st15{fill:#cfd4d7}.st16{fill:#a8afb5}.st17{fill:#ccd1d4}.st18{fill:#ebebeb}.st19{fill:#2e86dd}</style><path class="st1" d="M0 .1h562v2378.2H0z"/><path class="st2" d="M0 .1h562v271.4H0z"/><path class="st3" d="M177 124.3h208v15.5H177z"/><path class="st4" d="M143 164h277.3v10H143zM143 150.3h277.3v10H143z"/><path class="st3" d="M491.2 149.3l-13.6-9.4c-.1-.1-.3-.1-.5 0s-.3.2-.3.4V159c0 .2.1.3.3.4.1 0 .1.1.2.1s.2 0 .3-.1l13.6-9.4c.1-.1.2-.2.2-.4s-.1-.2-.2-.3zm-13.4 8.8v-16.9l12.3 8.5-12.3 8.4zM68.9 149.7c0 .2.1.3.2.4l13.6 9.4c.1.1.2.1.3.1.1 0 .1 0 .2-.1.2-.1.3-.2.3-.4v-18.7c0-.2-.1-.3-.3-.4-.2-.1-.3-.1-.5 0l-13.6 9.4c-.1 0-.2.1-.2.3zm1.3 0l12.3-8.5v16.9l-12.3-8.4zM128.5 20.4H440V40H128.5zM487.5 20.4h20.7V40h-20.7zM464.2 20.4h20.7V40h-20.7zM52 20.1h46.6v19.6H52z"/><path class="st5" d="M62.8 25.7h1v7.2h3.5v.9h-4.5v-8.1zM73.6 30.9c0 2.1-1.5 3.1-2.9 3.1-1.6 0-2.8-1.2-2.8-3 0-1.9 1.3-3.1 2.9-3.1 1.6 0 2.8 1.2 2.8 3zm-4.6 0c0 1.3.7 2.2 1.8 2.2 1 0 1.8-.9 1.8-2.3 0-1-.5-2.2-1.7-2.2-1.4.1-1.9 1.2-1.9 2.3zM79.9 28v5c0 1.3-.3 2.1-.8 2.7-.6.5-1.4.7-2.1.7-.7 0-1.5-.2-1.9-.5l.3-.8c.4.2 1 .5 1.7.5 1.1 0 1.9-.6 1.9-2V33c-.3.5-.9 1-1.8 1-1.4 0-2.5-1.2-2.5-2.8 0-2 1.3-3.1 2.6-3.1 1 0 1.6.5 1.8 1v-.9h.8zm-1.1 2.3c0-.2 0-.3-.1-.5-.2-.6-.7-1.1-1.5-1.1-1 0-1.7.9-1.7 2.2 0 1.1.6 2.1 1.7 2.1.6 0 1.2-.4 1.5-1.1.1-.2.1-.4.1-.6v-1zM86.9 30.9c0 2.1-1.5 3.1-2.9 3.1-1.6 0-2.8-1.2-2.8-3 0-1.9 1.3-3.1 2.9-3.1 1.6 0 2.8 1.2 2.8 3zm-4.6 0c0 1.3.7 2.2 1.8 2.2 1 0 1.8-.9 1.8-2.3 0-1-.5-2.2-1.7-2.2-1.4.1-1.9 1.2-1.9 2.3z"/><path class="st6" d="M194.1 27.3h34.8v5.2h-34.8zM243.2 27.4H278v5.2h-34.8zM290.4 27.5h34.8v5.2h-34.8zM339.1 27.2h34.8v5.2h-34.8zM388.1 27.5h34.8v5.2h-34.8zM145.5 27.6h34.8v5.2h-34.8z"/><path class="st1" d="M209.8 42.5l-2.8 5.3h-11.2v48.7h77.3v-49h-61z"/><path class="st3" d="M273.6 97h-78.4V47.2h11.4l3.1-5.9 2.6 5.6h61.2V97zm-77.4-1h76.4V48h-60.9l-2-4.4-2.4 4.6h-11.1V96z"/><path class="st3" d="M202.8 58.2h61.4v5.6h-61.4zM202.8 80h61.4v5.6h-61.4zM202.8 69.1h61.4v5.6h-61.4z"/><path class="st2" d="M225.3 300.7h283.8V572H225.3z"/><path class="st7" d="M322 326.3h88.7V337H322z"/><path class="st8" d="M241.7 357.3h250v5.7h-250zM241.7 375.4h250v5.7h-250zM241.3 393.4h250v5.7h-250zM241.3 411.5h250v5.7h-250zM241.3 429.5h250v5.7h-250zM241.3 447.6h250v5.7h-250zM241.3 465.6h250v5.7h-250zM241.3 483.7h250v5.7h-250zM241.3 501.7h250v5.7h-250zM241.3 519.8h250v5.7h-250zM241.7 537.8h250v5.7h-250z"/><path class="st2" d="M51.2 300.7H208v26.5H51.2z"/><path class="st3" d="M62.8 311.4h55v5.7h-55z"/><path class="st3" d="M196.7 313.1l-.5-.5-1.7 1.7-1.8-1.7-.5.5 2.3 2.3z" id="chevron-right"/><path class="st2" d="M51.2 395.2H208v26.5H51.2z"/><path class="st3" d="M62.8 405.9h55v5.7h-55z"/><path class="st3" d="M196.7 407.6l-.5-.5-1.7 1.7-1.8-1.7-.5.5 2.3 2.3z" id="chevron-right_1_"/><path class="st2" d="M51.2 425.5H208V452H51.2z"/><path class="st3" d="M62.8 436.2h55v5.7h-55z"/><path class="st3" d="M196.7 437.9l-.5-.6-1.7 1.8-1.8-1.8-.5.6 2.3 2.2z" id="chevron-right_2_"/><path class="st2" d="M51.2 455.7H208v26.5H51.2z"/><path class="st3" d="M62.8 466.4h55v5.7h-55z"/><path class="st3" d="M196.7 468.1l-.5-.5-1.7 1.7-1.8-1.7-.5.5 2.3 2.2z" id="chevron-right_3_"/><path class="st2" d="M51.2 485.9H208v26.5H51.2z"/><path class="st3" d="M62.8 496.6h55v5.7h-55z"/><path class="st3" d="M196.7 498.3l-.5-.5-1.7 1.7-1.8-1.7-.5.5 2.3 2.3z" id="chevron-right_4_"/><path class="st2" d="M51.2 516.2H208v26.5H51.2z"/><path class="st3" d="M62.8 526.9h55v5.7h-55z"/><path class="st3" d="M196.7 528.6l-.5-.6-1.7 1.8-1.8-1.8-.5.6 2.3 2.2z" id="chevron-right_5_"/><path class="st2" d="M51.7 546.4h156.8v26.5H51.7z"/><path class="st3" d="M63.2 557.1h55v5.7h-55z"/><path class="st3" d="M197.1 558.8l-.5-.5-1.7 1.7-1.8-1.7-.5.5 2.3 2.2z" id="chevron-right_6_"/><path class="st9" d="M71 336.1h125v4.6H71zM71 350.7h125v4.6H71zM71 365.3h125v4.6H71zM71 379.9h125v4.6H71z"/><circle class="st10" cx="65" cy="337.9" r="1.5"/><circle class="st10" cx="65" cy="353" r="1.5"/><circle class="st10" cx="65" cy="367.6" r="1.5"/><circle class="st10" cx="65" cy="382.8" r="1.5"/><path class="st2" d="M51.4 593H156v137H51.4z"/><path class="st3" d="M81.3 689.3H127v8.8H81.3z"/><path class="st11" d="M73.3 706.5h61.3v5.3H73.3z"/><path class="st1" d="M116.2 632.6H93.7c-1.7 0-3.1 1.4-3.1 3.1v17.5c0 1.7 1.4 3.1 3.1 3.1h22.5c1.7 0 3.1-1.4 3.1-3.1v-17.5c0-1.7-1.4-3.1-3.1-3.1zm1.8 12l-3-3c-.5-.5-1.2-.5-1.7 0l-7.1 7.1-3.6-3.6c-.5-.5-1.3-.5-1.7 0l-3.1 3.1c-.2.2-.2.6 0 .9s.6.2.9 0l3.1-3.1 3.6 3.6-2.5 2.5c-.2.2-.2.6 0 .9.1.1.3.2.4.2s.3-.1.4-.2l10.5-10.5 3.7 3.7.1.1v6.9c0 1-.8 1.9-1.9 1.9H93.7c-1 0-1.9-.8-1.9-1.9v-17.5c0-1 .8-1.9 1.9-1.9h22.5c1 0 1.9.8 1.9 1.9v8.9z"/><path class="st1" d="M96.2 649.6l-.6.6c-.2.2-.2.6 0 .9.1.1.3.2.4.2s.3-.1.4-.2l.6-.6c.2-.2.2-.6 0-.9s-.5-.2-.8 0zM97.4 636.3c-1.7 0-3.1 1.4-3.1 3.1 0 1.7 1.4 3.1 3.1 3.1 1.7 0 3.1-1.4 3.1-3.1.1-1.7-1.3-3.1-3.1-3.1zm0 5c-1 0-1.9-.8-1.9-1.9s.8-1.9 1.9-1.9c1 0 1.9.8 1.9 1.9s-.8 1.9-1.9 1.9z"/><path class="st4" d="M51.7 2024h144v103.1h-144z"/><path class="st3" d="M52 2139.3h90.9v8.8H52z"/><path class="st11" d="M52 2152.5h143.7v5.3H52zM52 2163h143.7v5.3H52z"/><path class="st1" d="M135.8 2063.6h-22.5c-1.7 0-3.1 1.4-3.1 3.1v17.5c0 1.7 1.4 3.1 3.1 3.1h22.5c1.7 0 3.1-1.4 3.1-3.1v-17.5c.1-1.7-1.3-3.1-3.1-3.1zm1.9 12l-3-3c-.5-.5-1.2-.5-1.7 0l-7.1 7.1-3.6-3.6c-.5-.5-1.3-.5-1.7 0l-3.1 3.1c-.2.2-.2.6 0 .9.2.2.6.2.9 0l3.1-3.1 3.6 3.6-2.5 2.5c-.2.2-.2.6 0 .9.1.1.3.2.4.2s.3-.1.4-.2l10.5-10.5 3.7 3.7.1.1v6.9c0 1-.8 1.9-1.9 1.9h-22.5c-1 0-1.9-.8-1.9-1.9v-17.5c0-1 .8-1.9 1.9-1.9h22.5c1 0 1.9.8 1.9 1.9v8.9z"/><path class="st1" d="M115.9 2080.6l-.6.6c-.2.2-.2.6 0 .9.1.1.3.2.4.2s.3-.1.4-.2l.6-.6c.2-.2.2-.6 0-.9s-.6-.2-.8 0zM117.1 2067.3c-1.7 0-3.1 1.4-3.1 3.1s1.4 3.1 3.1 3.1c1.7 0 3.1-1.4 3.1-3.1s-1.4-3.1-3.1-3.1zm0 5c-1 0-1.9-.8-1.9-1.9s.8-1.9 1.9-1.9c1 0 1.9.8 1.9 1.9s-.9 1.9-1.9 1.9z"/><path class="st4" d="M209 2024h144v103.1H209z"/><path class="st3" d="M209.3 2139.3h90.9v8.8h-90.9z"/><path class="st11" d="M209.3 2152.5H353v5.3H209.3zM209.3 2163H353v5.3H209.3z"/><path class="st1" d="M293.2 2063.6h-22.5c-1.7 0-3.1 1.4-3.1 3.1v17.5c0 1.7 1.4 3.1 3.1 3.1h22.5c1.7 0 3.1-1.4 3.1-3.1v-17.5c0-1.7-1.4-3.1-3.1-3.1zm1.8 12l-3-3c-.5-.5-1.2-.5-1.7 0l-7.1 7.1-3.6-3.6c-.5-.5-1.3-.5-1.7 0l-3.1 3.1c-.2.2-.2.6 0 .9.2.2.6.2.9 0l3.1-3.1 3.6 3.6-2.5 2.5c-.2.2-.2.6 0 .9.1.1.3.2.4.2s.3-.1.4-.2l10.5-10.5 3.7 3.7.1.1v6.9c0 1-.8 1.9-1.9 1.9h-22.5c-1 0-1.9-.8-1.9-1.9v-17.5c0-1 .8-1.9 1.9-1.9h22.5c1 0 1.9.8 1.9 1.9v8.9z"/><path class="st1" d="M273.2 2080.6l-.6.6c-.2.2-.2.6 0 .9.1.1.3.2.4.2s.3-.1.4-.2l.6-.6c.2-.2.2-.6 0-.9s-.5-.2-.8 0zM274.4 2067.3c-1.7 0-3.1 1.4-3.1 3.1s1.4 3.1 3.1 3.1 3.1-1.4 3.1-3.1-1.3-3.1-3.1-3.1zm0 5c-1 0-1.9-.8-1.9-1.9s.8-1.9 1.9-1.9 1.9.8 1.9 1.9-.8 1.9-1.9 1.9z"/><path class="st4" d="M364.5 2024h144v103.1h-144z"/><path class="st3" d="M364.8 2139.3h90.9v8.8h-90.9z"/><path class="st11" d="M364.8 2152.5h143.7v5.3H364.8zM364.8 2163h143.7v5.3H364.8z"/><path class="st1" d="M448.7 2063.6h-22.5c-1.7 0-3.1 1.4-3.1 3.1v17.5c0 1.7 1.4 3.1 3.1 3.1h22.5c1.7 0 3.1-1.4 3.1-3.1v-17.5c0-1.7-1.4-3.1-3.1-3.1zm1.8 12l-3-3c-.5-.5-1.2-.5-1.7 0l-7.1 7.1-3.6-3.6c-.5-.5-1.3-.5-1.7 0l-3.1 3.1c-.2.2-.2.6 0 .9.2.2.6.2.9 0l3.1-3.1 3.6 3.6-2.5 2.5c-.2.2-.2.6 0 .9.1.1.3.2.4.2.2 0 .3-.1.4-.2l10.5-10.5 3.7 3.7.1.1v6.9c0 1-.8 1.9-1.9 1.9h-22.5c-1 0-1.9-.8-1.9-1.9v-17.5c0-1 .8-1.9 1.9-1.9h22.5c1 0 1.9.8 1.9 1.9v8.9z"/><path class="st1" d="M428.7 2080.6l-.6.6c-.2.2-.2.6 0 .9.1.1.3.2.4.2s.3-.1.4-.2l.6-.6c.2-.2.2-.6 0-.9-.1-.2-.5-.2-.8 0zM429.9 2067.3c-1.7 0-3.1 1.4-3.1 3.1s1.4 3.1 3.1 3.1 3.1-1.4 3.1-3.1-1.3-3.1-3.1-3.1zm0 5c-1 0-1.9-.8-1.9-1.9s.8-1.9 1.9-1.9 1.9.8 1.9 1.9-.8 1.9-1.9 1.9z"/><path class="st2" d="M169 593h104.6v137H169z"/><path class="st3" d="M199 689.3h45.7v8.8H199z"/><path class="st11" d="M191 706.5h61.3v5.3H191z"/><path class="st1" d="M233.8 632.6h-22.5c-1.7 0-3.1 1.4-3.1 3.1v17.5c0 1.7 1.4 3.1 3.1 3.1h22.5c1.7 0 3.1-1.4 3.1-3.1v-17.5c.1-1.7-1.3-3.1-3.1-3.1zm1.9 12l-3-3c-.5-.5-1.2-.5-1.7 0l-7.1 7.1-3.6-3.6c-.5-.5-1.3-.5-1.7 0l-3.1 3.1c-.2.2-.2.6 0 .9.2.2.6.2.9 0l3.1-3.1 3.6 3.6-2.5 2.5c-.2.2-.2.6 0 .9.1.1.3.2.4.2s.3-.1.4-.2l10.5-10.5 3.7 3.7.1.1v6.9c0 1-.8 1.9-1.9 1.9h-22.5c-1 0-1.9-.8-1.9-1.9v-17.5c0-1 .8-1.9 1.9-1.9h22.5c1 0 1.9.8 1.9 1.9v8.9z"/><path class="st1" d="M213.9 649.6l-.6.6c-.2.2-.2.6 0 .9.1.1.3.2.4.2s.3-.1.4-.2l.6-.6c.2-.2.2-.6 0-.9s-.6-.2-.8 0zM215.1 636.3c-1.7 0-3.1 1.4-3.1 3.1 0 1.7 1.4 3.1 3.1 3.1 1.7 0 3.1-1.4 3.1-3.1 0-1.7-1.4-3.1-3.1-3.1zm0 5c-1 0-1.9-.8-1.9-1.9s.8-1.9 1.9-1.9c1 0 1.9.8 1.9 1.9s-.9 1.9-1.9 1.9z"/><path class="st2" d="M286.9 593h104.6v137H286.9z"/><path class="st3" d="M316.8 689.3h45.7v8.8h-45.7z"/><path class="st11" d="M308.8 706.5h61.3v5.3h-61.3z"/><path class="st1" d="M351.7 632.6h-22.5c-1.7 0-3.1 1.4-3.1 3.1v17.5c0 1.7 1.4 3.1 3.1 3.1h22.5c1.7 0 3.1-1.4 3.1-3.1v-17.5c0-1.7-1.4-3.1-3.1-3.1zm1.9 12l-3-3c-.5-.5-1.2-.5-1.7 0l-7.1 7.1-3.6-3.6c-.5-.5-1.3-.5-1.7 0l-3.1 3.1c-.2.2-.2.6 0 .9.2.2.6.2.9 0l3.1-3.1 3.6 3.6-2.5 2.5c-.2.2-.2.6 0 .9.1.1.3.2.4.2.2 0 .3-.1.4-.2l10.5-10.5 3.7 3.7.1.1v6.9c0 1-.8 1.9-1.9 1.9h-22.5c-1 0-1.9-.8-1.9-1.9v-17.5c0-1 .8-1.9 1.9-1.9h22.5c1 0 1.9.8 1.9 1.9v8.9z"/><path class="st1" d="M331.7 649.6l-.6.6c-.2.2-.2.6 0 .9.1.1.3.2.4.2s.3-.1.4-.2l.6-.6c.2-.2.2-.6 0-.9-.1-.2-.5-.2-.8 0zM333 636.3c-1.7 0-3.1 1.4-3.1 3.1 0 1.7 1.4 3.1 3.1 3.1s3.1-1.4 3.1-3.1c0-1.7-1.4-3.1-3.1-3.1zm0 5c-1 0-1.9-.8-1.9-1.9s.8-1.9 1.9-1.9 1.9.8 1.9 1.9-.9 1.9-1.9 1.9z"/><path class="st2" d="M404.5 593h104.6v137H404.5z"/><path class="st3" d="M434.5 689.3h45.7v8.8h-45.7z"/><path class="st11" d="M426.5 706.5h61.3v5.3h-61.3z"/><path class="st1" d="M469.4 632.6h-22.5c-1.7 0-3.1 1.4-3.1 3.1v17.5c0 1.7 1.4 3.1 3.1 3.1h22.5c1.7 0 3.1-1.4 3.1-3.1v-17.5c0-1.7-1.4-3.1-3.1-3.1zm1.8 12l-3-3c-.5-.5-1.2-.5-1.7 0l-7.1 7.1-3.6-3.6c-.5-.5-1.3-.5-1.7 0l-3.1 3.1c-.2.2-.2.6 0 .9s.6.2.9 0l3.1-3.1 3.6 3.6-2.5 2.5c-.2.2-.2.6 0 .9.1.1.3.2.4.2s.3-.1.4-.2l10.5-10.5 3.7 3.7.1.1v6.9c0 1-.8 1.9-1.9 1.9h-22.5c-1 0-1.9-.8-1.9-1.9v-17.5c0-1 .8-1.9 1.9-1.9h22.5c1 0 1.9.8 1.9 1.9v8.9z"/><path class="st1" d="M449.4 649.6l-.6.6c-.2.2-.2.6 0 .9.1.1.3.2.4.2s.3-.1.4-.2l.6-.6c.2-.2.2-.6 0-.9s-.5-.2-.8 0zM450.6 636.3c-1.7 0-3.1 1.4-3.1 3.1 0 1.7 1.4 3.1 3.1 3.1s3.1-1.4 3.1-3.1c0-1.7-1.4-3.1-3.1-3.1zm0 5c-1 0-1.9-.8-1.9-1.9s.8-1.9 1.9-1.9 1.9.8 1.9 1.9-.8 1.9-1.9 1.9z"/><path class="st8" d="M179 1351h330.2v35.3H179z"/><path class="st2" d="M51.7 1351H179v35.3H51.7zM51.7 1386.4h457.5v186.7H51.7z"/><path class="st3" d="M247 1364h63.7v8.7H247zM84.5 1364.2h63.7v8.7H84.5zM375.7 1364h63.7v8.7h-63.7z"/><path class="st4" d="M68.3 1409.7h157v130h-157z"/><path class="st8" d="M241 1409.7h251.7v5.3H241zM241 1427.5h251.7v5.3H241zM241 1445.4h251.7v5.3H241zM241 1463.2h251.7v5.3H241zM241 1481h251.7v5.3H241zM241 1498.9h251.7v5.3H241zM241 1516.7h251.7v5.3H241zM241 1534.5h251.7v5.3H241z"/><path class="st1" d="M158.1 1456.7h-22.5c-1.7 0-3.1 1.4-3.1 3.1v17.5c0 1.7 1.4 3.1 3.1 3.1h22.5c1.7 0 3.1-1.4 3.1-3.1v-17.5c0-1.7-1.4-3.1-3.1-3.1zm1.8 12l-3-3c-.5-.5-1.2-.5-1.7 0l-7.1 7.1-3.6-3.6c-.5-.5-1.3-.5-1.7 0l-3.1 3.1c-.2.2-.2.6 0 .9.2.2.6.2.9 0l3.1-3.1 3.6 3.6-2.5 2.5c-.2.2-.2.6 0 .9.1.1.3.2.4.2s.3-.1.4-.2l10.5-10.5 3.7 3.7.1.1v6.9c0 1-.8 1.9-1.9 1.9h-22.5c-1 0-1.9-.8-1.9-1.9v-17.5c0-1 .8-1.9 1.9-1.9H158c1 0 1.9.8 1.9 1.9v8.9z"/><path class="st1" d="M138.1 1473.7l-.6.6c-.2.2-.2.6 0 .9.1.1.3.2.4.2s.3-.1.4-.2l.6-.6c.2-.2.2-.6 0-.9-.1-.2-.5-.2-.8 0zM139.3 1460.4c-1.7 0-3.1 1.4-3.1 3.1 0 1.7 1.4 3.1 3.1 3.1s3.1-1.4 3.1-3.1c.1-1.7-1.3-3.1-3.1-3.1zm0 5c-1 0-1.9-.8-1.9-1.9 0-1 .8-1.9 1.9-1.9s1.9.8 1.9 1.9c0 1.1-.8 1.9-1.9 1.9z"/><path fill="#d9dee3" d="M0 2207h562.3v171.3H0z"/><path class="st13" d="M223.8 2231.5h112v6h-112zM223.8 2249.3h112v6h-112zM223.8 2267.2h112v6h-112zM223.8 2285h112v6h-112zM223.8 2346.5h112v6h-112zM51.7 2231.5h112v6h-112zM51.7 2249.3h112v6h-112zM51.7 2267.2h112v6h-112z"/><g><path class="st13" d="M51.7 2285h112v6h-112z"/></g><g><path class="st13" d="M396.7 2231.5h112v6h-112z"/></g><g><path class="st13" d="M396.7 2249.3h112v6h-112z"/></g><g><path class="st13" d="M396.7 2267.2h112v6h-112z"/></g><g><path class="st13" d="M396.7 2285h112v6h-112z"/></g><g><path class="st13" d="M303.4 2315.5H319v15.6h-15.6z"/></g><g><path class="st13" d="M283.1 2315.5h15.6v15.6h-15.6z"/></g><g><path class="st13" d="M262.8 2315.5h15.6v15.6h-15.6z"/></g><g><path class="st13" d="M242.5 2315.5h15.6v15.6h-15.6z"/></g><g><path class="st14" d="M52.2 753.5h457.9V966H52.2z"/></g><g><path class="st1" d="M292.1 859.1l-21.2-14.6c-.2-.2-.5-.2-.8 0-.2.1-.4.4-.4.6v29.2c0 .3.2.5.4.6.1.1.2.1.3.1.1 0 .3 0 .4-.1l21.2-14.6c.2-.1.3-.4.3-.6s0-.4-.2-.6zm-20.9 13.8v-26.4l19.2 13.2-19.2 13.2z"/></g><g><path class="st14" d="M289.3 987.2h219.6V1208H289.3z"/></g><g><path class="st2" d="M52.2 987h219.6v220.8H52.2z"/></g><g><path class="st7" d="M125 1016.3h72.3v8.2H125z"/></g><g><path class="st15" d="M70.2 1046.5h182v5.2h-182z"/></g><g><path class="st15" d="M70.2 1064.3h182v5.2h-182z"/></g><g><path class="st15" d="M70.2 1082.2h182v5.2h-182z"/></g><g><path class="st15" d="M70.2 1100h182v5.2h-182z"/></g><g><path class="st15" d="M70.2 1117.8h182v5.2h-182z"/></g><g><path class="st15" d="M70.2 1135.7h182v5.2h-182z"/></g><g><path class="st15" d="M70.2 1153.5h182v5.2h-182z"/></g><g><path class="st15" d="M70.2 1171.3h182v5.2h-182z"/></g><g><path class="st1" d="M410.3 1085.7h-22.5c-1.7 0-3.1 1.4-3.1 3.1v17.5c0 1.7 1.4 3.1 3.1 3.1h22.5c1.7 0 3.1-1.4 3.1-3.1v-17.5c0-1.7-1.4-3.1-3.1-3.1zm1.9 12l-3-3c-.5-.5-1.2-.5-1.7 0l-7.1 7.1-3.6-3.6c-.5-.5-1.3-.5-1.7 0l-3.1 3.1c-.2.2-.2.6 0 .9.2.2.6.2.9 0l3.1-3.1 3.6 3.6-2.5 2.5c-.2.2-.2.6 0 .9.1.1.3.2.4.2.2 0 .3-.1.4-.2l10.5-10.5 3.7 3.7.1.1v6.9c0 1-.8 1.9-1.9 1.9h-22.5c-1 0-1.9-.8-1.9-1.9v-17.5c0-1 .8-1.9 1.9-1.9h22.5c1 0 1.9.8 1.9 1.9v8.9z"/><path class="st1" d="M390.4 1102.7l-.6.6c-.2.2-.2.6 0 .9.1.1.3.2.4.2s.3-.1.4-.2l.6-.6c.2-.2.2-.6 0-.9-.2-.2-.6-.2-.8 0zM391.6 1089.4c-1.7 0-3.1 1.4-3.1 3.1 0 1.7 1.4 3.1 3.1 3.1s3.1-1.4 3.1-3.1c0-1.7-1.4-3.1-3.1-3.1zm0 5c-1 0-1.9-.8-1.9-1.9 0-1 .8-1.9 1.9-1.9s1.9.8 1.9 1.9c0 1.1-.9 1.9-1.9 1.9z"/></g><g><path class="st4" d="M52.2 1229.5h99.1v100.8H52.2z"/><path class="st1" d="M112.9 1268H90.5c-1.7 0-3.1 1.4-3.1 3.1v17.5c0 1.7 1.4 3.1 3.1 3.1H113c1.7 0 3.1-1.4 3.1-3.1v-17.5c0-1.7-1.4-3.1-3.2-3.1zm1.9 12l-3-3c-.5-.5-1.2-.5-1.7 0l-7.1 7.1-3.6-3.6c-.5-.5-1.3-.5-1.7 0l-3.1 3.1c-.2.2-.2.6 0 .9.2.2.6.2.9 0l3.1-3.1 3.6 3.6-2.5 2.5c-.2.2-.2.6 0 .9.1.1.3.2.4.2s.3-.1.4-.2l10.5-10.5 3.7 3.7.1.1v6.9c0 1-.8 1.9-1.9 1.9H90.5c-1 0-1.9-.8-1.9-1.9v-17.5c0-1 .8-1.9 1.9-1.9H113c1 0 1.9.8 1.9 1.9v8.9z"/><path class="st1" d="M93 1285.1l-.6.6c-.2.2-.2.6 0 .9.1.1.3.2.4.2s.3-.1.4-.2l.6-.6c.2-.2.2-.6 0-.9-.2-.3-.6-.3-.8 0zM94.2 1271.8c-1.7 0-3.1 1.4-3.1 3.1s1.4 3.1 3.1 3.1c1.7 0 3.1-1.4 3.1-3.1s-1.4-3.1-3.1-3.1zm0 5c-1 0-1.9-.8-1.9-1.9 0-1 .8-1.9 1.9-1.9 1 0 1.9.8 1.9 1.9 0 1-.9 1.9-1.9 1.9z"/></g><g><path class="st4" d="M171.4 1229.5h99.1v100.8h-99.1z"/><path class="st1" d="M232.1 1268h-22.5c-1.7 0-3.1 1.4-3.1 3.1v17.5c0 1.7 1.4 3.1 3.1 3.1h22.5c1.7 0 3.1-1.4 3.1-3.1v-17.5c.1-1.7-1.3-3.1-3.1-3.1zm1.9 12l-3-3c-.5-.5-1.2-.5-1.7 0l-7.1 7.1-3.6-3.6c-.5-.5-1.3-.5-1.7 0l-3.1 3.1c-.2.2-.2.6 0 .9s.6.2.9 0l3.1-3.1 3.6 3.6-2.5 2.5c-.2.2-.2.6 0 .9.1.1.3.2.4.2s.3-.1.4-.2l10.5-10.5 3.7 3.7.1.1v6.9c0 1-.8 1.9-1.9 1.9h-22.5c-1 0-1.9-.8-1.9-1.9v-17.5c0-1 .8-1.9 1.9-1.9h22.5c1 0 1.9.8 1.9 1.9v8.9z"/><path class="st1" d="M212.2 1285.1l-.6.6c-.2.2-.2.6 0 .9.1.1.3.2.4.2s.3-.1.4-.2l.6-.6c.2-.2.2-.6 0-.9s-.5-.3-.8 0zM213.4 1271.8c-1.7 0-3.1 1.4-3.1 3.1s1.4 3.1 3.1 3.1 3.1-1.4 3.1-3.1-1.4-3.1-3.1-3.1zm0 5c-1 0-1.9-.8-1.9-1.9 0-1 .8-1.9 1.9-1.9s1.9.8 1.9 1.9c0 1-.9 1.9-1.9 1.9z"/></g><g><path class="st4" d="M290.6 1229.5h99.1v100.8h-99.1z"/><path class="st1" d="M351.3 1268h-22.5c-1.7 0-3.1 1.4-3.1 3.1v17.5c0 1.7 1.4 3.1 3.1 3.1h22.5c1.7 0 3.1-1.4 3.1-3.1v-17.5c.1-1.7-1.3-3.1-3.1-3.1zm1.9 12l-3-3c-.5-.5-1.2-.5-1.7 0l-7.1 7.1-3.6-3.6c-.5-.5-1.3-.5-1.7 0l-3.1 3.1c-.2.2-.2.6 0 .9s.6.2.9 0l3.1-3.1 3.6 3.6-2.5 2.5c-.2.2-.2.6 0 .9.1.1.3.2.4.2s.3-.1.4-.2l10.5-10.5 3.7 3.7.1.1v6.9c0 1-.8 1.9-1.9 1.9h-22.5c-1 0-1.9-.8-1.9-1.9v-17.5c0-1 .8-1.9 1.9-1.9h22.5c1 0 1.9.8 1.9 1.9v8.9z"/><path class="st1" d="M331.4 1285.1l-.6.6c-.2.2-.2.6 0 .9.1.1.3.2.4.2s.3-.1.4-.2l.6-.6c.2-.2.2-.6 0-.9s-.5-.3-.8 0zM332.6 1271.8c-1.7 0-3.1 1.4-3.1 3.1s1.4 3.1 3.1 3.1c1.7 0 3.1-1.4 3.1-3.1s-1.4-3.1-3.1-3.1zm0 5c-1 0-1.9-.8-1.9-1.9 0-1 .8-1.9 1.9-1.9 1 0 1.9.8 1.9 1.9 0 1-.8 1.9-1.9 1.9z"/></g><g><path class="st4" d="M409.8 1229.5h99.1v100.8h-99.1z"/><path class="st1" d="M470.5 1268H448c-1.7 0-3.1 1.4-3.1 3.1v17.5c0 1.7 1.4 3.1 3.1 3.1h22.5c1.7 0 3.1-1.4 3.1-3.1v-17.5c.1-1.7-1.3-3.1-3.1-3.1zm1.9 12l-3-3c-.5-.5-1.2-.5-1.7 0l-7.1 7.1-3.6-3.6c-.5-.5-1.3-.5-1.7 0l-3.1 3.1c-.2.2-.2.6 0 .9s.6.2.9 0l3.1-3.1 3.6 3.6-2.5 2.5c-.2.2-.2.6 0 .9.1.1.3.2.4.2s.3-.1.4-.2l10.5-10.5 3.7 3.7.1.1v6.9c0 1-.8 1.9-1.9 1.9H448c-1 0-1.9-.8-1.9-1.9v-17.5c0-1 .8-1.9 1.9-1.9h22.5c1 0 1.9.8 1.9 1.9v8.9z"/><path class="st1" d="M450.6 1285.1l-.6.6c-.2.2-.2.6 0 .9.1.1.3.2.4.2s.3-.1.4-.2l.6-.6c.2-.2.2-.6 0-.9s-.5-.3-.8 0zM451.8 1271.8c-1.7 0-3.1 1.4-3.1 3.1s1.4 3.1 3.1 3.1c1.7 0 3.1-1.4 3.1-3.1s-1.4-3.1-3.1-3.1zm0 5c-1 0-1.9-.8-1.9-1.9 0-1 .8-1.9 1.9-1.9s1.9.8 1.9 1.9c0 1-.8 1.9-1.9 1.9z"/></g><g><path class="st2" d="M52.3 1595.7h102.3v117.7H52.3z"/><path class="st16" d="M68.2 1725.5h69.2v8.1H68.2z"/><path class="st17" d="M76.9 1740.7h52v5h-52z"/><path class="st1" d="M100.4 1657.3v-4.3c0-.2-.1-.4-.2-.5-.4-.3-.7-.7-.7-1.2v-4.5c0-1.9 1.6-3.5 3.5-3.5h1c1.9 0 3.5 1.6 3.5 3.5v4.5c0 .5-.2.9-.7 1.2-.2.1-.2.3-.2.5v4.3c0 .3.2.5.4.7.6.3 3.5 1.8 6.2 4 .4.3.6.8.6 1.2v3.1c0 .3.2.6.6.6.3 0 .6-.2.6-.6v-3.1c0-.8-.4-1.6-1-2.1-2.6-2.1-5.4-3.6-6.3-4v-3.8c.6-.5.9-1.2.9-1.9v-4.5c0-2.5-2.1-4.6-4.6-4.6h-1c-2.5 0-4.6 2.1-4.6 4.6v4.5c0 .8.3 1.5.9 1.9v3.8c-.9.5-3.7 1.9-6.3 4-.6.5-1 1.3-1 2.1v3.1c0 .3.2.6.6.6s.6-.2.6-.6v-3.1c0-.5.2-.9.6-1.2 2.7-2.2 5.7-3.7 6.2-4 .2-.2.4-.5.4-.7z"/></g><g><path class="st2" d="M170.5 1595.7h102.3v117.7H170.5z"/><path class="st16" d="M186.4 1725.5h69.2v8.1h-69.2z"/><path class="st17" d="M195.1 1740.7h52v5h-52z"/><path class="st1" d="M218.6 1657.3v-4.3c0-.2-.1-.4-.2-.5-.4-.3-.7-.7-.7-1.2v-4.5c0-1.9 1.6-3.5 3.5-3.5h1c1.9 0 3.5 1.6 3.5 3.5v4.5c0 .5-.2.9-.7 1.2-.2.1-.2.3-.2.5v4.3c0 .3.2.5.4.7.6.3 3.5 1.8 6.2 4 .4.3.6.8.6 1.2v3.1c0 .3.2.6.6.6.3 0 .6-.2.6-.6v-3.1c0-.8-.4-1.6-1-2.1-2.6-2.1-5.4-3.6-6.3-4v-3.8c.6-.5.9-1.2.9-1.9v-4.5c0-2.5-2.1-4.6-4.6-4.6h-1c-2.5 0-4.6 2.1-4.6 4.6v4.5c0 .8.3 1.5.9 1.9v3.8c-.9.5-3.7 1.9-6.3 4-.6.5-1 1.3-1 2.1v3.1c0 .3.2.6.6.6.3 0 .6-.2.6-.6v-3.1c0-.5.2-.9.6-1.2 2.7-2.2 5.7-3.7 6.2-4 .2-.2.4-.5.4-.7z"/></g><g><path class="st2" d="M288.7 1595.7H391v117.7H288.7z"/><path class="st16" d="M304.6 1725.5h69.2v8.1h-69.2z"/><path class="st17" d="M313.2 1740.7h52v5h-52z"/><path class="st1" d="M336.8 1657.3v-4.3c0-.2-.1-.4-.2-.5-.4-.3-.7-.7-.7-1.2v-4.5c0-1.9 1.6-3.5 3.5-3.5h1c1.9 0 3.5 1.6 3.5 3.5v4.5c0 .5-.2.9-.7 1.2-.2.1-.2.3-.2.5v4.3c0 .3.2.5.4.7.6.3 3.5 1.8 6.2 4 .4.3.6.8.6 1.2v3.1c0 .3.2.6.6.6.3 0 .6-.2.6-.6v-3.1c0-.8-.4-1.6-1-2.1-2.6-2.1-5.4-3.6-6.3-4v-3.8c.6-.5.9-1.2.9-1.9v-4.5c0-2.5-2.1-4.6-4.6-4.6h-1c-2.5 0-4.6 2.1-4.6 4.6v4.5c0 .8.3 1.5.9 1.9v3.8c-.9.5-3.7 1.9-6.3 4-.6.5-1 1.3-1 2.1v3.1c0 .3.2.6.6.6s.6-.2.6-.6v-3.1c0-.5.2-.9.6-1.2 2.7-2.2 5.7-3.7 6.2-4 .2-.2.4-.5.4-.7z"/></g><g><path class="st2" d="M406.8 1595.7h102.3v117.7H406.8z"/><path class="st16" d="M422.8 1725.5H492v8.1h-69.2z"/><path class="st17" d="M431.4 1740.7h52v5h-52z"/><path class="st1" d="M455 1657.3v-4.3c0-.2-.1-.4-.2-.5-.4-.3-.7-.7-.7-1.2v-4.5c0-1.9 1.6-3.5 3.5-3.5h1c1.9 0 3.5 1.6 3.5 3.5v4.5c0 .5-.2.9-.7 1.2-.2.1-.2.3-.2.5v4.3c0 .3.2.5.4.7.6.3 3.5 1.8 6.2 4 .4.3.6.8.6 1.2v3.1c0 .3.2.6.6.6.3 0 .6-.2.6-.6v-3.1c0-.8-.4-1.6-1-2.1-2.6-2.1-5.4-3.6-6.3-4v-3.8c.6-.5.9-1.2.9-1.9v-4.5c0-2.5-2.1-4.6-4.6-4.6h-1c-2.5 0-4.6 2.1-4.6 4.6v4.5c0 .8.3 1.5.9 1.9v3.8c-.9.5-3.7 1.9-6.3 4-.6.5-1 1.3-1 2.1v3.1c0 .3.2.6.6.6.3 0 .6-.2.6-.6v-3.1c0-.5.2-.9.6-1.2 2.7-2.2 5.7-3.7 6.2-4 .2-.2.4-.5.4-.7z"/></g><g><path class="st16" d="M229.5 1788H321v8h-91.5z"/></g><g><path class="st18" d="M288.7 1812.5h219.8v24H288.7z"/><path class="st8" d="M298.8 1822.2h41.8v4.5h-41.8z"/></g><g><path class="st18" d="M288.7 1843.5h219.8v24H288.7z"/><path class="st8" d="M298.8 1853.2h41.8v4.5h-41.8z"/></g><g><path class="st18" d="M52.3 1812.5h219.8v24H52.3z"/><path class="st8" d="M62.4 1822.2h41.8v4.5H62.4z"/></g><g><path class="st18" d="M52.3 1843.5h219.8v24H52.3z"/><path class="st8" d="M62.4 1853.2h41.8v4.5H62.4z"/></g><g><path class="st18" d="M52.3 1879.5h456.2v81H52.3z"/></g><g><path class="st3" d="M167 1972.3h219.3v22.3H167z"/></g><g><circle class="st19" cx="45.3" cy="29.4" r="17.6"/><path class="st1" d="M46.8 36.3H45V24l-2.4 2.5-1.1-1.1 3.7-3.8h1.6v14.7z"/></g><g><circle class="st19" cx="466.8" cy="29" r="17.6"/><path class="st1" d="M471.9 35.9h-10.1v-1.5c1.5-1.2 2.7-2.2 3.6-2.9.8-.7 1.7-1.5 2.4-2.3s1.3-1.5 1.7-2.1c.3-.6.5-1.2.5-1.9 0-.9-.3-1.5-.9-2s-1.3-.7-2.2-.7c-1.7 0-3 .6-4 1.8l-1.1-1.2c.6-.7 1.3-1.3 2.2-1.7.9-.4 1.9-.6 2.9-.6 1.3 0 2.5.4 3.5 1.1s1.5 1.8 1.5 3.2c0 1.4-.6 2.7-1.8 4.1-1.2 1.4-3 3-5.4 4.9h7.2v1.8z"/></g><g><circle class="st19" cx="195.8" cy="64.7" r="17.6"/><path class="st1" d="M196.5 71.9c-1.2 0-2.2-.2-3.1-.7-.9-.5-1.6-1-2.1-1.7l1.1-1.1c.4.6 1 1.1 1.7 1.4.7.4 1.5.5 2.4.5 1.1 0 1.9-.2 2.5-.7.6-.5.9-1.2.9-2 0-.9-.3-1.5-1-2-.7-.4-1.5-.6-2.7-.6h-1.5v-1.7h1.5c1 0 1.8-.2 2.5-.6s1-1 1-1.8-.3-1.4-.9-1.8c-.6-.4-1.4-.7-2.3-.7-1.5 0-2.8.6-3.9 1.8l-1-1.1c1.2-1.5 2.9-2.3 5-2.3 1.5 0 2.6.3 3.6 1 .9.7 1.4 1.7 1.4 2.9 0 1-.3 1.7-1 2.3-.6.6-1.4.9-2.2 1.1.8.1 1.6.4 2.3 1.1.7.6 1.1 1.5 1.1 2.6 0 1.2-.5 2.3-1.4 3-1.1.7-2.4 1.1-3.9 1.1z"/></g><g><circle class="st19" cx="45.3" cy="104.6" r="17.6"/><path class="st1" d="M48.6 111.6h-1.8v-3.7h-7v-1.5l6.3-9.4h2.5v9.3h2.1v1.6h-2.1v3.7zm-1.8-5.3v-7.7l-5.1 7.7h5.1z"/></g><g><circle class="st19" cx="45.3" cy="312.4" r="17.6"/><path class="st1" d="M45.9 319.6c-1 0-1.8-.2-2.6-.6-.7-.4-1.3-1-1.8-1.7-.4-.7-.8-1.5-1-2.4-.2-.9-.3-1.8-.3-2.9 0-1.4.2-2.6.6-3.7.4-1.1 1.1-2 2-2.8.9-.7 2-1.1 3.4-1.1 1.7 0 3 .6 4.1 1.8l-.9 1.4c-.9-1-1.9-1.5-3.1-1.5-.9 0-1.7.3-2.3.9-.6.6-1.1 1.3-1.4 2.1-.3.8-.4 1.8-.4 2.8v.6c.4-.6.9-1.1 1.7-1.6.8-.5 1.6-.7 2.5-.7 1.4 0 2.5.4 3.4 1.2s1.4 2 1.4 3.5c0 1.3-.5 2.5-1.4 3.4-1.1.9-2.4 1.3-3.9 1.3zm-.1-1.6c1.1 0 1.9-.3 2.5-1 .6-.6.9-1.4.9-2.1 0-1-.3-1.8-.9-2.4s-1.4-.8-2.4-.8c-.7 0-1.4.2-2.1.6s-1.2.9-1.6 1.6c.1 1.1.5 2 1.1 2.8s1.3 1.3 2.5 1.3z"/></g><g><circle class="st19" cx="263.8" cy="336" r="17.6"/><path class="st1" d="M263.3 343h-2l5.9-13h-7.9v-1.6h10v1.3l-6 13.3z"/></g><g><circle class="st19" cx="89.3" cy="630.5" r="17.6"/><path class="st1" d="M93.3 636.6c-1 .7-2.3 1.1-3.8 1.1s-2.7-.4-3.8-1.1c-1-.7-1.5-1.7-1.5-2.9 0-.9.3-1.7 1-2.4s1.5-1.2 2.5-1.5c-.9-.3-1.7-.7-2.3-1.3-.6-.6-.9-1.3-.9-2.2 0-1.2.5-2.2 1.5-2.8 1-.7 2.2-1 3.5-1 1.3 0 2.5.3 3.5 1s1.5 1.6 1.5 2.8c0 .9-.3 1.6-.9 2.2-.6.6-1.4 1-2.4 1.3 1 .3 1.8.8 2.5 1.5s1 1.5 1 2.4c.1 1.2-.4 2.2-1.4 2.9zm-3.7-.6c.9 0 1.7-.2 2.4-.7.7-.5 1-1.1 1-1.8 0-.6-.2-1.1-.7-1.6s-.9-.8-1.4-.9c-.5-.2-.9-.3-1.3-.3s-.8.2-1.3.3c-.5.2-.9.5-1.4.9s-.7 1-.7 1.6c0 .8.3 1.4 1 1.8.6.5 1.4.7 2.4.7zm0-6.9c.3 0 .6-.1.9-.2.3-.1.6-.2 1-.4s.7-.4.9-.8c.2-.3.4-.7.4-1.1 0-.7-.3-1.3-.9-1.8-.6-.4-1.4-.7-2.3-.7-.9 0-1.7.2-2.3.7-.6.4-.9 1-.9 1.8 0 .4.1.8.4 1.1.2.3.5.6.9.8s.7.3 1 .4c.3.1.6.1.9.2z"/></g><g><circle class="st19" cx="89.9" cy="790.5" r="17.6"/><path class="st1" d="M89.7 797.6c-1.7 0-3-.6-4.1-1.8l.9-1.4c.9 1 1.9 1.5 3.1 1.5.9 0 1.7-.3 2.4-.9s1.1-1.3 1.4-2.1c.3-.8.4-1.7.4-2.7v-.6c-.4.6-.9 1.1-1.7 1.6s-1.6.7-2.4.7c-1.4 0-2.5-.4-3.5-1.2-.9-.8-1.4-2-1.4-3.5 0-1.3.5-2.4 1.4-3.4s2.2-1.4 3.7-1.4c1 0 1.9.2 2.6.6.7.4 1.3 1 1.8 1.7s.8 1.5 1 2.4c.2.9.3 1.8.3 2.9 0 1.4-.2 2.6-.6 3.7-.4 1.1-1.1 2-2 2.8-.9.8-2 1.1-3.3 1.1zm.4-7.2c.7 0 1.4-.2 2.1-.6.7-.4 1.2-.9 1.6-1.6-.1-1.1-.4-2-1-2.9-.6-.8-1.5-1.2-2.6-1.2-1 0-1.9.3-2.5 1-.6.6-.9 1.4-.9 2.1 0 1 .3 1.8.9 2.4.6.5 1.4.8 2.4.8z"/></g><g><circle class="st19" cx="89.8" cy="1024.6" r="17.6"/><path class="st1" d="M86.4 1031.5h-1.8v-12.3l-2.4 2.5-1.1-1.1 3.7-3.8h1.6v14.7zM94.9 1031.8c-1 0-1.8-.2-2.6-.7s-1.3-1-1.8-1.8c-.4-.7-.8-1.6-1-2.4-.2-.9-.3-1.8-.3-2.7s.1-1.8.3-2.7c.2-.9.5-1.7 1-2.4.4-.7 1-1.3 1.8-1.8.7-.4 1.6-.7 2.6-.7s1.8.2 2.6.7c.7.4 1.3 1 1.8 1.8.4.7.8 1.5 1 2.4.2.9.3 1.8.3 2.7s-.1 1.8-.3 2.7c-.2.9-.5 1.7-1 2.4-.4.7-1 1.3-1.8 1.8s-1.7.7-2.6.7zm-2.2-2.5c.6.6 1.3.9 2.2.9s1.6-.3 2.2-.9c.6-.6 1-1.3 1.2-2.2.2-.9.3-1.8.3-2.9s-.1-2-.3-2.9c-.2-.8-.6-1.6-1.2-2.2-.6-.6-1.3-.9-2.2-.9s-1.6.3-2.2.9c-.6.6-1 1.3-1.2 2.2-.2.9-.3 1.8-.3 2.9s.1 2 .3 2.9c.2.8.6 1.5 1.2 2.2z"/></g><g><circle class="st19" cx="326.6" cy="1024.6" r="17.6"/><path class="st1" d="M324.1 1031.5h-1.8v-12.3l-2.4 2.5-1.1-1.1 3.7-3.8h1.6v14.7zM331.6 1031.5h-1.8v-12.3l-2.4 2.5-1.1-1.1 3.7-3.8h1.6v14.7z"/></g><g><circle class="st19" cx="91.6" cy="1267.6" r="17.6"/><path class="st1" d="M87.1 1274.5h-1.8v-12.3l-2.4 2.5-1.1-1.1 3.7-3.8h1.6v14.7zM100.1 1274.5H90v-1.5c1.5-1.2 2.7-2.2 3.6-2.9.8-.7 1.7-1.5 2.4-2.3.8-.8 1.3-1.5 1.7-2.1.3-.6.5-1.2.5-1.9 0-.9-.3-1.5-.9-2s-1.3-.7-2.2-.7c-1.7 0-3 .6-4 1.8l-1.1-1.2c.6-.7 1.3-1.3 2.2-1.7s1.9-.6 2.9-.6c1.3 0 2.5.4 3.5 1.1s1.5 1.8 1.5 3.2c0 1.4-.6 2.7-1.8 4.1-1.2 1.4-3 3-5.4 4.9h7.2v1.8z"/></g><g><circle class="st19" cx="91.6" cy="1379.5" r="17.6"/><path class="st1" d="M87.1 1386.4h-1.8v-12.3l-2.4 2.5-1.1-1.1 3.7-3.8h1.6v14.7zM94.7 1386.7c-1.2 0-2.2-.2-3.1-.7-.9-.5-1.6-1-2.1-1.7l1.1-1.1c.4.6 1 1.1 1.7 1.4.7.4 1.5.5 2.4.5 1.1 0 1.9-.2 2.5-.7.6-.5.9-1.2.9-2 0-.9-.3-1.5-1-2-.7-.4-1.5-.6-2.7-.6h-1.5v-1.7h1.5c1 0 1.8-.2 2.5-.6s1-1 1-1.8-.3-1.4-.9-1.8c-.6-.4-1.4-.7-2.3-.7-1.5 0-2.8.6-3.9 1.8l-1-1.1c1.2-1.5 2.9-2.3 5-2.3 1.5 0 2.6.3 3.6 1 .9.7 1.4 1.7 1.4 2.9 0 1-.3 1.7-1 2.3-.6.6-1.4.9-2.2 1.1.8.1 1.6.4 2.3 1.1s1.1 1.5 1.1 2.6c0 1.2-.5 2.3-1.4 3-1 .7-2.3 1.1-3.9 1.1z"/></g><g><circle class="st19" cx="105.6" cy="1447.3" r="17.6"/><path class="st1" d="M101.2 1454.3h-1.8V1442l-2.4 2.5-1.1-1.1 3.7-3.8h1.6v14.7zM112.4 1454.3h-1.8v-3.7h-7v-1.5l6.3-9.4h2.5v9.3h2.1v1.6h-2.1v3.7zm-1.8-5.4v-7.7l-5.1 7.7h5.1z"/></g><g><circle class="st19" cx="277.6" cy="1446.5" r="17.6"/><path class="st1" d="M273.1 1453.4h-1.8v-12.3l-2.4 2.5-1.1-1.1 3.7-3.8h1.6v14.7zM281.5 1453.7c-2.3 0-4-.8-5.2-2.4l1.1-1.2c1 1.3 2.4 1.9 4 1.9 1 0 1.8-.3 2.4-.9.6-.6.9-1.3.9-2.2 0-1-.3-1.7-.9-2.3s-1.4-.9-2.4-.9c-1.3 0-2.4.5-3.4 1.4l-1.3-.5v-7.9h9v1.6h-7.2v5.1c.9-.9 2-1.3 3.4-1.3 1.3 0 2.4.4 3.3 1.3.9.8 1.4 2 1.4 3.4 0 1.5-.5 2.6-1.5 3.5s-2.1 1.4-3.6 1.4z"/></g><g><circle class="st19" cx="89.9" cy="1632.8" r="17.6"/><path class="st1" d="M85.5 1639.7h-1.8v-12.3l-2.4 2.5-1.1-1.1 3.7-3.8h1.6v14.7zM94 1639.9c-1 0-1.8-.2-2.6-.6s-1.3-1-1.8-1.7c-.4-.7-.8-1.5-1-2.4-.2-.9-.3-1.8-.3-2.9 0-1.4.2-2.6.6-3.7.4-1.1 1.1-2 2-2.8.9-.7 2-1.1 3.4-1.1 1.7 0 3 .6 4.1 1.8l-.9 1.4c-.9-1-1.9-1.5-3.1-1.5-.9 0-1.7.3-2.3.9-.6.6-1.1 1.3-1.4 2.1-.3.8-.4 1.8-.4 2.8v.6c.4-.6.9-1.1 1.7-1.6s1.6-.7 2.5-.7c1.4 0 2.5.4 3.4 1.2.9.8 1.4 2 1.4 3.5 0 1.3-.5 2.5-1.4 3.4-1.1.9-2.4 1.3-3.9 1.3zm-.1-1.6c1.1 0 1.9-.3 2.5-1 .6-.6.9-1.4.9-2.1 0-1-.3-1.8-.9-2.4-.6-.5-1.4-.8-2.4-.8-.7 0-1.4.2-2.1.6-.7.4-1.2.9-1.6 1.6.1 1.1.5 2 1.1 2.8.5.9 1.3 1.3 2.5 1.3z"/></g><g><circle class="st19" cx="89.9" cy="1819.2" r="17.6"/><path class="st1" d="M86.5 1826.1h-1.8v-12.3l-2.4 2.5-1.1-1.1 3.7-3.8h1.6v14.7zM92.9 1826.1h-2l5.9-13h-7.9v-1.6h10v1.3l-6 13.3z"/></g><g><circle class="st19" cx="89.9" cy="2061.6" r="17.6"/><path class="st1" d="M85.5 2068.5h-1.8v-12.3l-2.4 2.5-1.1-1.1 3.7-3.8h1.6v14.7zM97.3 2067.7c-1 .7-2.3 1.1-3.8 1.1s-2.7-.4-3.8-1.1c-1-.7-1.5-1.7-1.5-2.9 0-.9.3-1.7 1-2.4s1.5-1.2 2.5-1.5c-.9-.3-1.7-.7-2.3-1.3-.6-.6-.9-1.3-.9-2.2 0-1.2.5-2.2 1.5-2.8s2.2-1 3.5-1c1.3 0 2.5.3 3.5 1s1.5 1.6 1.5 2.8c0 .9-.3 1.6-.9 2.2-.6.6-1.4 1-2.4 1.3 1 .3 1.8.8 2.5 1.5s1 1.5 1 2.4c.1 1.2-.4 2.2-1.4 2.9zm-3.7-.5c.9 0 1.7-.2 2.4-.7.7-.5 1-1.1 1-1.8 0-.6-.2-1.1-.7-1.6s-.9-.8-1.4-.9-.9-.3-1.3-.3-.8.2-1.3.3-.9.5-1.4.9-.7 1-.7 1.6c0 .8.3 1.4 1 1.8.6.4 1.4.7 2.4.7zm0-7c.3 0 .6-.1.9-.2.3-.1.6-.2 1-.4s.7-.4.9-.8c.2-.3.4-.7.4-1.1 0-.7-.3-1.3-.9-1.8-.6-.4-1.4-.7-2.3-.7-.9 0-1.7.2-2.3.7-.6.4-.9 1-.9 1.8 0 .4.1.8.4 1.1.2.3.5.6.9.8s.7.3 1 .4c.3.1.6.2.9.2z"/></g><g><circle class="st19" cx="89.9" cy="2247.1" r="17.6"/><path class="st1" d="M85.5 2254h-1.8v-12.3l-2.4 2.5-1.1-1.1 3.7-3.8h1.6v14.7zM93.1 2254.3c-1.7 0-3-.6-4.1-1.8l.9-1.4c.9 1 1.9 1.5 3.1 1.5.9 0 1.7-.3 2.4-.9.6-.6 1.1-1.3 1.4-2.1.3-.8.4-1.7.4-2.7v-.6c-.4.6-.9 1.1-1.7 1.6-.8.5-1.6.7-2.4.7-1.4 0-2.5-.4-3.5-1.2-.9-.8-1.4-2-1.4-3.5 0-1.3.5-2.4 1.4-3.4s2.2-1.4 3.7-1.4c1 0 1.9.2 2.6.6.7.4 1.3 1 1.8 1.7.4.7.8 1.5 1 2.4.2.9.3 1.8.3 2.9 0 1.4-.2 2.6-.6 3.7-.4 1.1-1.1 2-2 2.8-.9.7-2 1.1-3.3 1.1zm.4-7.3c.7 0 1.4-.2 2.1-.6.7-.4 1.2-.9 1.6-1.6-.1-1.1-.4-2-1-2.9-.6-.8-1.5-1.2-2.6-1.2-1 0-1.9.3-2.5 1-.6.6-.9 1.4-.9 2.1 0 1 .3 1.8.9 2.4.6.5 1.4.8 2.4.8z"/></g><g><circle class="st19" cx="238.9" cy="2323.3" r="17.6"/><path class="st1" d="M237 2330.2h-10.1v-1.5c1.5-1.2 2.7-2.2 3.6-2.9.8-.7 1.7-1.5 2.4-2.3.8-.8 1.3-1.5 1.7-2.1.3-.6.5-1.2.5-1.9 0-.9-.3-1.5-.9-2s-1.3-.7-2.2-.7c-1.7 0-3 .6-4 1.8l-1.1-1.2c.6-.7 1.3-1.3 2.2-1.7.9-.4 1.9-.6 2.9-.6 1.3 0 2.5.4 3.5 1.1s1.5 1.8 1.5 3.2c0 1.4-.6 2.7-1.8 4.1s-3 3-5.4 4.9h7.2v1.8zM245.4 2330.5c-1 0-1.8-.2-2.6-.7-.7-.4-1.3-1-1.8-1.8-.4-.7-.8-1.6-1-2.4-.2-.9-.3-1.8-.3-2.7 0-.9.1-1.8.3-2.7.2-.9.5-1.7 1-2.4.4-.7 1-1.3 1.8-1.8s1.6-.7 2.6-.7 1.8.2 2.6.7 1.3 1 1.8 1.8c.4.7.8 1.5 1 2.4.2.9.3 1.8.3 2.7 0 .9-.1 1.8-.3 2.7-.2.9-.5 1.7-1 2.4-.4.7-1 1.3-1.8 1.8s-1.6.7-2.6.7zm-2.2-2.6c.6.6 1.3.9 2.2.9s1.6-.3 2.2-.9c.6-.6 1-1.3 1.2-2.2.2-.9.3-1.8.3-2.9 0-1.1-.1-2-.3-2.9-.2-.9-.6-1.6-1.2-2.2-.6-.6-1.3-.9-2.2-.9s-1.6.3-2.2.9c-.6.6-1 1.3-1.2 2.2-.2.8-.3 1.8-.3 2.9 0 1.1.1 2 .3 2.9.2.9.6 1.6 1.2 2.2z"/></g><g><circle class="st19" cx="171.1" cy="134.6" r="17.6"/><path class="st1" d="M171.6 141.8c-2.3 0-4-.8-5.2-2.4l1.1-1.2c1 1.3 2.4 1.9 4 1.9 1 0 1.8-.3 2.4-.9.6-.6.9-1.3.9-2.2 0-1-.3-1.7-.9-2.3-.6-.6-1.4-.9-2.4-.9-1.3 0-2.4.5-3.4 1.4l-1.3-.5v-7.9h9v1.6h-7.1v5.1c.9-.9 2-1.3 3.4-1.3 1.3 0 2.4.4 3.3 1.3.9.8 1.4 2 1.4 3.4 0 1.5-.5 2.6-1.5 3.5-1 1-2.2 1.4-3.7 1.4z"/></g></svg>