<svg id="Layer_1" xmlns="http://www.w3.org/2000/svg" xmlns:xlink="http://www.w3.org/1999/xlink" viewBox="0 0 562 909"><style>.st0{fill:#fff}.st1{fill:#d9dee3}.st2{fill:#acb2b8}.st3{fill:#888c90}.st4{fill:#c2c8cd}.st5{fill:#ced3d6}.st6{fill:#e2e4e7}.st7{fill:#2e86dd}</style><g id="dk5D6H.tif"><image width="562" height="909" id="Layer_0_1_" xlink:href="A77755355B8BFC5B.png" overflow="visible"/><path class="st0" d="M0 0h562v909H0z"/><path class="st1" d="M0 844.5h562V909H0z"/><path class="st2" d="M51.7 869.7h53.8v20.8H51.7zM320.2 874.2h116.4v11.4H320.2zM458.7 874.2h10.2v11.4h-10.2zM471.9 874.2h10.2v11.4h-10.2zM484.9 874.2h10.2v11.4h-10.2zM498.8 874.2H509v11.4h-10.2z"/><path class="st0" d="M66.8 875.6h1v7.2h3.5v.9h-4.5v-8.1zM77.5 880.7c0 2.1-1.5 3.1-2.9 3.1-1.6 0-2.8-1.2-2.8-3 0-1.9 1.3-3.1 2.9-3.1 1.6 0 2.8 1.2 2.8 3zm-4.6 0c0 1.3.7 2.2 1.8 2.2 1 0 1.8-.9 1.8-2.3 0-1-.5-2.2-1.7-2.2-1.4.1-1.9 1.2-1.9 2.3zM83.8 877.8v5c0 1.3-.3 2.1-.8 2.7-.6.5-1.4.7-2.1.7-.7 0-1.5-.2-1.9-.5l.3-.8c.4.2 1 .5 1.7.5 1.1 0 1.9-.6 1.9-2v-.6c-.3.5-.9 1-1.8 1-1.4 0-2.5-1.2-2.5-2.8 0-2 1.3-3.1 2.6-3.1 1 0 1.6.5 1.8 1v-.9h.8zm-1.1 2.3c0-.2 0-.3-.1-.5-.2-.6-.7-1.1-1.5-1.1-1 0-1.7.9-1.7 2.2 0 1.1.6 2.1 1.7 2.1.6 0 1.2-.4 1.5-1.1.1-.2.1-.4.1-.6v-1zM90.8 880.7c0 2.1-1.5 3.1-2.9 3.1-1.6 0-2.8-1.2-2.8-3 0-1.9 1.3-3.1 2.9-3.1 1.6 0 2.8 1.2 2.8 3zm-4.6 0c0 1.3.7 2.2 1.8 2.2 1 0 1.8-.9 1.8-2.3 0-1-.5-2.2-1.7-2.2-1.4.1-1.9 1.2-1.9 2.3z"/><path class="st2" d="M51.7 18h53.8v20.8H51.7zM196.7 18h312v20.8h-312z"/><path class="st0" d="M66.8 23.8h1V31h3.5v.9h-4.5v-8.1zM77.5 28.9c0 2.1-1.5 3.1-2.9 3.1-1.6 0-2.8-1.2-2.8-3 0-1.9 1.3-3.1 2.9-3.1 1.6 0 2.8 1.3 2.8 3zm-4.6.1c0 1.3.7 2.2 1.8 2.2 1 0 1.8-.9 1.8-2.3 0-1-.5-2.2-1.7-2.2-1.4 0-1.9 1.2-1.9 2.3zM83.8 26.1V31c0 1.3-.3 2.1-.8 2.7-.6.5-1.4.7-2.1.7-.7 0-1.5-.2-1.9-.5l.3-.8c.4.2 1 .5 1.7.5 1.1 0 1.9-.6 1.9-2V31c-.3.5-.9 1-1.8 1-1.4 0-2.5-1.2-2.5-2.8 0-2 1.3-3.1 2.6-3.1 1 0 1.6.5 1.8 1v-.9h.8zm-1.1 2.3c0-.2 0-.3-.1-.5-.2-.6-.7-1.1-1.5-1.1-1 0-1.7.9-1.7 2.2 0 1.1.6 2.1 1.7 2.1.6 0 1.2-.4 1.5-1.1.1-.2.1-.4.1-.6v-1zM90.8 28.9c0 2.1-1.5 3.1-2.9 3.1-1.6 0-2.8-1.2-2.8-3 0-1.9 1.3-3.1 2.9-3.1 1.6 0 2.8 1.3 2.8 3zm-4.6.1c0 1.3.7 2.2 1.8 2.2 1 0 1.8-.9 1.8-2.3 0-1-.5-2.2-1.7-2.2-1.4 0-1.9 1.2-1.9 2.3z"/><path class="st3" d="M454.9 26h35.9v4.6h-35.9zM406.1 26H442v4.6h-35.9zM358.2 26h35.9v4.6h-35.9zM310 26h35.9v4.6H310zM262.2 26h35.9v4.6h-35.9zM213.9 26h35.9v4.6h-35.9z"/><path class="st1" d="M51.7 50h457v203.7h-457z"/><path class="st4" d="M51.7 282.7H208V456H51.7zM51.7 648.2h145.2v103.3H51.7zM207.9 648.2h145.2v103.3H207.9zM363.3 648.2h145.2v103.3H363.3z"/><path class="st2" d="M51.7 764.8h89.8v8.5H51.7z"/><path class="st5" d="M51.7 778.2h144.5v5.2H51.7zM51.7 788.5h144.5v5.2H51.7zM51.7 798.7h144.5v5.2H51.7zM51.7 809.2h144.5v5.2H51.7zM207.1 778.2h144.5v5.2H207.1zM207.1 788.5h144.5v5.2H207.1zM207.1 798.7h144.5v5.2H207.1zM207.1 809.2h144.5v5.2H207.1z"/><g><path class="st5" d="M364 778.2h144.5v5.2H364z"/></g><g><path class="st5" d="M364 788.5h144.5v5.2H364z"/></g><g><path class="st5" d="M364 798.7h144.5v5.2H364z"/></g><g><path class="st5" d="M364 809.2h144.5v5.2H364z"/></g><g><path class="st2" d="M364 764.8h89.8v8.5H364z"/></g><g><path class="st2" d="M207.1 764.8h89.8v8.5h-89.8z"/></g></g><path class="st6" d="M220 282.7h288.6V620H220zM51.7 468H220v152H51.7z"/><path class="st3" d="M318 310.7h92v10.7h-92z"/><path class="st5" d="M235.5 341.5h257.8v6.2H235.5zM235.5 359.2h257.8v6.2H235.5zM233.8 377h257.8v6.2H233.8zM233.8 394.8h257.8v6.2H233.8zM235.1 413.8h257.8v6.2H235.1zM235.1 431.5h257.8v6.2H235.1zM235.5 449.2h257.8v6.2H235.5zM235.5 467h257.8v6.2H235.5zM67.5 484.8H496v6.2H67.5zM67.5 502.5H496v6.2H67.5zM67.5 522.1H496v6.2H67.5zM67.5 539.8H496v6.2H67.5zM66.8 557.6h428.5v6.2H66.8zM66.8 575.3h428.5v6.2H66.8zM66.8 593.1h428.5v6.2H66.8z"/><circle class="st7" cx="42.7" cy="28.4" r="17.6"/><path class="st0" d="M44.3 35.3h-1.8V23l-2.4 2.5-1.1-1.1 3.7-3.8h1.6v14.7z"/><circle class="st7" cx="264.3" cy="28" r="17.6"/><path class="st0" d="M269.3 34.9h-10.1v-1.5c1.5-1.2 2.7-2.2 3.6-2.9.8-.7 1.7-1.5 2.4-2.3.8-.8 1.3-1.5 1.7-2.1.3-.6.5-1.2.5-1.9 0-.9-.3-1.5-.9-2s-1.3-.7-2.2-.7c-1.7 0-3 .6-4 1.8l-1.1-1.2c.6-.7 1.3-1.3 2.2-1.7.9-.4 1.9-.6 2.9-.6 1.3 0 2.5.4 3.5 1.1s1.5 1.8 1.5 3.2c0 1.4-.6 2.7-1.8 4.1-1.2 1.4-3 3-5.4 4.9h7.2v1.8z"/><circle class="st7" cx="89.3" cy="87.7" r="17.6"/><path class="st0" d="M89.9 94.9c-1.2 0-2.2-.2-3.1-.7-.9-.5-1.6-1-2.1-1.7l1.1-1.1c.4.6 1 1.1 1.7 1.4.7.4 1.5.5 2.4.5 1.1 0 1.9-.2 2.5-.7.6-.5.9-1.2.9-2 0-.9-.3-1.5-1-2-.7-.4-1.5-.6-2.7-.6h-1.5v-1.7h1.5c1 0 1.8-.2 2.5-.6s1-1 1-1.8-.3-1.4-.9-1.8c-.6-.4-1.4-.7-2.3-.7-1.5 0-2.8.6-3.9 1.8l-1-1.1c1.2-1.5 2.9-2.3 5-2.3 1.5 0 2.6.3 3.6 1 .9.7 1.4 1.7 1.4 2.9 0 1-.3 1.7-1 2.3-.6.6-1.4.9-2.2 1.1.8.1 1.6.4 2.3 1.1.7.6 1.1 1.5 1.1 2.6 0 1.2-.5 2.3-1.4 3-1 .7-2.3 1.1-3.9 1.1z"/><circle class="st7" cx="89.3" cy="320.6" r="17.6"/><path class="st0" d="M92.6 327.6h-1.8v-3.7h-7v-1.5l6.3-9.4h2.5v9.3h2.1v1.6h-2.1v3.7zm-1.8-5.3v-7.7l-5.1 7.7h5.1z"/><circle class="st7" cx="89.3" cy="685.8" r="17.6"/><path class="st0" d="M89.8 693c-1 0-1.8-.2-2.6-.6-.7-.4-1.3-1-1.8-1.7-.4-.7-.8-1.5-1-2.4-.2-.9-.3-1.8-.3-2.9 0-1.4.2-2.6.6-3.7s1.1-2 2-2.8c.9-.7 2-1.1 3.4-1.1 1.7 0 3 .6 4.1 1.8l-.9 1.4c-.9-1-1.9-1.5-3.1-1.5-.9 0-1.7.3-2.3.9-.6.6-1.1 1.3-1.4 2.1s-.4 1.8-.4 2.8v.6c.4-.6.9-1.1 1.7-1.6.8-.5 1.6-.7 2.5-.7 1.4 0 2.5.4 3.4 1.2.9.8 1.4 2 1.4 3.5 0 1.3-.5 2.5-1.4 3.4-1.1.8-2.3 1.3-3.9 1.3zm0-1.7c1.1 0 1.9-.3 2.5-1 .6-.6.9-1.4.9-2.1 0-1-.3-1.8-.9-2.4-.6-.5-1.4-.8-2.4-.8-.7 0-1.4.2-2.1.6-.7.4-1.2.9-1.6 1.6.1 1.1.5 2 1.1 2.8.4.9 1.3 1.3 2.5 1.3z"/><circle class="st7" cx="89.3" cy="866" r="17.6"/><path class="st0" d="M88.8 873h-2l5.9-13h-7.9v-1.6h10v1.3l-6 13.3z"/><g><circle class="st7" cx="257.6" cy="320.6" r="17.6"/><path class="st0" d="M258 327.8c-2.3 0-4-.8-5.2-2.4l1.1-1.2c1 1.3 2.4 1.9 4 1.9 1 0 1.8-.3 2.4-.9.6-.6.9-1.3.9-2.2 0-1-.3-1.7-.9-2.3-.6-.6-1.4-.9-2.4-.9-1.3 0-2.4.5-3.4 1.4l-1.3-.5v-7.9h9v1.6h-7.1v5.1c.9-.9 2-1.3 3.4-1.3 1.3 0 2.4.4 3.3 1.3.9.8 1.4 2 1.4 3.4 0 1.5-.5 2.6-1.5 3.5-.9 1-2.2 1.4-3.7 1.4z"/></g><g><path class="st0" d="M139.1 687.4h-26.3c-2 0-3.7 1.6-3.7 3.7v20.5c0 2 1.6 3.7 3.7 3.7h26.3c2 0 3.7-1.6 3.7-3.7v-20.5c-.1-2-1.7-3.7-3.7-3.7zm2.2 14.1l-3.5-3.5c-.6-.6-1.5-.6-2 0l-8.4 8.3-4.2-4.2c-.5-.5-1.5-.5-2 0l-3.6 3.6c-.3.3-.3.7 0 1 .3.3.7.3 1 0l3.6-3.6 4.2 4.2-3 3c-.3.3-.3.7 0 1 .1.1.3.2.5.2s.4-.1.5-.2l12.4-12.3 4.4 4.4.1.1v8.1c0 1.2-1 2.2-2.2 2.2h-26.3c-1.2 0-2.2-1-2.2-2.2v-20.5c0-1.2 1-2.2 2.2-2.2h26.3c1.2 0 2.2 1 2.2 2.2v10.4z"/><path class="st0" d="M115.7 707.4l-.7.7c-.3.3-.3.7 0 1 .1.1.3.2.5.2s.4-.1.5-.2l.7-.7c.3-.3.3-.7 0-1-.3-.3-.7-.3-1 0zM117.1 691.8c-2 0-3.7 1.6-3.7 3.7 0 2 1.6 3.7 3.7 3.7 2 0 3.7-1.6 3.7-3.7 0-2-1.7-3.7-3.7-3.7zm0 5.9c-1.2 0-2.2-1-2.2-2.2s1-2.2 2.2-2.2c1.2 0 2.2 1 2.2 2.2s-1 2.2-2.2 2.2z"/></g><g><path class="st0" d="M142.1 355.8h-26.3c-2 0-3.7 1.6-3.7 3.7V380c0 2 1.6 3.7 3.7 3.7h26.3c2 0 3.7-1.6 3.7-3.7v-20.5c-.1-2.1-1.7-3.7-3.7-3.7zm2.2 14l-3.5-3.5c-.6-.6-1.5-.6-2 0l-8.4 8.3-4.2-4.2c-.5-.5-1.5-.5-2 0l-3.6 3.6c-.3.3-.3.7 0 1 .3.3.7.3 1 0l3.6-3.6 4.2 4.2-3 3c-.3.3-.3.7 0 1 .1.1.3.2.5.2s.4-.1.5-.2l12.4-12.3 4.4 4.4.1.1v8.1c0 1.2-1 2.2-2.2 2.2h-26.3c-1.2 0-2.2-1-2.2-2.2v-20.5c0-1.2 1-2.2 2.2-2.2h26.3c1.2 0 2.2 1 2.2 2.2v10.4z"/><path class="st0" d="M118.7 375.7l-.7.7c-.3.3-.3.7 0 1 .1.1.3.2.5.2s.4-.1.5-.2l.7-.7c.3-.3.3-.7 0-1-.3-.3-.7-.3-1 0zM120.1 360.1c-2 0-3.7 1.6-3.7 3.7 0 2 1.6 3.7 3.7 3.7 2 0 3.7-1.6 3.7-3.7 0-2-1.7-3.7-3.7-3.7zm0 5.9c-1.2 0-2.2-1-2.2-2.2s1-2.2 2.2-2.2c1.2 0 2.2 1 2.2 2.2s-1 2.2-2.2 2.2z"/></g><g><path class="st0" d="M293.7 687.4h-26.3c-2 0-3.7 1.6-3.7 3.7v20.5c0 2 1.6 3.7 3.7 3.7h26.3c2 0 3.7-1.6 3.7-3.7v-20.5c0-2-1.7-3.7-3.7-3.7zm2.2 14.1l-3.5-3.5c-.6-.6-1.5-.6-2 0l-8.4 8.3-4.2-4.2c-.5-.5-1.5-.5-2 0l-3.6 3.6c-.3.3-.3.7 0 1 .3.3.7.3 1 0l3.6-3.6 4.2 4.2-3 3c-.3.3-.3.7 0 1 .1.1.3.2.5.2s.4-.1.5-.2l12.4-12.3 4.4 4.4.1.1v8.1c0 1.2-1 2.2-2.2 2.2h-26.3c-1.2 0-2.2-1-2.2-2.2v-20.5c0-1.2 1-2.2 2.2-2.2h26.3c1.2 0 2.2 1 2.2 2.2v10.4z"/><path class="st0" d="M270.4 707.4l-.7.7c-.3.3-.3.7 0 1 .1.1.3.2.5.2s.4-.1.5-.2l.7-.7c.3-.3.3-.7 0-1-.3-.3-.8-.3-1 0zM271.8 691.8c-2 0-3.7 1.6-3.7 3.7 0 2 1.6 3.7 3.7 3.7 2 0 3.7-1.6 3.7-3.7-.1-2-1.7-3.7-3.7-3.7zm0 5.9c-1.2 0-2.2-1-2.2-2.2s1-2.2 2.2-2.2 2.2 1 2.2 2.2-1 2.2-2.2 2.2z"/></g><g><path class="st0" d="M449.1 685.9h-26.3c-2 0-3.7 1.6-3.7 3.7v20.5c0 2 1.6 3.7 3.7 3.7h26.3c2 0 3.7-1.6 3.7-3.7v-20.5c-.1-2-1.7-3.7-3.7-3.7zm2.2 14.1l-3.5-3.5c-.6-.6-1.5-.6-2 0l-8.4 8.3-4.2-4.2c-.5-.5-1.5-.5-2 0l-3.6 3.6c-.3.3-.3.7 0 1 .3.3.7.3 1 0l3.6-3.6 4.2 4.2-3 3c-.3.3-.3.7 0 1 .1.1.3.2.5.2s.4-.1.5-.2l12.4-12.3 4.4 4.4.1.1v8.1c0 1.2-1 2.2-2.2 2.2h-26.3c-1.2 0-2.2-1-2.2-2.2v-20.5c0-1.2 1-2.2 2.2-2.2h26.3c1.2 0 2.2 1 2.2 2.2V700z"/><path class="st0" d="M425.7 705.9l-.7.7c-.3.3-.3.7 0 1 .1.1.3.2.5.2s.4-.1.5-.2l.7-.7c.3-.3.3-.7 0-1-.3-.3-.7-.3-1 0zM427.1 690.3c-2 0-3.7 1.6-3.7 3.7 0 2 1.6 3.7 3.7 3.7 2 0 3.7-1.6 3.7-3.7 0-2-1.7-3.7-3.7-3.7zm0 5.9c-1.2 0-2.2-1-2.2-2.2s1-2.2 2.2-2.2 2.2 1 2.2 2.2-1 2.2-2.2 2.2z"/></g></svg>