<svg xmlns="http://www.w3.org/2000/svg" xmlns:xlink="http://www.w3.org/1999/xlink" viewBox="0 0 562 909"><image width="562" height="909" xlink:href="4FDCB18474600AB9.png" overflow="visible"/><path fill="#fff" d="M0 0h562v909H0z"/><path fill="#d9dee3" d="M0 844.5h562V909H0z"/><path fill="#acb2b8" d="M51.657 869.739h53.75v20.75h-53.75zM320.157 874.176h116.414v11.376H320.157zM458.657 874.176h10.226v11.376h-10.226zM471.949 874.176h10.226v11.376h-10.226zM484.887 874.176h10.226v11.376h-10.226zM498.824 874.176h10.226v11.376h-10.226z"/><g fill="#fff"><path d="M66.754 875.552h1.044v7.208h3.454v.876h-4.498v-8.084zM77.467 880.686c0 2.146-1.486 3.082-2.89 3.082-1.571 0-2.783-1.151-2.783-2.986 0-1.942 1.271-3.082 2.879-3.082 1.667-.001 2.794 1.21 2.794 2.986zm-4.606.059c0 1.271.732 2.231 1.764 2.231 1.007 0 1.763-.948 1.763-2.255 0-.983-.491-2.231-1.739-2.231-1.248 0-1.788 1.152-1.788 2.255zM83.804 877.831c-.024.42-.049.888-.049 1.595v3.37c0 1.332-.264 2.147-.827 2.65-.563.528-1.379.696-2.11.696-.696 0-1.464-.168-1.932-.479l.264-.804c.384.239.984.455 1.703.455 1.08 0 1.871-.563 1.871-2.026v-.647H82.7c-.324.539-.948.971-1.848.971-1.438 0-2.471-1.223-2.471-2.83 0-1.967 1.284-3.082 2.615-3.082 1.007 0 1.559.527 1.811 1.007h.024l.048-.875h.925zm-1.092 2.291a1.5 1.5 0 0 0-.06-.48c-.192-.611-.708-1.115-1.476-1.115-1.008 0-1.728.852-1.728 2.195 0 1.139.576 2.087 1.716 2.087.647 0 1.235-.408 1.463-1.08.06-.18.084-.384.084-.563v-1.044zM90.763 880.686c0 2.146-1.486 3.082-2.89 3.082-1.571 0-2.783-1.151-2.783-2.986 0-1.942 1.271-3.082 2.879-3.082 1.667-.001 2.794 1.21 2.794 2.986zm-4.606.059c0 1.271.732 2.231 1.764 2.231 1.007 0 1.763-.948 1.763-2.255 0-.983-.491-2.231-1.739-2.231-1.248 0-1.788 1.152-1.788 2.255z"/></g><path fill="#acb2b8" d="M51.657 17.989h53.75v20.75h-53.75zM196.657 17.989h311.971v20.75H196.657z"/><g fill="#fff"><path d="M66.754 23.802h1.044v7.208h3.454v.876h-4.498v-8.084zM77.467 28.936c0 2.146-1.486 3.082-2.89 3.082-1.571 0-2.783-1.151-2.783-2.986 0-1.942 1.271-3.082 2.879-3.082 1.667-.001 2.794 1.21 2.794 2.986zm-4.606.059c0 1.271.732 2.231 1.764 2.231 1.007 0 1.763-.948 1.763-2.255 0-.983-.491-2.231-1.739-2.231-1.248 0-1.788 1.152-1.788 2.255zM83.804 26.081c-.024.42-.049.888-.049 1.595v3.37c0 1.332-.264 2.147-.827 2.65-.563.528-1.379.696-2.11.696-.696 0-1.464-.168-1.932-.479l.264-.804c.384.239.984.455 1.703.455 1.08 0 1.871-.563 1.871-2.026v-.647H82.7c-.324.539-.948.971-1.848.971-1.438 0-2.471-1.223-2.471-2.83 0-1.967 1.284-3.082 2.615-3.082 1.007 0 1.559.527 1.811 1.007h.024l.048-.875h.925zm-1.092 2.291a1.5 1.5 0 0 0-.06-.48c-.192-.611-.708-1.115-1.476-1.115-1.008 0-1.728.852-1.728 2.195 0 1.139.576 2.087 1.716 2.087.647 0 1.235-.408 1.463-1.08.06-.18.084-.384.084-.563v-1.044zM90.763 28.936c0 2.146-1.486 3.082-2.89 3.082-1.571 0-2.783-1.151-2.783-2.986 0-1.942 1.271-3.082 2.879-3.082 1.667-.001 2.794 1.21 2.794 2.986zm-4.606.059c0 1.271.732 2.231 1.764 2.231 1.007 0 1.763-.948 1.763-2.255 0-.983-.491-2.231-1.739-2.231-1.248 0-1.788 1.152-1.788 2.255z"/></g><path fill="#888c90" d="M454.875 26h35.875v4.625h-35.875zM406.125 26H442v4.625h-35.875zM358.25 26h35.875v4.625H358.25zM310 26h35.875v4.625H310zM262.25 26h35.875v4.625H262.25zM213.875 26h35.875v4.625h-35.875z"/><path fill="#d9dee3" d="M51.657 50h456.971v203.667H51.657z"/><path fill="#c2c8cd" d="M51.657 282.667H208V456H51.657zM51.657 648.167h145.219V751.5H51.657zM207.946 648.167h145.219V751.5H207.946zM363.278 648.167h145.219V751.5H363.278z"/><path fill="#acb2b8" d="M51.657 764.75H141.5v8.5H51.657z"/><path fill="#ced3d6" d="M51.657 778.25h144.486v5.214H51.657zM51.657 788.464h144.486v5.214H51.657zM51.657 798.678h144.486v5.214H51.657zM51.657 809.178h144.486v5.214H51.657zM207.14 778.25h144.486v5.214H207.14zM207.14 788.464h144.486v5.214H207.14zM207.14 798.678h144.486v5.214H207.14zM207.14 809.178h144.486v5.214H207.14zM363.962 778.25h144.486v5.214H363.962zM363.962 788.464h144.486v5.214H363.962zM363.962 798.678h144.486v5.214H363.962zM363.962 809.178h144.486v5.214H363.962z"/><path fill="#acb2b8" d="M363.962 764.75h89.843v8.5h-89.843zM207.14 764.75h89.843v8.5H207.14z"/><path fill="#e2e4e7" d="M220 282.667h288.629V620H220zM51.657 468H220v152H51.657z"/><path fill="#888c90" d="M318 310.667h92v10.667h-92z"/><path fill="#ced3d6" d="M235.5 341.5h257.75v6.25H235.5zM235.5 359.25h257.75v6.25H235.5zM233.75 377H491.5v6.25H233.75zM233.75 394.75H491.5V401H233.75zM235.125 413.75h257.75V420h-257.75zM235.125 431.5h257.75v6.25h-257.75zM235.5 449.25h257.75v6.25H235.5zM235.5 467h257.75v6.25H235.5zM67.5 484.75H496V491H67.5zM67.5 502.5H496v6.25H67.5zM67.5 522.083H496v6.25H67.5zM67.5 539.833H496v6.25H67.5zM66.75 557.583h428.5v6.25H66.75zM66.75 575.333h428.5v6.25H66.75zM66.75 593.083h428.5v6.25H66.75z"/><g><g fill="#fff"><path d="M139.076 687.431h-26.337a3.669 3.669 0 0 0-3.658 3.658v20.484a3.669 3.669 0 0 0 3.658 3.658h26.337a3.669 3.669 0 0 0 3.658-3.658v-20.484a3.669 3.669 0 0 0-3.658-3.658zm2.195 14.046l-3.475-3.475c-.585-.585-1.463-.585-2.048 0l-8.377 8.34-.037-.037-4.243-4.243c-.549-.549-1.5-.549-2.048 0l-3.585 3.585a.706.706 0 0 0 0 1.024.706.706 0 0 0 1.024 0l3.585-3.585 4.243 4.243.037.037-2.963 2.963a.706.706 0 0 0 0 1.024c.146.146.329.219.512.219s.366-.073.512-.219l12.364-12.327 4.353 4.353c.037.037.11.073.146.11v8.084a2.202 2.202 0 0 1-2.195 2.195h-26.337a2.202 2.202 0 0 1-2.195-2.195v-20.484c0-1.207.988-2.195 2.195-2.195h26.337c1.207 0 2.195.988 2.195 2.195v10.388z"/><path d="M115.702 707.403l-.732.732a.706.706 0 0 0 0 1.024c.146.146.329.219.512.219s.366-.073.512-.219l.732-.732a.706.706 0 0 0 0-1.024.706.706 0 0 0-1.024 0zM117.129 691.821a3.669 3.669 0 0 0-3.658 3.658 3.669 3.669 0 0 0 3.658 3.658 3.669 3.669 0 0 0 3.658-3.658 3.669 3.669 0 0 0-3.658-3.658zm0 5.852c-1.207 0-2.195-.988-2.195-2.195s.988-2.195 2.195-2.195c1.207 0 2.195.988 2.195 2.195s-.988 2.195-2.195 2.195z"/></g></g><g><circle cx="42.741" cy="34.355" r="26" fill="#2e86dd"/><path d="M45.042 44.595h-2.698V26.491l-3.478 3.673-1.625-1.658 5.428-5.59h2.373v21.679z" fill="#fff"/></g><g><circle cx="264.257" cy="33.98" r="26" fill="#2e86dd"/><path d="M271.762 44.22h-14.886v-2.145c2.253-1.776 4.003-3.19 5.249-4.242a52.043 52.043 0 0 0 3.608-3.348c1.159-1.181 1.977-2.231 2.454-3.152s.715-1.836.715-2.747c0-1.3-.444-2.286-1.333-2.958-.889-.671-1.95-1.007-3.186-1.007-2.492 0-4.453.91-5.882 2.73l-1.658-1.723c.823-1.083 1.901-1.923 3.234-2.519 1.333-.596 2.768-.894 4.306-.894 1.972 0 3.678.553 5.119 1.658 1.441 1.105 2.161 2.676 2.161 4.712 0 2.015-.867 4.025-2.6 6.029-1.733 2.004-4.377 4.404-7.93 7.199h10.628v2.407z" fill="#fff"/></g><g><circle cx="89.257" cy="117.714" r="26" fill="#2e86dd"/><path d="M90.244 128.344c-1.734 0-3.272-.336-4.615-1.008-1.344-.671-2.373-1.527-3.088-2.567l1.593-1.69c.65.867 1.506 1.56 2.567 2.08s2.221.78 3.478.78c1.581 0 2.822-.362 3.721-1.089.899-.726 1.349-1.717 1.349-2.974 0-1.3-.482-2.264-1.446-2.893-.964-.628-2.28-.943-3.949-.943-1.279 0-2.026.011-2.243.033v-2.47c.238.022.986.033 2.243.033 1.473 0 2.681-.298 3.624-.894.942-.596 1.414-1.489 1.414-2.681 0-1.148-.46-2.053-1.381-2.714s-2.075-.991-3.461-.991c-2.188 0-4.095.877-5.72 2.632l-1.495-1.69c1.842-2.231 4.312-3.348 7.411-3.348 2.145 0 3.905.515 5.281 1.544s2.064 2.443 2.064 4.241c0 1.43-.477 2.573-1.43 3.429-.954.856-2.037 1.392-3.25 1.608 1.191.109 2.324.629 3.396 1.56 1.072.932 1.609 2.189 1.609 3.771 0 1.842-.694 3.342-2.08 4.501-1.389 1.161-3.253 1.74-5.592 1.74z" fill="#fff"/></g><g><circle cx="89.257" cy="320.645" r="26" fill="#2e86dd"/><path d="M94.162 330.885h-2.698v-5.493H81.161v-2.243l9.295-13.943h3.705v13.813h3.055v2.373h-3.055v5.493zm-2.698-7.865v-11.311l-7.605 11.311h7.605z" fill="#fff"/></g><g><circle cx="89.257" cy="685.766" r="26" fill="#2e86dd"/><path d="M90.131 696.396c-1.452 0-2.73-.304-3.835-.91A6.851 6.851 0 0 1 83.68 693c-.64-1.05-1.116-2.231-1.43-3.542-.314-1.311-.471-2.725-.471-4.241 0-2.037.303-3.879.91-5.525s1.587-3.007 2.941-4.079 3.006-1.609 4.957-1.609c2.492 0 4.496.867 6.013 2.601l-1.365 2.015c-1.257-1.473-2.807-2.21-4.648-2.21-1.344 0-2.486.423-3.429 1.268-.942.846-1.625 1.891-2.048 3.137-.422 1.246-.634 2.616-.634 4.111 0 .369.011.65.033.845.542-.866 1.381-1.646 2.519-2.34 1.137-.693 2.345-1.04 3.624-1.04 2.059 0 3.754.602 5.086 1.804 1.333 1.203 1.999 2.909 1.999 5.119 0 1.972-.694 3.646-2.08 5.021-1.387 1.373-3.229 2.061-5.526 2.061zm-.097-2.405c1.56 0 2.779-.472 3.656-1.414s1.316-1.999 1.316-3.169c0-1.517-.466-2.676-1.397-3.478-.932-.802-2.135-1.203-3.608-1.203-1.062 0-2.08.299-3.055.895s-1.766 1.381-2.373 2.355c.151 1.604.671 3.007 1.56 4.209.889 1.204 2.189 1.805 3.901 1.805z" fill="#fff"/></g><g><circle cx="89.257" cy="866.037" r="26" fill="#2e86dd"/><path d="M88.521 876.276h-2.99l8.743-19.273H82.605v-2.405h14.789v1.853l-8.873 19.825z" fill="#fff"/></g><g><circle cx="257.599" cy="320.645" r="26" fill="#2e86dd"/><path d="M258.246 331.275c-3.337 0-5.882-1.159-7.638-3.478l1.658-1.788c1.495 1.907 3.488 2.86 5.98 2.86 1.474 0 2.676-.444 3.608-1.333.931-.888 1.397-1.993 1.397-3.315 0-1.408-.46-2.541-1.381-3.396s-2.118-1.284-3.591-1.284c-1.95 0-3.619.682-5.005 2.047l-1.982-.683v-11.7h13.261v2.405H253.99v7.541c1.3-1.3 2.99-1.95 5.07-1.95 1.907 0 3.532.623 4.875 1.869 1.343 1.247 2.015 2.931 2.015 5.054 0 2.167-.726 3.9-2.178 5.2-1.452 1.301-3.294 1.951-5.526 1.951z" fill="#fff"/></g><g><g fill="#fff"><path d="M142.076 355.75h-26.337a3.669 3.669 0 0 0-3.658 3.658v20.484a3.669 3.669 0 0 0 3.658 3.658h26.337a3.669 3.669 0 0 0 3.658-3.658v-20.484a3.669 3.669 0 0 0-3.658-3.658zm2.195 14.046l-3.475-3.475c-.585-.585-1.463-.585-2.048 0l-8.377 8.34-.037-.037-4.243-4.243c-.549-.549-1.5-.549-2.048 0l-3.585 3.585a.706.706 0 0 0 0 1.024.706.706 0 0 0 1.024 0l3.585-3.585 4.243 4.243.037.037-2.963 2.963a.706.706 0 0 0 0 1.024c.146.146.329.219.512.219s.366-.073.512-.219l12.364-12.327 4.353 4.353c.037.037.11.073.146.11v8.084a2.202 2.202 0 0 1-2.195 2.195h-26.337a2.202 2.202 0 0 1-2.195-2.195v-20.484c0-1.207.988-2.195 2.195-2.195h26.337c1.207 0 2.195.988 2.195 2.195v10.388z"/><path d="M118.702 375.722l-.732.732a.706.706 0 0 0 0 1.024c.146.146.329.219.512.219s.366-.073.512-.219l.732-.732a.706.706 0 0 0 0-1.024.706.706 0 0 0-1.024 0zM120.129 360.139a3.669 3.669 0 0 0-3.658 3.658 3.669 3.669 0 0 0 3.658 3.658 3.669 3.669 0 0 0 3.658-3.658 3.669 3.669 0 0 0-3.658-3.658zm0 5.853c-1.207 0-2.195-.988-2.195-2.195s.988-2.195 2.195-2.195c1.207 0 2.195.988 2.195 2.195s-.988 2.195-2.195 2.195z"/></g></g><g><g fill="#fff"><path d="M293.724 687.431h-26.337a3.669 3.669 0 0 0-3.658 3.658v20.484a3.669 3.669 0 0 0 3.658 3.658h26.337a3.669 3.669 0 0 0 3.658-3.658v-20.484a3.669 3.669 0 0 0-3.658-3.658zm2.195 14.046l-3.475-3.475c-.585-.585-1.463-.585-2.048 0l-8.376 8.34-.037-.037-4.243-4.243c-.549-.549-1.5-.549-2.048 0l-3.585 3.585a.706.706 0 0 0 0 1.024.706.706 0 0 0 1.024 0l3.585-3.585 4.243 4.243.037.037-2.963 2.963a.706.706 0 0 0 0 1.024c.146.146.329.219.512.219s.366-.073.512-.219l12.364-12.327 4.353 4.353c.037.037.11.073.146.11v8.084a2.202 2.202 0 0 1-2.195 2.195h-26.337a2.202 2.202 0 0 1-2.195-2.195v-20.484c0-1.207.988-2.195 2.195-2.195h26.337c1.207 0 2.195.988 2.195 2.195v10.388z"/><path d="M270.351 707.403l-.732.732a.706.706 0 0 0 0 1.024c.146.146.329.219.512.219s.366-.073.512-.219l.732-.732a.706.706 0 0 0 0-1.024.706.706 0 0 0-1.024 0zM271.777 691.821a3.669 3.669 0 0 0-3.658 3.658 3.669 3.669 0 0 0 3.658 3.658 3.669 3.669 0 0 0 3.658-3.658 3.669 3.669 0 0 0-3.658-3.658zm0 5.852c-1.207 0-2.195-.988-2.195-2.195s.988-2.195 2.195-2.195 2.195.988 2.195 2.195-.988 2.195-2.195 2.195z"/></g></g><g><g fill="#fff"><path d="M449.056 685.933H422.72a3.669 3.669 0 0 0-3.658 3.658v20.484a3.669 3.669 0 0 0 3.658 3.658h26.337a3.669 3.669 0 0 0 3.658-3.658v-20.484a3.67 3.67 0 0 0-3.659-3.658zm2.195 14.047l-3.475-3.475c-.585-.585-1.463-.585-2.048 0l-8.376 8.34-.037-.037-4.243-4.243c-.549-.549-1.5-.549-2.048 0l-3.585 3.585a.706.706 0 0 0 0 1.024.706.706 0 0 0 1.024 0l3.585-3.585 4.243 4.243.037.037-2.963 2.963a.706.706 0 0 0 0 1.024c.146.146.329.219.512.219s.366-.073.512-.219l12.364-12.327 4.353 4.353c.037.037.11.073.146.11v8.084a2.202 2.202 0 0 1-2.195 2.195H422.72a2.202 2.202 0 0 1-2.195-2.195v-20.484c0-1.207.988-2.195 2.195-2.195h26.337c1.207 0 2.195.988 2.195 2.195v10.388z"/><path d="M425.683 705.905l-.732.732a.706.706 0 0 0 0 1.024c.146.146.329.219.512.219s.366-.073.512-.219l.732-.732a.706.706 0 0 0 0-1.024.708.708 0 0 0-1.024 0zM427.109 690.323a3.669 3.669 0 0 0-3.658 3.658 3.669 3.669 0 0 0 3.658 3.658 3.669 3.669 0 0 0 3.658-3.658 3.669 3.669 0 0 0-3.658-3.658zm0 5.852c-1.207 0-2.195-.988-2.195-2.195s.988-2.195 2.195-2.195 2.195.988 2.195 2.195-.988 2.195-2.195 2.195z"/></g></g></svg>