<svg id="Layer_1" xmlns="http://www.w3.org/2000/svg" xmlns:xlink="http://www.w3.org/1999/xlink" viewBox="0 0 562 1520.3"><style>.st0{fill:#fff}.st1{fill:#e2e4e7}.st2{fill:#acb2b8}.st3{fill:#c2c8cd}.st4{fill:#fcfcfc}.st5{fill:#888c90}.st7{fill:#ced3d6}.st8{fill:#adb3b9}.st9{fill:#2d85dd}.st10{fill:#cfd3d7}.st11{fill:#cdd2d5}.st13{fill:#afb3ba}.st14{fill:#2e86dd}</style><g id="AompSk.tif_1_"><image width="372" height="1014" id="Layer_0_3_" xlink:href="7B18D33CE50E5770.png" transform="translate(4.432 -.397) scale(1.4997)" overflow="visible"/></g><path class="st0" d="M0-.4h562.3v1520.7H0z"/><path class="st1" d="M52 67.5h457v204H52z"/><path class="st2" d="M177 144.3h208v15H177z"/><path class="st3" d="M143 184h277.3v10H143zM143 170.3h277.3v10H143z"/><path class="st2" d="M491.2 169.3l-13.6-9.4c-.1-.1-.3-.1-.5 0s-.3.2-.3.4V179c0 .2.1.3.3.4.1 0 .1.1.2.1s.2 0 .3-.1l13.6-9.4c.1-.1.2-.2.2-.4s-.1-.2-.2-.3zm-13.4 8.8v-16.9l12.3 8.5-12.3 8.4zM68.9 169.7c0 .2.1.3.2.4l13.6 9.4c.1.1.2.1.3.1.1 0 .1 0 .2-.1.2-.1.3-.2.3-.4v-18.7c0-.2-.1-.3-.3-.4-.2-.1-.3-.1-.5 0l-13.6 9.4c-.1 0-.2.1-.2.3zm1.3 0l12.3-8.5v16.9l-12.3-8.4zM128.5 20.4H440V40H128.5zM487.5 20.4h20.7V40h-20.7zM464.2 20.4h20.7V40h-20.7zM52 20.1h46.6v19.6H52z"/><path class="st4" d="M62.8 25.7h1v7.2h3.5v.9h-4.5v-8.1zM73.6 30.9c0 2.1-1.5 3.1-2.9 3.1-1.6 0-2.8-1.2-2.8-3 0-1.9 1.3-3.1 2.9-3.1 1.6 0 2.8 1.2 2.8 3zm-4.6 0c0 1.3.7 2.2 1.8 2.2 1 0 1.8-.9 1.8-2.3 0-1-.5-2.2-1.7-2.2-1.4.1-1.9 1.2-1.9 2.3zM79.9 28v5c0 1.3-.3 2.1-.8 2.7-.6.5-1.4.7-2.1.7-.7 0-1.5-.2-1.9-.5l.3-.8c.4.2 1 .5 1.7.5 1.1 0 1.9-.6 1.9-2V33c-.3.5-.9 1-1.8 1-1.4 0-2.5-1.2-2.5-2.8 0-2 1.3-3.1 2.6-3.1 1 0 1.6.5 1.8 1v-.9h.8zm-1.1 2.3c0-.2 0-.3-.1-.5-.2-.6-.7-1.1-1.5-1.1-1 0-1.7.9-1.7 2.2 0 1.1.6 2.1 1.7 2.1.6 0 1.2-.4 1.5-1.1.1-.2.1-.4.1-.6v-1zM86.9 30.9c0 2.1-1.5 3.1-2.9 3.1-1.6 0-2.8-1.2-2.8-3 0-1.9 1.3-3.1 2.9-3.1 1.6 0 2.8 1.2 2.8 3zm-4.6 0c0 1.3.7 2.2 1.8 2.2 1 0 1.8-.9 1.8-2.3 0-1-.5-2.2-1.7-2.2-1.4.1-1.9 1.2-1.9 2.3z"/><path class="st5" d="M194.1 27.3h34.8v5.2h-34.8zM243.2 27.4H278v5.2h-34.8zM290.4 27.5h34.8v5.2h-34.8zM339.1 27.2h34.8v5.2h-34.8zM388.1 27.5h34.8v5.2h-34.8zM145.5 27.6h34.8v5.2h-34.8z"/><path class="st0" d="M209.8 42.5l-2.8 5.3h-11.2v48.7h77.3v-49h-61z"/><path class="st2" d="M273.6 97h-78.4V47.2h11.4l3.1-5.9 2.6 5.6h61.2V97zm-77.4-1h76.4V48h-60.9l-2-4.4-2.4 4.6h-11.1V96z"/><path class="st2" d="M202.8 58.2h61.4v5.6h-61.4zM202.8 80h61.4v5.6h-61.4zM202.8 69.1h61.4v5.6h-61.4z"/><path class="st1" d="M225.3 300.7h283.8V572H225.3z"/><path fill="#abb1b7" d="M322 326.3h88.7V337H322z"/><path class="st7" d="M241.7 357.3h250v5.7h-250zM241.7 375.4h250v5.7h-250zM241.3 393.4h250v5.7h-250zM241.3 411.5h250v5.7h-250zM241.3 429.5h250v5.7h-250zM241.3 447.6h250v5.7h-250zM241.3 465.6h250v5.7h-250zM241.3 483.7h250v5.7h-250zM241.3 501.7h250v5.7h-250zM241.3 519.8h250v5.7h-250zM241.7 537.8h250v5.7h-250z"/><path class="st1" d="M51.2 300.7H208v26.5H51.2z"/><path class="st2" d="M62.8 311.4h55v5.7h-55z"/><path class="st2" d="M196.7 313.1l-.5-.5-1.7 1.7-1.8-1.7-.5.5 2.3 2.3z" id="chevron-right"/><path class="st1" d="M51.2 395.2H208v26.5H51.2z"/><path class="st2" d="M62.8 405.9h55v5.7h-55z"/><path class="st2" d="M196.7 407.6l-.5-.5-1.7 1.7-1.8-1.7-.5.5 2.3 2.3z" id="chevron-right_1_"/><path class="st1" d="M51.2 425.5H208V452H51.2z"/><path class="st2" d="M62.8 436.2h55v5.7h-55z"/><path class="st2" d="M196.7 437.9l-.5-.6-1.7 1.8-1.8-1.8-.5.6 2.3 2.2z" id="chevron-right_2_"/><path class="st1" d="M51.2 455.7H208v26.5H51.2z"/><path class="st2" d="M62.8 466.4h55v5.7h-55z"/><path class="st2" d="M196.7 468.1l-.5-.5-1.7 1.7-1.8-1.7-.5.5 2.3 2.2z" id="chevron-right_3_"/><path class="st1" d="M51.2 485.9H208v26.5H51.2z"/><path class="st2" d="M62.8 496.6h55v5.7h-55z"/><path class="st2" d="M196.7 498.3l-.5-.5-1.7 1.7-1.8-1.7-.5.5 2.3 2.3z" id="chevron-right_4_"/><path class="st1" d="M51.2 516.2H208v26.5H51.2z"/><path class="st2" d="M62.8 526.9h55v5.7h-55z"/><path class="st2" d="M196.7 528.6l-.5-.6-1.7 1.8-1.8-1.8-.5.6 2.3 2.2z" id="chevron-right_5_"/><path class="st1" d="M51.7 546.4h156.8v26.5H51.7z"/><path class="st2" d="M63.2 557.1h55v5.7h-55z"/><path class="st2" d="M197.1 558.8l-.5-.5-1.7 1.7-1.8-1.7-.5.5 2.3 2.2z" id="chevron-right_6_"/><path class="st8" d="M71 336.1h125v4.6H71zM71 350.7h125v4.6H71zM71 365.3h125v4.6H71zM71 379.9h125v4.6H71z"/><circle class="st9" cx="65" cy="337.9" r="1.5"/><circle class="st9" cx="65" cy="353" r="1.5"/><circle class="st9" cx="65" cy="367.6" r="1.5"/><circle class="st9" cx="65" cy="382.8" r="1.5"/><path class="st1" d="M51.4 599.8h157.2v120.5H51.4z"/><path class="st2" d="M85.7 640.9h88.5v8H85.7z"/><path class="st10" d="M71 657.2h117.9v4.9H71zM71 667.2h117.9v4.9H71z"/><path class="st1" d="M225.3 599.8h283.8v120.5H225.3z"/><path class="st2" d="M322.4 640.9h88.5v8h-88.5z"/><path class="st10" d="M307.7 657.2h117.9v4.9H307.7zM307.7 667.2h117.9v4.9H307.7z"/><path class="st1" d="M51.4 748H156v137H51.4z"/><path class="st2" d="M81.3 844.3H127v8.8H81.3z"/><path class="st11" d="M73.3 861.5h61.3v5.3H73.3z"/><path class="st0" d="M116.2 787.6H93.7c-1.7 0-3.1 1.4-3.1 3.1v17.5c0 1.7 1.4 3.1 3.1 3.1h22.5c1.7 0 3.1-1.4 3.1-3.1v-17.5c0-1.7-1.4-3.1-3.1-3.1zm1.8 12l-3-3c-.5-.5-1.2-.5-1.7 0l-7.1 7.1-3.6-3.6c-.5-.5-1.3-.5-1.7 0l-3.1 3.1c-.2.2-.2.6 0 .9s.6.2.9 0l3.1-3.1 3.6 3.6-2.5 2.5c-.2.2-.2.6 0 .9.1.1.3.2.4.2s.3-.1.4-.2l10.5-10.5 3.7 3.7.1.1v6.9c0 1-.8 1.9-1.9 1.9H93.7c-1 0-1.9-.8-1.9-1.9v-17.5c0-1 .8-1.9 1.9-1.9h22.5c1 0 1.9.8 1.9 1.9v8.9z"/><path class="st0" d="M96.2 804.6l-.6.6c-.2.2-.2.6 0 .9.1.1.3.2.4.2s.3-.1.4-.2l.6-.6c.2-.2.2-.6 0-.9s-.5-.2-.8 0zM97.4 791.3c-1.7 0-3.1 1.4-3.1 3.1 0 1.7 1.4 3.1 3.1 3.1 1.7 0 3.1-1.4 3.1-3.1.1-1.7-1.3-3.1-3.1-3.1zm0 5c-1 0-1.9-.8-1.9-1.9s.8-1.9 1.9-1.9c1 0 1.9.8 1.9 1.9s-.8 1.9-1.9 1.9z"/><path class="st3" d="M51.7 914h144v103.1h-144z"/><path class="st2" d="M52 1029.3h90.9v8.8H52z"/><path class="st11" d="M52 1042.5h143.7v5.3H52zM52 1053h143.7v5.3H52z"/><path class="st0" d="M135.8 953.6h-22.5c-1.7 0-3.1 1.4-3.1 3.1v17.5c0 1.7 1.4 3.1 3.1 3.1h22.5c1.7 0 3.1-1.4 3.1-3.1v-17.5c.1-1.7-1.3-3.1-3.1-3.1zm1.9 12l-3-3c-.5-.5-1.2-.5-1.7 0l-7.1 7.1-3.6-3.6c-.5-.5-1.3-.5-1.7 0l-3.1 3.1c-.2.2-.2.6 0 .9.2.2.6.2.9 0l3.1-3.1 3.6 3.6-2.5 2.5c-.2.2-.2.6 0 .9.1.1.3.2.4.2s.3-.1.4-.2l10.5-10.5 3.7 3.7.1.1v6.9c0 1-.8 1.9-1.9 1.9h-22.5c-1 0-1.9-.8-1.9-1.9v-17.5c0-1 .8-1.9 1.9-1.9h22.5c1 0 1.9.8 1.9 1.9v8.9z"/><path class="st0" d="M115.9 970.6l-.6.6c-.2.2-.2.6 0 .9.1.1.3.2.4.2s.3-.1.4-.2l.6-.6c.2-.2.2-.6 0-.9s-.6-.2-.8 0zM117.1 957.3c-1.7 0-3.1 1.4-3.1 3.1 0 1.7 1.4 3.1 3.1 3.1 1.7 0 3.1-1.4 3.1-3.1 0-1.7-1.4-3.1-3.1-3.1zm0 5c-1 0-1.9-.8-1.9-1.9s.8-1.9 1.9-1.9c1 0 1.9.8 1.9 1.9s-.9 1.9-1.9 1.9z"/><path class="st3" d="M209 914h144v103.1H209z"/><path class="st2" d="M209.3 1029.3h90.9v8.8h-90.9z"/><path class="st11" d="M209.3 1042.5H353v5.3H209.3zM209.3 1053H353v5.3H209.3z"/><path class="st0" d="M293.2 953.6h-22.5c-1.7 0-3.1 1.4-3.1 3.1v17.5c0 1.7 1.4 3.1 3.1 3.1h22.5c1.7 0 3.1-1.4 3.1-3.1v-17.5c0-1.7-1.4-3.1-3.1-3.1zm1.8 12l-3-3c-.5-.5-1.2-.5-1.7 0l-7.1 7.1-3.6-3.6c-.5-.5-1.3-.5-1.7 0l-3.1 3.1c-.2.2-.2.6 0 .9s.6.2.9 0l3.1-3.1 3.6 3.6-2.5 2.5c-.2.2-.2.6 0 .9.1.1.3.2.4.2s.3-.1.4-.2l10.5-10.5 3.7 3.7.1.1v6.9c0 1-.8 1.9-1.9 1.9h-22.5c-1 0-1.9-.8-1.9-1.9v-17.5c0-1 .8-1.9 1.9-1.9h22.5c1 0 1.9.8 1.9 1.9v8.9z"/><path class="st0" d="M273.2 970.6l-.6.6c-.2.2-.2.6 0 .9.1.1.3.2.4.2s.3-.1.4-.2l.6-.6c.2-.2.2-.6 0-.9s-.5-.2-.8 0zM274.4 957.3c-1.7 0-3.1 1.4-3.1 3.1 0 1.7 1.4 3.1 3.1 3.1s3.1-1.4 3.1-3.1c.1-1.7-1.3-3.1-3.1-3.1zm0 5c-1 0-1.9-.8-1.9-1.9s.8-1.9 1.9-1.9 1.9.8 1.9 1.9-.8 1.9-1.9 1.9z"/><path class="st3" d="M364.5 914h144v103.1h-144z"/><path class="st2" d="M364.8 1029.3h90.9v8.8h-90.9z"/><path class="st11" d="M364.8 1042.5h143.7v5.3H364.8zM364.8 1053h143.7v5.3H364.8z"/><path class="st0" d="M448.7 953.6h-22.5c-1.7 0-3.1 1.4-3.1 3.1v17.5c0 1.7 1.4 3.1 3.1 3.1h22.5c1.7 0 3.1-1.4 3.1-3.1v-17.5c0-1.7-1.4-3.1-3.1-3.1zm1.8 12l-3-3c-.5-.5-1.2-.5-1.7 0l-7.1 7.1-3.6-3.6c-.5-.5-1.3-.5-1.7 0l-3.1 3.1c-.2.2-.2.6 0 .9.2.2.6.2.9 0l3.1-3.1 3.6 3.6-2.5 2.5c-.2.2-.2.6 0 .9.1.1.3.2.4.2.2 0 .3-.1.4-.2l10.5-10.5 3.7 3.7.1.1v6.9c0 1-.8 1.9-1.9 1.9h-22.5c-1 0-1.9-.8-1.9-1.9v-17.5c0-1 .8-1.9 1.9-1.9h22.5c1 0 1.9.8 1.9 1.9v8.9z"/><path class="st0" d="M428.7 970.6l-.6.6c-.2.2-.2.6 0 .9.1.1.3.2.4.2s.3-.1.4-.2l.6-.6c.2-.2.2-.6 0-.9-.1-.2-.5-.2-.8 0zM429.9 957.3c-1.7 0-3.1 1.4-3.1 3.1 0 1.7 1.4 3.1 3.1 3.1s3.1-1.4 3.1-3.1c.1-1.7-1.3-3.1-3.1-3.1zm0 5c-1 0-1.9-.8-1.9-1.9s.8-1.9 1.9-1.9 1.9.8 1.9 1.9-.8 1.9-1.9 1.9z"/><path class="st1" d="M169 748h104.6v137H169z"/><path class="st2" d="M199 844.3h45.7v8.8H199z"/><path class="st11" d="M191 861.5h61.3v5.3H191z"/><path class="st0" d="M233.8 787.6h-22.5c-1.7 0-3.1 1.4-3.1 3.1v17.5c0 1.7 1.4 3.1 3.1 3.1h22.5c1.7 0 3.1-1.4 3.1-3.1v-17.5c.1-1.7-1.3-3.1-3.1-3.1zm1.9 12l-3-3c-.5-.5-1.2-.5-1.7 0l-7.1 7.1-3.6-3.6c-.5-.5-1.3-.5-1.7 0l-3.1 3.1c-.2.2-.2.6 0 .9.2.2.6.2.9 0l3.1-3.1 3.6 3.6-2.5 2.5c-.2.2-.2.6 0 .9.1.1.3.2.4.2s.3-.1.4-.2l10.5-10.5 3.7 3.7.1.1v6.9c0 1-.8 1.9-1.9 1.9h-22.5c-1 0-1.9-.8-1.9-1.9v-17.5c0-1 .8-1.9 1.9-1.9h22.5c1 0 1.9.8 1.9 1.9v8.9z"/><path class="st0" d="M213.9 804.6l-.6.6c-.2.2-.2.6 0 .9.1.1.3.2.4.2s.3-.1.4-.2l.6-.6c.2-.2.2-.6 0-.9s-.6-.2-.8 0zM215.1 791.3c-1.7 0-3.1 1.4-3.1 3.1 0 1.7 1.4 3.1 3.1 3.1 1.7 0 3.1-1.4 3.1-3.1 0-1.7-1.4-3.1-3.1-3.1zm0 5c-1 0-1.9-.8-1.9-1.9s.8-1.9 1.9-1.9c1 0 1.9.8 1.9 1.9s-.9 1.9-1.9 1.9z"/><path class="st1" d="M286.9 748h104.6v137H286.9z"/><path class="st2" d="M316.8 844.3h45.7v8.8h-45.7z"/><path class="st11" d="M308.8 861.5h61.3v5.3h-61.3z"/><path class="st0" d="M351.7 787.6h-22.5c-1.7 0-3.1 1.4-3.1 3.1v17.5c0 1.7 1.4 3.1 3.1 3.1h22.5c1.7 0 3.1-1.4 3.1-3.1v-17.5c0-1.7-1.4-3.1-3.1-3.1zm1.9 12l-3-3c-.5-.5-1.2-.5-1.7 0l-7.1 7.1-3.6-3.6c-.5-.5-1.3-.5-1.7 0l-3.1 3.1c-.2.2-.2.6 0 .9.2.2.6.2.9 0l3.1-3.1 3.6 3.6-2.5 2.5c-.2.2-.2.6 0 .9.1.1.3.2.4.2.2 0 .3-.1.4-.2l10.5-10.5 3.7 3.7.1.1v6.9c0 1-.8 1.9-1.9 1.9h-22.5c-1 0-1.9-.8-1.9-1.9v-17.5c0-1 .8-1.9 1.9-1.9h22.5c1 0 1.9.8 1.9 1.9v8.9z"/><path class="st0" d="M331.7 804.6l-.6.6c-.2.2-.2.6 0 .9.1.1.3.2.4.2s.3-.1.4-.2l.6-.6c.2-.2.2-.6 0-.9-.1-.2-.5-.2-.8 0zM333 791.3c-1.7 0-3.1 1.4-3.1 3.1 0 1.7 1.4 3.1 3.1 3.1s3.1-1.4 3.1-3.1c0-1.7-1.4-3.1-3.1-3.1zm0 5c-1 0-1.9-.8-1.9-1.9s.8-1.9 1.9-1.9 1.9.8 1.9 1.9-.9 1.9-1.9 1.9z"/><g><path class="st1" d="M404.5 748h104.6v137H404.5z"/><path class="st2" d="M434.5 844.3h45.7v8.8h-45.7z"/><path class="st11" d="M426.5 861.5h61.3v5.3h-61.3z"/><path class="st0" d="M469.4 787.6h-22.5c-1.7 0-3.1 1.4-3.1 3.1v17.5c0 1.7 1.4 3.1 3.1 3.1h22.5c1.7 0 3.1-1.4 3.1-3.1v-17.5c0-1.7-1.4-3.1-3.1-3.1zm1.8 12l-3-3c-.5-.5-1.2-.5-1.7 0l-7.1 7.1-3.6-3.6c-.5-.5-1.3-.5-1.7 0l-3.1 3.1c-.2.2-.2.6 0 .9s.6.2.9 0l3.1-3.1 3.6 3.6-2.5 2.5c-.2.2-.2.6 0 .9.1.1.3.2.4.2s.3-.1.4-.2l10.5-10.5 3.7 3.7.1.1v6.9c0 1-.8 1.9-1.9 1.9h-22.5c-1 0-1.9-.8-1.9-1.9v-17.5c0-1 .8-1.9 1.9-1.9h22.5c1 0 1.9.8 1.9 1.9v8.9z"/><path class="st0" d="M449.4 804.6l-.6.6c-.2.2-.2.6 0 .9.1.1.3.2.4.2s.3-.1.4-.2l.6-.6c.2-.2.2-.6 0-.9s-.5-.2-.8 0zM450.6 791.3c-1.7 0-3.1 1.4-3.1 3.1 0 1.7 1.4 3.1 3.1 3.1s3.1-1.4 3.1-3.1c0-1.7-1.4-3.1-3.1-3.1zm0 5c-1 0-1.9-.8-1.9-1.9s.8-1.9 1.9-1.9 1.9.8 1.9 1.9-.8 1.9-1.9 1.9z"/></g><g><path class="st7" d="M179 1088h330.2v35.3H179z"/></g><g><path class="st1" d="M51.7 1087.8H179v35.5H51.7z"/></g><g><path class="st1" d="M51.7 1123.3h457.5V1310H51.7z"/></g><g><path class="st2" d="M247 1101h63.7v8.7H247z"/></g><g><path class="st2" d="M84.5 1101.2h63.7v8.7H84.5z"/></g><g><path class="st2" d="M375.7 1101h63.7v8.7h-63.7z"/></g><g><path class="st3" d="M68.3 1146.7h157v130h-157z"/></g><g><path class="st7" d="M241 1146.7h251.7v5.3H241z"/></g><g><path class="st7" d="M241 1164.5h251.7v5.3H241z"/></g><g><path class="st7" d="M241 1182.3h251.7v5.3H241z"/></g><g><path class="st7" d="M241 1200.2h251.7v5.3H241z"/></g><g><path class="st7" d="M241 1218h251.7v5.3H241z"/></g><g><path class="st7" d="M241 1235.8h251.7v5.3H241z"/></g><g><path class="st7" d="M241 1253.7h251.7v5.3H241z"/></g><g><path class="st7" d="M241 1271.5h251.7v5.3H241z"/></g><g><path class="st0" d="M158.1 1193.6h-22.5c-1.7 0-3.1 1.4-3.1 3.1v17.5c0 1.7 1.4 3.1 3.1 3.1h22.5c1.7 0 3.1-1.4 3.1-3.1v-17.5c0-1.7-1.4-3.1-3.1-3.1zm1.8 12l-3-3c-.5-.5-1.2-.5-1.7 0l-7.1 7.1-3.6-3.6c-.5-.5-1.3-.5-1.7 0l-3.1 3.1c-.2.2-.2.6 0 .9.2.2.6.2.9 0l3.1-3.1 3.6 3.6-2.5 2.5c-.2.2-.2.6 0 .9.1.1.3.2.4.2s.3-.1.4-.2l10.5-10.5 3.7 3.7.1.1v6.9c0 1-.8 1.9-1.9 1.9h-22.5c-1 0-1.9-.8-1.9-1.9v-17.5c0-1 .8-1.9 1.9-1.9H158c1 0 1.9.8 1.9 1.9v8.9z"/><path class="st0" d="M138.1 1210.7l-.6.6c-.2.2-.2.6 0 .9.1.1.3.2.4.2s.3-.1.4-.2l.6-.6c.2-.2.2-.6 0-.9-.1-.3-.5-.3-.8 0zM139.3 1197.4c-1.7 0-3.1 1.4-3.1 3.1s1.4 3.1 3.1 3.1 3.1-1.4 3.1-3.1-1.3-3.1-3.1-3.1zm0 5c-1 0-1.9-.8-1.9-1.9 0-1 .8-1.9 1.9-1.9s1.9.8 1.9 1.9c0 1-.8 1.9-1.9 1.9z"/></g><g><path fill="#d9dee3" d="M0 1349h562.3v171.3H0z"/></g><g><path class="st13" d="M223.8 1373.5h112v6h-112z"/></g><g><path class="st13" d="M223.8 1391.3h112v6h-112z"/></g><g><path class="st13" d="M223.8 1409.2h112v6h-112z"/></g><g><path class="st13" d="M223.8 1427h112v6h-112z"/></g><g><path class="st13" d="M223.8 1488.5h112v6h-112z"/></g><g><path class="st13" d="M51.7 1373.5h112v6h-112z"/></g><g><path class="st13" d="M51.7 1391.3h112v6h-112z"/></g><g><path class="st13" d="M51.7 1409.2h112v6h-112z"/></g><g><path class="st13" d="M51.7 1427h112v6h-112z"/></g><g><path class="st13" d="M396.7 1373.5h112v6h-112z"/></g><g><path class="st13" d="M396.7 1391.3h112v6h-112z"/></g><g><path class="st13" d="M396.7 1409.2h112v6h-112z"/></g><g><path class="st13" d="M396.7 1427h112v6h-112z"/></g><g><path class="st13" d="M303.4 1457.5H319v15.6h-15.6z"/></g><g><path class="st13" d="M283.1 1457.5h15.6v15.6h-15.6z"/></g><g><path class="st13" d="M262.8 1457.5h15.6v15.6h-15.6z"/></g><g><path class="st13" d="M242.5 1457.5h15.6v15.6h-15.6z"/></g><g><circle class="st14" cx="44.3" cy="30.4" r="17.6"/><path class="st0" d="M45.8 37.3H44V25l-2.4 2.5-1.1-1.1 3.7-3.8h1.6v14.7z"/></g><g><circle class="st14" cx="465.8" cy="30" r="17.6"/><path class="st0" d="M470.9 36.9h-10.1v-1.5c1.5-1.2 2.7-2.2 3.6-2.9.8-.7 1.7-1.5 2.4-2.3s1.3-1.5 1.7-2.1c.3-.6.5-1.2.5-1.9 0-.9-.3-1.5-.9-2s-1.3-.7-2.2-.7c-1.7 0-3 .6-4 1.8l-1.1-1.2c.6-.7 1.3-1.3 2.2-1.7.9-.4 1.9-.6 2.9-.6 1.3 0 2.5.4 3.5 1.1s1.5 1.8 1.5 3.2c0 1.4-.6 2.7-1.8 4.1-1.2 1.4-3 3-5.4 4.9h7.2v1.8z"/></g><g><circle class="st14" cx="194.8" cy="65.7" r="17.6"/><path class="st0" d="M195.5 72.9c-1.2 0-2.2-.2-3.1-.7-.9-.5-1.6-1-2.1-1.7l1.1-1.1c.4.6 1 1.1 1.7 1.4.7.4 1.5.5 2.4.5 1.1 0 1.9-.2 2.5-.7.6-.5.9-1.2.9-2 0-.9-.3-1.5-1-2-.7-.4-1.5-.6-2.7-.6h-1.5v-1.7h1.5c1 0 1.8-.2 2.5-.6s1-1 1-1.8-.3-1.4-.9-1.8c-.6-.4-1.4-.7-2.3-.7-1.5 0-2.8.6-3.9 1.8l-1-1.1c1.2-1.5 2.9-2.3 5-2.3 1.5 0 2.6.3 3.6 1 .9.7 1.4 1.7 1.4 2.9 0 1-.3 1.7-1 2.3-.6.6-1.4.9-2.2 1.1.8.1 1.6.4 2.3 1.1.7.6 1.1 1.5 1.1 2.6 0 1.2-.5 2.3-1.4 3-1.1.7-2.4 1.1-3.9 1.1z"/></g><g><circle class="st14" cx="89.8" cy="105.6" r="17.6"/><path class="st0" d="M93.1 112.6h-1.8v-3.7h-7v-1.5l6.3-9.4h2.5v9.3h2.1v1.6h-2.1v3.7zm-1.8-5.3v-7.7l-5.1 7.7h5.1z"/></g><g><circle class="st14" cx="44.3" cy="313.4" r="17.6"/><path class="st0" d="M44.9 320.6c-1 0-1.8-.2-2.6-.6-.7-.4-1.3-1-1.8-1.7-.4-.7-.8-1.5-1-2.4-.2-.9-.3-1.8-.3-2.9 0-1.4.2-2.6.6-3.7.4-1.1 1.1-2 2-2.8.9-.7 2-1.1 3.4-1.1 1.7 0 3 .6 4.1 1.8l-.9 1.4c-.9-1-1.9-1.5-3.1-1.5-.9 0-1.7.3-2.3.9-.6.6-1.1 1.3-1.4 2.1-.3.8-.4 1.8-.4 2.8v.6c.4-.6.9-1.1 1.7-1.6.8-.5 1.6-.7 2.5-.7 1.4 0 2.5.4 3.4 1.2s1.4 2 1.4 3.5c0 1.3-.5 2.5-1.4 3.4-1.1.9-2.4 1.3-3.9 1.3zm-.1-1.6c1.1 0 1.9-.3 2.5-1 .6-.6.9-1.4.9-2.1 0-1-.3-1.8-.9-2.4s-1.4-.8-2.4-.8c-.7 0-1.4.2-2.1.6s-1.2.9-1.6 1.6c.1 1.1.5 2 1.1 2.8s1.3 1.3 2.5 1.3z"/></g><g><circle class="st14" cx="262.8" cy="337" r="17.6"/><path class="st0" d="M262.3 344h-2l5.9-13h-7.9v-1.6h10v1.3l-6 13.3z"/></g><g><circle class="st14" cx="89.3" cy="637.5" r="17.6"/><path class="st0" d="M93.3 643.6c-1 .7-2.3 1.1-3.8 1.1s-2.7-.4-3.8-1.1c-1-.7-1.5-1.7-1.5-2.9 0-.9.3-1.7 1-2.4s1.5-1.2 2.5-1.5c-.9-.3-1.7-.7-2.3-1.3-.6-.6-.9-1.3-.9-2.2 0-1.2.5-2.2 1.5-2.8 1-.7 2.2-1 3.5-1 1.3 0 2.5.3 3.5 1s1.5 1.6 1.5 2.8c0 .9-.3 1.6-.9 2.2-.6.6-1.4 1-2.4 1.3 1 .3 1.8.8 2.5 1.5s1 1.5 1 2.4c.1 1.2-.4 2.2-1.4 2.9zm-3.7-.6c.9 0 1.7-.2 2.4-.7.7-.5 1-1.1 1-1.8 0-.6-.2-1.1-.7-1.6s-.9-.8-1.4-.9c-.5-.2-.9-.3-1.3-.3s-.8.2-1.3.3c-.5.2-.9.5-1.4.9s-.7 1-.7 1.6c0 .8.3 1.4 1 1.8.6.5 1.4.7 2.4.7zm0-6.9c.3 0 .6-.1.9-.2.3-.1.6-.2 1-.4s.7-.4.9-.8c.2-.3.4-.7.4-1.1 0-.7-.3-1.3-.9-1.8-.6-.4-1.4-.7-2.3-.7-.9 0-1.7.2-2.3.7-.6.4-.9 1-.9 1.8 0 .4.1.8.4 1.1.2.3.5.6.9.8s.7.3 1 .4c.3.1.6.1.9.2z"/></g><g><circle class="st14" cx="262.9" cy="637.5" r="17.6"/><path class="st0" d="M262.7 644.6c-1.7 0-3-.6-4.1-1.8l.9-1.4c.9 1 1.9 1.5 3.1 1.5.9 0 1.7-.3 2.4-.9s1.1-1.3 1.4-2.1c.3-.8.4-1.7.4-2.7v-.6c-.4.6-.9 1.1-1.7 1.6s-1.6.7-2.4.7c-1.4 0-2.5-.4-3.5-1.2-.9-.8-1.4-2-1.4-3.5 0-1.3.5-2.4 1.4-3.4s2.2-1.4 3.7-1.4c1 0 1.9.2 2.6.6.7.4 1.3 1 1.8 1.7s.8 1.5 1 2.4c.2.9.3 1.8.3 2.9 0 1.4-.2 2.6-.6 3.7-.4 1.1-1.1 2-2 2.8-.9.8-2 1.1-3.3 1.1zm.4-7.2c.7 0 1.4-.2 2.1-.6.7-.4 1.2-.9 1.6-1.6-.1-1.1-.4-2-1-2.9-.6-.8-1.5-1.2-2.6-1.2-1 0-1.9.3-2.5 1-.6.6-.9 1.4-.9 2.1 0 1 .3 1.8.9 2.4.6.5 1.4.8 2.4.8z"/></g><g><circle class="st14" cx="88.8" cy="785.6" r="17.6"/><path class="st0" d="M85.4 792.5h-1.8v-12.3l-2.4 2.5-1.1-1.1 3.7-3.8h1.6v14.7zM93.9 792.8c-1 0-1.8-.2-2.6-.7s-1.3-1-1.8-1.8c-.4-.7-.8-1.6-1-2.4-.2-.9-.3-1.8-.3-2.7s.1-1.8.3-2.7c.2-.9.5-1.7 1-2.4.4-.7 1-1.3 1.8-1.8.7-.4 1.6-.7 2.6-.7s1.8.2 2.6.7c.7.4 1.3 1 1.8 1.8.4.7.8 1.5 1 2.4.2.9.3 1.8.3 2.7s-.1 1.8-.3 2.7c-.2.9-.5 1.7-1 2.4-.4.7-1 1.3-1.8 1.8s-1.7.7-2.6.7zm-2.2-2.5c.6.6 1.3.9 2.2.9s1.6-.3 2.2-.9c.6-.6 1-1.3 1.2-2.2.2-.9.3-1.8.3-2.9s-.1-2-.3-2.9c-.2-.8-.6-1.6-1.2-2.2-.6-.6-1.3-.9-2.2-.9s-1.6.3-2.2.9c-.6.6-1 1.3-1.2 2.2-.2.9-.3 1.8-.3 2.9s.1 2 .3 2.9c.2.8.6 1.5 1.2 2.2z"/></g><g><circle class="st14" cx="90.6" cy="951.6" r="17.6"/><path class="st0" d="M88.1 958.5h-1.8v-12.3l-2.4 2.5-1.1-1.1 3.7-3.8h1.6v14.7zM95.6 958.5h-1.8v-12.3l-2.4 2.5-1.1-1.1 3.7-3.8h1.6v14.7z"/></g><g><circle class="st14" cx="90.6" cy="1115.6" r="17.6"/><path class="st0" d="M86.1 1122.5h-1.8v-12.3l-2.4 2.5-1.1-1.1 3.7-3.8h1.6v14.7zM99.1 1122.5H89v-1.5c1.5-1.2 2.7-2.2 3.6-2.9.8-.7 1.7-1.5 2.4-2.3.8-.8 1.3-1.5 1.7-2.1.3-.6.5-1.2.5-1.9 0-.9-.3-1.5-.9-2s-1.3-.7-2.2-.7c-1.7 0-3 .6-4 1.8l-1.1-1.2c.6-.7 1.3-1.3 2.2-1.7s1.9-.6 2.9-.6c1.3 0 2.5.4 3.5 1.1s1.5 1.8 1.5 3.2c0 1.4-.6 2.7-1.8 4.1-1.2 1.4-3 3-5.4 4.9h7.2v1.8z"/></g><g><circle class="st14" cx="105.6" cy="1183.5" r="17.6"/><path class="st0" d="M101.1 1190.4h-1.8v-12.3l-2.4 2.5-1.1-1.1 3.7-3.8h1.6v14.7zM108.7 1190.7c-1.2 0-2.2-.2-3.1-.7-.9-.5-1.6-1-2.1-1.7l1.1-1.1c.4.6 1 1.1 1.7 1.4.7.4 1.5.5 2.4.5 1.1 0 1.9-.2 2.5-.7.6-.5.9-1.2.9-2 0-.9-.3-1.5-1-2-.7-.4-1.5-.6-2.7-.6h-1.5v-1.7h1.5c1 0 1.8-.2 2.5-.6s1-1 1-1.8-.3-1.4-.9-1.8c-.6-.4-1.4-.7-2.3-.7-1.5 0-2.8.6-3.9 1.8l-1-1.1c1.2-1.5 2.9-2.3 5-2.3 1.5 0 2.6.3 3.6 1 .9.7 1.4 1.7 1.4 2.9 0 1-.3 1.7-1 2.3-.6.6-1.4.9-2.2 1.1.8.1 1.6.4 2.3 1.1s1.1 1.5 1.1 2.6c0 1.2-.5 2.3-1.4 3-1 .7-2.3 1.1-3.9 1.1z"/></g><g><circle class="st14" cx="278.6" cy="1182.3" r="17.6"/><path class="st0" d="M274.2 1189.3h-1.8V1177l-2.4 2.5-1.1-1.1 3.7-3.8h1.6v14.7zM285.4 1189.3h-1.8v-3.7h-7v-1.5l6.3-9.4h2.5v9.3h2.1v1.6h-2.1v3.7zm-1.8-5.4v-7.7l-5.1 7.7h5.1z"/></g><g><circle class="st14" cx="105.6" cy="1379.5" r="17.6"/><path class="st0" d="M101.1 1386.4h-1.8v-12.3l-2.4 2.5-1.1-1.1 3.7-3.8h1.6v14.7zM109.5 1386.7c-2.3 0-4-.8-5.2-2.4l1.1-1.2c1 1.3 2.4 1.9 4 1.9 1 0 1.8-.3 2.4-.9.6-.6.9-1.3.9-2.2 0-1-.3-1.7-.9-2.3-.6-.6-1.4-.9-2.4-.9-1.3 0-2.4.5-3.4 1.4l-1.3-.5v-7.9h9v1.6h-7.1v5.1c.9-.9 2-1.3 3.4-1.3 1.3 0 2.4.4 3.3 1.3.9.8 1.4 2 1.4 3.4 0 1.5-.5 2.6-1.5 3.5s-2.2 1.4-3.7 1.4z"/></g><g><circle class="st14" cx="238.9" cy="1460.8" r="17.6"/><path class="st0" d="M234.5 1467.7h-1.8v-12.3l-2.4 2.5-1.1-1.1 3.7-3.8h1.6v14.7zM243 1467.9c-1 0-1.8-.2-2.6-.6s-1.3-1-1.8-1.7c-.4-.7-.8-1.5-1-2.4-.2-.9-.3-1.8-.3-2.9 0-1.4.2-2.6.6-3.7.4-1.1 1.1-2 2-2.8.9-.7 2-1.1 3.4-1.1 1.7 0 3 .6 4.1 1.8l-.9 1.4c-.9-1-1.9-1.5-3.1-1.5-.9 0-1.7.3-2.3.9-.6.6-1.1 1.3-1.4 2.1-.3.8-.4 1.8-.4 2.8v.6c.4-.6.9-1.1 1.7-1.6s1.6-.7 2.5-.7c1.4 0 2.5.4 3.4 1.2.9.8 1.4 2 1.4 3.5 0 1.3-.5 2.5-1.4 3.4-1.1.9-2.4 1.3-3.9 1.3zm-.1-1.6c1.1 0 1.9-.3 2.5-1 .6-.6.9-1.4.9-2.1 0-1-.3-1.8-.9-2.4-.6-.5-1.4-.8-2.4-.8-.7 0-1.4.2-2.1.6-.7.4-1.2.9-1.6 1.6.1 1.1.5 2 1.1 2.8.5.9 1.3 1.3 2.5 1.3z"/></g><g><circle class="st14" cx="165.1" cy="151.6" r="17.6"/><path class="st0" d="M165.6 158.8c-2.3 0-4-.8-5.2-2.4l1.1-1.2c1 1.3 2.4 1.9 4 1.9 1 0 1.8-.3 2.4-.9.6-.6.9-1.3.9-2.2 0-1-.3-1.7-.9-2.3-.6-.6-1.4-.9-2.4-.9-1.3 0-2.4.5-3.4 1.4l-1.3-.5v-7.9h9v1.6h-7.1v5.1c.9-.9 2-1.3 3.4-1.3 1.3 0 2.4.4 3.3 1.3.9.8 1.4 2 1.4 3.4 0 1.5-.5 2.6-1.5 3.5-1 1-2.2 1.4-3.7 1.4z"/></g></svg>