<svg id="Layer_1" xmlns="http://www.w3.org/2000/svg" viewBox="0 0 562 2378.3"><style>.st0{fill:#fff}.st2{fill:#e2e4e7}.st3{fill:#acb2b8}.st4{fill:#c2c8cd}.st8{fill:#888c90}.st10{fill:#abb1b7}.st11{fill:#ced3d6}.st12{fill:#adb3b9}.st13{fill:#2d85dd}.st14{fill:#cdd2d5}.st16{fill:#afb3ba}.st17{fill:#c2c7cc}.st18{fill:#cfd4d7}.st19{fill:#a8afb5}.st20{fill:#ccd1d4}.st21{fill:#ebebeb}.st22{fill:#2e86dd}</style><path class="st0" d="M0 .6h562.3v1520.7H0z"/><path class="st2" d="M-1 .1h563v271.4H-1z"/><path class="st3" d="M177 124.3h208v15.5H177z"/><path class="st4" d="M143 164h277.3v10H143zM143 150.3h277.3v10H143z"/><path class="st3" d="M491.2 149.3l-13.6-9.4c-.1-.1-.3-.1-.5 0s-.3.2-.3.4V159c0 .2.1.3.3.4.1 0 .1.1.2.1s.2 0 .3-.1l13.6-9.4c.1-.1.2-.2.2-.4s-.1-.2-.2-.3zm-13.4 8.8v-16.9l12.3 8.5-12.3 8.4zM68.9 149.7c0 .2.1.3.2.4l13.6 9.4c.1.1.2.1.3.1.1 0 .1 0 .2-.1.2-.1.3-.2.3-.4v-18.7c0-.2-.1-.3-.3-.4-.2-.1-.3-.1-.5 0l-13.6 9.4c-.1 0-.2.1-.2.3zm1.3 0l12.3-8.5v16.9l-12.3-8.4zM128.5 20.4H440V40H128.5zM487.5 20.4h20.7V40h-20.7zM464.2 20.4h20.7V40h-20.7zM52 20.1h46.6v19.6H52z"/><text transform="translate(61.938 33.813)" font-size="12" font-family="MyriadPro-Regular" fill="#fcfcfc">Logo</text><path class="st8" d="M194.1 27.3h34.8v5.2h-34.8zM243.2 27.4H278v5.2h-34.8zM290.4 27.5h34.8v5.2h-34.8zM339.1 27.2h34.8v5.2h-34.8zM388.1 27.5h34.8v5.2h-34.8zM145.5 27.6h34.8v5.2h-34.8z"/><path fill="#fff" stroke="#acb2b8" stroke-miterlimit="10" d="M209.8 42.5l-2.8 5.3h-11.2v48.7h77.3v-49h-61z"/><path class="st3" d="M202.8 58.2h61.4v5.6h-61.4zM202.8 80h61.4v5.6h-61.4zM202.8 69.1h61.4v5.6h-61.4z"/><path class="st2" d="M225.3 300.7h283.8V572H225.3z"/><path class="st10" d="M322 326.3h88.7V337H322z"/><path class="st11" d="M241.7 357.3h250v5.7h-250zM241.7 375.4h250v5.7h-250zM241.3 393.4h250v5.7h-250zM241.3 411.5h250v5.7h-250zM241.3 429.5h250v5.7h-250zM241.3 447.6h250v5.7h-250zM241.3 465.6h250v5.7h-250zM241.3 483.7h250v5.7h-250zM241.3 501.7h250v5.7h-250zM241.3 519.8h250v5.7h-250zM241.7 537.8h250v5.7h-250z"/><path class="st2" d="M51.2 300.7H208v26.5H51.2z"/><path class="st3" d="M62.8 311.4h55v5.7h-55z"/><path class="st3" d="M196.7 313.1l-.5-.5-1.7 1.7-1.8-1.7-.5.5 2.3 2.3z" id="chevron-right"/><path class="st2" d="M51.2 395.2H208v26.5H51.2z"/><path class="st3" d="M62.8 405.9h55v5.7h-55z"/><path class="st3" d="M196.7 407.6l-.5-.5-1.7 1.7-1.8-1.7-.5.5 2.3 2.3z" id="chevron-right_1_"/><path class="st2" d="M51.2 425.5H208V452H51.2z"/><path class="st3" d="M62.8 436.2h55v5.7h-55z"/><path class="st3" d="M196.7 437.9l-.5-.6-1.7 1.8-1.8-1.8-.5.6 2.3 2.2z" id="chevron-right_2_"/><path class="st2" d="M51.2 455.7H208v26.5H51.2z"/><path class="st3" d="M62.8 466.4h55v5.7h-55z"/><path class="st3" d="M196.7 468.1l-.5-.5-1.7 1.7-1.8-1.7-.5.5 2.3 2.2z" id="chevron-right_3_"/><path class="st2" d="M51.2 485.9H208v26.5H51.2z"/><path class="st3" d="M62.8 496.6h55v5.7h-55z"/><path class="st3" d="M196.7 498.3l-.5-.5-1.7 1.7-1.8-1.7-.5.5 2.3 2.3z" id="chevron-right_4_"/><path class="st2" d="M51.2 516.2H208v26.5H51.2z"/><path class="st3" d="M62.8 526.9h55v5.7h-55z"/><path class="st3" d="M196.7 528.6l-.5-.6-1.7 1.8-1.8-1.8-.5.6 2.3 2.2z" id="chevron-right_5_"/><path class="st2" d="M51.7 546.4h156.8v26.5H51.7z"/><path class="st3" d="M63.2 557.1h55v5.7h-55z"/><path class="st3" d="M197.1 558.8l-.5-.5-1.7 1.7-1.8-1.7-.5.5 2.3 2.2z" id="chevron-right_6_"/><path class="st12" d="M71 336.1h125v4.6H71zM71 350.7h125v4.6H71zM71 365.3h125v4.6H71zM71 379.9h125v4.6H71z"/><circle class="st13" cx="65" cy="337.9" r="1.5"/><circle class="st13" cx="65" cy="353" r="1.5"/><circle class="st13" cx="65" cy="367.6" r="1.5"/><circle class="st13" cx="65" cy="382.8" r="1.5"/><path class="st2" d="M51.4 593H156v137H51.4z"/><path class="st3" d="M81.3 689.3H127v8.8H81.3z"/><path class="st14" d="M73.3 706.5h61.3v5.3H73.3z"/><path class="st0" d="M116.2 632.6H93.7c-1.7 0-3.1 1.4-3.1 3.1v17.5c0 1.7 1.4 3.1 3.1 3.1h22.5c1.7 0 3.1-1.4 3.1-3.1v-17.5c0-1.7-1.4-3.1-3.1-3.1zm1.8 12l-3-3c-.5-.5-1.2-.5-1.7 0l-7.1 7.1-3.6-3.6c-.5-.5-1.3-.5-1.7 0l-3.1 3.1c-.2.2-.2.6 0 .9s.6.2.9 0l3.1-3.1 3.6 3.6-2.5 2.5c-.2.2-.2.6 0 .9.1.1.3.2.4.2s.3-.1.4-.2l10.5-10.5 3.7 3.7.1.1v6.9c0 1-.8 1.9-1.9 1.9H93.7c-1 0-1.9-.8-1.9-1.9v-17.5c0-1 .8-1.9 1.9-1.9h22.5c1 0 1.9.8 1.9 1.9v8.9z"/><path class="st0" d="M96.2 649.6l-.6.6c-.2.2-.2.6 0 .9.1.1.3.2.4.2s.3-.1.4-.2l.6-.6c.2-.2.2-.6 0-.9s-.5-.2-.8 0zM97.4 636.3c-1.7 0-3.1 1.4-3.1 3.1 0 1.7 1.4 3.1 3.1 3.1 1.7 0 3.1-1.4 3.1-3.1.1-1.7-1.3-3.1-3.1-3.1zm0 5c-1 0-1.9-.8-1.9-1.9s.8-1.9 1.9-1.9c1 0 1.9.8 1.9 1.9s-.8 1.9-1.9 1.9z"/><path class="st4" d="M51.7 2024h144v103.1h-144z"/><path class="st3" d="M52 2139.3h90.9v8.8H52z"/><path class="st14" d="M52 2152.5h143.7v5.3H52zM52 2163h143.7v5.3H52z"/><path class="st0" d="M135.8 2063.6h-22.5c-1.7 0-3.1 1.4-3.1 3.1v17.5c0 1.7 1.4 3.1 3.1 3.1h22.5c1.7 0 3.1-1.4 3.1-3.1v-17.5c.1-1.7-1.3-3.1-3.1-3.1zm1.9 12l-3-3c-.5-.5-1.2-.5-1.7 0l-7.1 7.1-3.6-3.6c-.5-.5-1.3-.5-1.7 0l-3.1 3.1c-.2.2-.2.6 0 .9.2.2.6.2.9 0l3.1-3.1 3.6 3.6-2.5 2.5c-.2.2-.2.6 0 .9.1.1.3.2.4.2s.3-.1.4-.2l10.5-10.5 3.7 3.7.1.1v6.9c0 1-.8 1.9-1.9 1.9h-22.5c-1 0-1.9-.8-1.9-1.9v-17.5c0-1 .8-1.9 1.9-1.9h22.5c1 0 1.9.8 1.9 1.9v8.9z"/><path class="st0" d="M115.9 2080.6l-.6.6c-.2.2-.2.6 0 .9.1.1.3.2.4.2s.3-.1.4-.2l.6-.6c.2-.2.2-.6 0-.9s-.6-.2-.8 0zM117.1 2067.3c-1.7 0-3.1 1.4-3.1 3.1s1.4 3.1 3.1 3.1c1.7 0 3.1-1.4 3.1-3.1s-1.4-3.1-3.1-3.1zm0 5c-1 0-1.9-.8-1.9-1.9s.8-1.9 1.9-1.9c1 0 1.9.8 1.9 1.9s-.9 1.9-1.9 1.9z"/><path class="st4" d="M209 2024h144v103.1H209z"/><path class="st3" d="M209.3 2139.3h90.9v8.8h-90.9z"/><path class="st14" d="M209.3 2152.5H353v5.3H209.3zM209.3 2163H353v5.3H209.3z"/><path class="st0" d="M293.2 2063.6h-22.5c-1.7 0-3.1 1.4-3.1 3.1v17.5c0 1.7 1.4 3.1 3.1 3.1h22.5c1.7 0 3.1-1.4 3.1-3.1v-17.5c0-1.7-1.4-3.1-3.1-3.1zm1.8 12l-3-3c-.5-.5-1.2-.5-1.7 0l-7.1 7.1-3.6-3.6c-.5-.5-1.3-.5-1.7 0l-3.1 3.1c-.2.2-.2.6 0 .9.2.2.6.2.9 0l3.1-3.1 3.6 3.6-2.5 2.5c-.2.2-.2.6 0 .9.1.1.3.2.4.2s.3-.1.4-.2l10.5-10.5 3.7 3.7.1.1v6.9c0 1-.8 1.9-1.9 1.9h-22.5c-1 0-1.9-.8-1.9-1.9v-17.5c0-1 .8-1.9 1.9-1.9h22.5c1 0 1.9.8 1.9 1.9v8.9z"/><path class="st0" d="M273.2 2080.6l-.6.6c-.2.2-.2.6 0 .9.1.1.3.2.4.2s.3-.1.4-.2l.6-.6c.2-.2.2-.6 0-.9s-.5-.2-.8 0zM274.4 2067.3c-1.7 0-3.1 1.4-3.1 3.1s1.4 3.1 3.1 3.1 3.1-1.4 3.1-3.1-1.3-3.1-3.1-3.1zm0 5c-1 0-1.9-.8-1.9-1.9s.8-1.9 1.9-1.9 1.9.8 1.9 1.9-.8 1.9-1.9 1.9z"/><path class="st4" d="M364.5 2024h144v103.1h-144z"/><path class="st3" d="M364.8 2139.3h90.9v8.8h-90.9z"/><path class="st14" d="M364.8 2152.5h143.7v5.3H364.8zM364.8 2163h143.7v5.3H364.8z"/><path class="st0" d="M448.7 2063.6h-22.5c-1.7 0-3.1 1.4-3.1 3.1v17.5c0 1.7 1.4 3.1 3.1 3.1h22.5c1.7 0 3.1-1.4 3.1-3.1v-17.5c0-1.7-1.4-3.1-3.1-3.1zm1.8 12l-3-3c-.5-.5-1.2-.5-1.7 0l-7.1 7.1-3.6-3.6c-.5-.5-1.3-.5-1.7 0l-3.1 3.1c-.2.2-.2.6 0 .9.2.2.6.2.9 0l3.1-3.1 3.6 3.6-2.5 2.5c-.2.2-.2.6 0 .9.1.1.3.2.4.2.2 0 .3-.1.4-.2l10.5-10.5 3.7 3.7.1.1v6.9c0 1-.8 1.9-1.9 1.9h-22.5c-1 0-1.9-.8-1.9-1.9v-17.5c0-1 .8-1.9 1.9-1.9h22.5c1 0 1.9.8 1.9 1.9v8.9z"/><path class="st0" d="M428.7 2080.6l-.6.6c-.2.2-.2.6 0 .9.1.1.3.2.4.2s.3-.1.4-.2l.6-.6c.2-.2.2-.6 0-.9-.1-.2-.5-.2-.8 0zM429.9 2067.3c-1.7 0-3.1 1.4-3.1 3.1s1.4 3.1 3.1 3.1 3.1-1.4 3.1-3.1-1.3-3.1-3.1-3.1zm0 5c-1 0-1.9-.8-1.9-1.9s.8-1.9 1.9-1.9 1.9.8 1.9 1.9-.8 1.9-1.9 1.9z"/><path class="st2" d="M169 593h104.6v137H169z"/><path class="st3" d="M199 689.3h45.7v8.8H199z"/><path class="st14" d="M191 706.5h61.3v5.3H191z"/><path class="st0" d="M233.8 632.6h-22.5c-1.7 0-3.1 1.4-3.1 3.1v17.5c0 1.7 1.4 3.1 3.1 3.1h22.5c1.7 0 3.1-1.4 3.1-3.1v-17.5c.1-1.7-1.3-3.1-3.1-3.1zm1.9 12l-3-3c-.5-.5-1.2-.5-1.7 0l-7.1 7.1-3.6-3.6c-.5-.5-1.3-.5-1.7 0l-3.1 3.1c-.2.2-.2.6 0 .9.2.2.6.2.9 0l3.1-3.1 3.6 3.6-2.5 2.5c-.2.2-.2.6 0 .9.1.1.3.2.4.2s.3-.1.4-.2l10.5-10.5 3.7 3.7.1.1v6.9c0 1-.8 1.9-1.9 1.9h-22.5c-1 0-1.9-.8-1.9-1.9v-17.5c0-1 .8-1.9 1.9-1.9h22.5c1 0 1.9.8 1.9 1.9v8.9z"/><path class="st0" d="M213.9 649.6l-.6.6c-.2.2-.2.6 0 .9.1.1.3.2.4.2s.3-.1.4-.2l.6-.6c.2-.2.2-.6 0-.9s-.6-.2-.8 0zM215.1 636.3c-1.7 0-3.1 1.4-3.1 3.1 0 1.7 1.4 3.1 3.1 3.1 1.7 0 3.1-1.4 3.1-3.1 0-1.7-1.4-3.1-3.1-3.1zm0 5c-1 0-1.9-.8-1.9-1.9s.8-1.9 1.9-1.9c1 0 1.9.8 1.9 1.9s-.9 1.9-1.9 1.9z"/><path class="st2" d="M286.9 593h104.6v137H286.9z"/><path class="st3" d="M316.8 689.3h45.7v8.8h-45.7z"/><path class="st14" d="M308.8 706.5h61.3v5.3h-61.3z"/><path class="st0" d="M351.7 632.6h-22.5c-1.7 0-3.1 1.4-3.1 3.1v17.5c0 1.7 1.4 3.1 3.1 3.1h22.5c1.7 0 3.1-1.4 3.1-3.1v-17.5c0-1.7-1.4-3.1-3.1-3.1zm1.9 12l-3-3c-.5-.5-1.2-.5-1.7 0l-7.1 7.1-3.6-3.6c-.5-.5-1.3-.5-1.7 0l-3.1 3.1c-.2.2-.2.6 0 .9.2.2.6.2.9 0l3.1-3.1 3.6 3.6-2.5 2.5c-.2.2-.2.6 0 .9.1.1.3.2.4.2.2 0 .3-.1.4-.2l10.5-10.5 3.7 3.7.1.1v6.9c0 1-.8 1.9-1.9 1.9h-22.5c-1 0-1.9-.8-1.9-1.9v-17.5c0-1 .8-1.9 1.9-1.9h22.5c1 0 1.9.8 1.9 1.9v8.9z"/><path class="st0" d="M331.7 649.6l-.6.6c-.2.2-.2.6 0 .9.1.1.3.2.4.2s.3-.1.4-.2l.6-.6c.2-.2.2-.6 0-.9-.1-.2-.5-.2-.8 0zM333 636.3c-1.7 0-3.1 1.4-3.1 3.1 0 1.7 1.4 3.1 3.1 3.1s3.1-1.4 3.1-3.1c0-1.7-1.4-3.1-3.1-3.1zm0 5c-1 0-1.9-.8-1.9-1.9s.8-1.9 1.9-1.9 1.9.8 1.9 1.9-.9 1.9-1.9 1.9z"/><path class="st2" d="M404.5 593h104.6v137H404.5z"/><path class="st3" d="M434.5 689.3h45.7v8.8h-45.7z"/><path class="st14" d="M426.5 706.5h61.3v5.3h-61.3z"/><path class="st0" d="M469.4 632.6h-22.5c-1.7 0-3.1 1.4-3.1 3.1v17.5c0 1.7 1.4 3.1 3.1 3.1h22.5c1.7 0 3.1-1.4 3.1-3.1v-17.5c0-1.7-1.4-3.1-3.1-3.1zm1.8 12l-3-3c-.5-.5-1.2-.5-1.7 0l-7.1 7.1-3.6-3.6c-.5-.5-1.3-.5-1.7 0l-3.1 3.1c-.2.2-.2.6 0 .9s.6.2.9 0l3.1-3.1 3.6 3.6-2.5 2.5c-.2.2-.2.6 0 .9.1.1.3.2.4.2s.3-.1.4-.2l10.5-10.5 3.7 3.7.1.1v6.9c0 1-.8 1.9-1.9 1.9h-22.5c-1 0-1.9-.8-1.9-1.9v-17.5c0-1 .8-1.9 1.9-1.9h22.5c1 0 1.9.8 1.9 1.9v8.9z"/><path class="st0" d="M449.4 649.6l-.6.6c-.2.2-.2.6 0 .9.1.1.3.2.4.2s.3-.1.4-.2l.6-.6c.2-.2.2-.6 0-.9s-.5-.2-.8 0zM450.6 636.3c-1.7 0-3.1 1.4-3.1 3.1 0 1.7 1.4 3.1 3.1 3.1s3.1-1.4 3.1-3.1c0-1.7-1.4-3.1-3.1-3.1zm0 5c-1 0-1.9-.8-1.9-1.9s.8-1.9 1.9-1.9 1.9.8 1.9 1.9-.8 1.9-1.9 1.9z"/><path class="st11" d="M179 1351h330.2v35.3H179z"/><path class="st2" d="M51.7 1351H179v35.3H51.7zM51.7 1386.4h457.5v186.7H51.7z"/><path class="st3" d="M247 1364h63.7v8.7H247zM84.5 1364.2h63.7v8.7H84.5zM375.7 1364h63.7v8.7h-63.7z"/><path class="st4" d="M68.3 1409.7h157v130h-157z"/><path class="st11" d="M241 1409.7h251.7v5.3H241zM241 1427.5h251.7v5.3H241zM241 1445.4h251.7v5.3H241zM241 1463.2h251.7v5.3H241zM241 1481h251.7v5.3H241zM241 1498.9h251.7v5.3H241zM241 1516.7h251.7v5.3H241zM241 1534.5h251.7v5.3H241z"/><path class="st0" d="M158.1 1456.7h-22.5c-1.7 0-3.1 1.4-3.1 3.1v17.5c0 1.7 1.4 3.1 3.1 3.1h22.5c1.7 0 3.1-1.4 3.1-3.1v-17.5c0-1.7-1.4-3.1-3.1-3.1zm1.8 12l-3-3c-.5-.5-1.2-.5-1.7 0l-7.1 7.1-3.6-3.6c-.5-.5-1.3-.5-1.7 0l-3.1 3.1c-.2.2-.2.6 0 .9.2.2.6.2.9 0l3.1-3.1 3.6 3.6-2.5 2.5c-.2.2-.2.6 0 .9.1.1.3.2.4.2s.3-.1.4-.2l10.5-10.5 3.7 3.7.1.1v6.9c0 1-.8 1.9-1.9 1.9h-22.5c-1 0-1.9-.8-1.9-1.9v-17.5c0-1 .8-1.9 1.9-1.9H158c1 0 1.9.8 1.9 1.9v8.9z"/><path class="st0" d="M138.1 1473.7l-.6.6c-.2.2-.2.6 0 .9.1.1.3.2.4.2s.3-.1.4-.2l.6-.6c.2-.2.2-.6 0-.9-.1-.2-.5-.2-.8 0zM139.3 1460.4c-1.7 0-3.1 1.4-3.1 3.1 0 1.7 1.4 3.1 3.1 3.1s3.1-1.4 3.1-3.1c.1-1.7-1.3-3.1-3.1-3.1zm0 5c-1 0-1.9-.8-1.9-1.9 0-1 .8-1.9 1.9-1.9s1.9.8 1.9 1.9c0 1.1-.8 1.9-1.9 1.9z"/><path fill="#d9dee3" d="M0 2207h562.3v171.3H0z"/><path class="st16" d="M223.8 2231.5h112v6h-112zM223.8 2249.3h112v6h-112zM223.8 2267.2h112v6h-112zM223.8 2285h112v6h-112zM223.8 2346.5h112v6h-112zM51.7 2231.5h112v6h-112zM51.7 2249.3h112v6h-112zM51.7 2267.2h112v6h-112zM51.7 2285h112v6h-112zM396.7 2231.5h112v6h-112zM396.7 2249.3h112v6h-112zM396.7 2267.2h112v6h-112zM396.7 2285h112v6h-112zM303.4 2315.5H319v15.6h-15.6zM283.1 2315.5h15.6v15.6h-15.6zM262.8 2315.5h15.6v15.6h-15.6zM242.5 2315.5h15.6v15.6h-15.6z"/><path class="st17" d="M52.2 753.5h457.9V966H52.2z"/><path class="st0" d="M292.1 859.1l-21.2-14.6c-.2-.2-.5-.2-.8 0-.2.1-.4.4-.4.6v29.2c0 .3.2.5.4.6.1.1.2.1.3.1.1 0 .3 0 .4-.1l21.2-14.6c.2-.1.3-.4.3-.6s0-.4-.2-.6zm-20.9 13.8v-26.4l19.2 13.2-19.2 13.2z"/><path class="st17" d="M289.3 987.2h219.6V1208H289.3z"/><path class="st2" d="M52.2 987h219.6v220.8H52.2z"/><path class="st10" d="M125 1016.3h72.3v8.2H125z"/><path class="st18" d="M70.2 1046.5h182v5.2h-182zM70.2 1064.3h182v5.2h-182zM70.2 1082.2h182v5.2h-182zM70.2 1100h182v5.2h-182zM70.2 1117.8h182v5.2h-182zM70.2 1135.7h182v5.2h-182zM70.2 1153.5h182v5.2h-182zM70.2 1171.3h182v5.2h-182z"/><g><path class="st0" d="M410.3 1085.7h-22.5c-1.7 0-3.1 1.4-3.1 3.1v17.5c0 1.7 1.4 3.1 3.1 3.1h22.5c1.7 0 3.1-1.4 3.1-3.1v-17.5c0-1.7-1.4-3.1-3.1-3.1zm1.9 12l-3-3c-.5-.5-1.2-.5-1.7 0l-7.1 7.1-3.6-3.6c-.5-.5-1.3-.5-1.7 0l-3.1 3.1c-.2.2-.2.6 0 .9.2.2.6.2.9 0l3.1-3.1 3.6 3.6-2.5 2.5c-.2.2-.2.6 0 .9.1.1.3.2.4.2.2 0 .3-.1.4-.2l10.5-10.5 3.7 3.7.1.1v6.9c0 1-.8 1.9-1.9 1.9h-22.5c-1 0-1.9-.8-1.9-1.9v-17.5c0-1 .8-1.9 1.9-1.9h22.5c1 0 1.9.8 1.9 1.9v8.9z"/><path class="st0" d="M390.4 1102.7l-.6.6c-.2.2-.2.6 0 .9.1.1.3.2.4.2s.3-.1.4-.2l.6-.6c.2-.2.2-.6 0-.9-.2-.2-.6-.2-.8 0zM391.6 1089.4c-1.7 0-3.1 1.4-3.1 3.1 0 1.7 1.4 3.1 3.1 3.1s3.1-1.4 3.1-3.1c0-1.7-1.4-3.1-3.1-3.1zm0 5c-1 0-1.9-.8-1.9-1.9 0-1 .8-1.9 1.9-1.9s1.9.8 1.9 1.9c0 1.1-.9 1.9-1.9 1.9z"/></g><g><path class="st4" d="M52.2 1229.5h99.1v100.8H52.2z"/><path class="st0" d="M112.9 1268H90.5c-1.7 0-3.1 1.4-3.1 3.1v17.5c0 1.7 1.4 3.1 3.1 3.1H113c1.7 0 3.1-1.4 3.1-3.1v-17.5c0-1.7-1.4-3.1-3.2-3.1zm1.9 12l-3-3c-.5-.5-1.2-.5-1.7 0l-7.1 7.1-3.6-3.6c-.5-.5-1.3-.5-1.7 0l-3.1 3.1c-.2.2-.2.6 0 .9.2.2.6.2.9 0l3.1-3.1 3.6 3.6-2.5 2.5c-.2.2-.2.6 0 .9.1.1.3.2.4.2s.3-.1.4-.2l10.5-10.5 3.7 3.7.1.1v6.9c0 1-.8 1.9-1.9 1.9H90.5c-1 0-1.9-.8-1.9-1.9v-17.5c0-1 .8-1.9 1.9-1.9H113c1 0 1.9.8 1.9 1.9v8.9z"/><path class="st0" d="M93 1285.1l-.6.6c-.2.2-.2.6 0 .9.1.1.3.2.4.2s.3-.1.4-.2l.6-.6c.2-.2.2-.6 0-.9-.2-.3-.6-.3-.8 0zM94.2 1271.8c-1.7 0-3.1 1.4-3.1 3.1s1.4 3.1 3.1 3.1c1.7 0 3.1-1.4 3.1-3.1s-1.4-3.1-3.1-3.1zm0 5c-1 0-1.9-.8-1.9-1.9 0-1 .8-1.9 1.9-1.9 1 0 1.9.8 1.9 1.9 0 1-.9 1.9-1.9 1.9z"/></g><g><path class="st4" d="M171.4 1229.5h99.1v100.8h-99.1z"/><path class="st0" d="M232.1 1268h-22.5c-1.7 0-3.1 1.4-3.1 3.1v17.5c0 1.7 1.4 3.1 3.1 3.1h22.5c1.7 0 3.1-1.4 3.1-3.1v-17.5c.1-1.7-1.3-3.1-3.1-3.1zm1.9 12l-3-3c-.5-.5-1.2-.5-1.7 0l-7.1 7.1-3.6-3.6c-.5-.5-1.3-.5-1.7 0l-3.1 3.1c-.2.2-.2.6 0 .9s.6.2.9 0l3.1-3.1 3.6 3.6-2.5 2.5c-.2.2-.2.6 0 .9.1.1.3.2.4.2s.3-.1.4-.2l10.5-10.5 3.7 3.7.1.1v6.9c0 1-.8 1.9-1.9 1.9h-22.5c-1 0-1.9-.8-1.9-1.9v-17.5c0-1 .8-1.9 1.9-1.9h22.5c1 0 1.9.8 1.9 1.9v8.9z"/><path class="st0" d="M212.2 1285.1l-.6.6c-.2.2-.2.6 0 .9.1.1.3.2.4.2s.3-.1.4-.2l.6-.6c.2-.2.2-.6 0-.9s-.5-.3-.8 0zM213.4 1271.8c-1.7 0-3.1 1.4-3.1 3.1s1.4 3.1 3.1 3.1 3.1-1.4 3.1-3.1-1.4-3.1-3.1-3.1zm0 5c-1 0-1.9-.8-1.9-1.9 0-1 .8-1.9 1.9-1.9s1.9.8 1.9 1.9c0 1-.9 1.9-1.9 1.9z"/></g><g><path class="st4" d="M290.6 1229.5h99.1v100.8h-99.1z"/><path class="st0" d="M351.3 1268h-22.5c-1.7 0-3.1 1.4-3.1 3.1v17.5c0 1.7 1.4 3.1 3.1 3.1h22.5c1.7 0 3.1-1.4 3.1-3.1v-17.5c.1-1.7-1.3-3.1-3.1-3.1zm1.9 12l-3-3c-.5-.5-1.2-.5-1.7 0l-7.1 7.1-3.6-3.6c-.5-.5-1.3-.5-1.7 0l-3.1 3.1c-.2.2-.2.6 0 .9s.6.2.9 0l3.1-3.1 3.6 3.6-2.5 2.5c-.2.2-.2.6 0 .9.1.1.3.2.4.2s.3-.1.4-.2l10.5-10.5 3.7 3.7.1.1v6.9c0 1-.8 1.9-1.9 1.9h-22.5c-1 0-1.9-.8-1.9-1.9v-17.5c0-1 .8-1.9 1.9-1.9h22.5c1 0 1.9.8 1.9 1.9v8.9z"/><path class="st0" d="M331.4 1285.1l-.6.6c-.2.2-.2.6 0 .9.1.1.3.2.4.2s.3-.1.4-.2l.6-.6c.2-.2.2-.6 0-.9s-.5-.3-.8 0zM332.6 1271.8c-1.7 0-3.1 1.4-3.1 3.1s1.4 3.1 3.1 3.1c1.7 0 3.1-1.4 3.1-3.1s-1.4-3.1-3.1-3.1zm0 5c-1 0-1.9-.8-1.9-1.9 0-1 .8-1.9 1.9-1.9 1 0 1.9.8 1.9 1.9 0 1-.8 1.9-1.9 1.9z"/></g><g><path class="st4" d="M409.8 1229.5h99.1v100.8h-99.1z"/><path class="st0" d="M470.5 1268H448c-1.7 0-3.1 1.4-3.1 3.1v17.5c0 1.7 1.4 3.1 3.1 3.1h22.5c1.7 0 3.1-1.4 3.1-3.1v-17.5c.1-1.7-1.3-3.1-3.1-3.1zm1.9 12l-3-3c-.5-.5-1.2-.5-1.7 0l-7.1 7.1-3.6-3.6c-.5-.5-1.3-.5-1.7 0l-3.1 3.1c-.2.2-.2.6 0 .9s.6.2.9 0l3.1-3.1 3.6 3.6-2.5 2.5c-.2.2-.2.6 0 .9.1.1.3.2.4.2s.3-.1.4-.2l10.5-10.5 3.7 3.7.1.1v6.9c0 1-.8 1.9-1.9 1.9H448c-1 0-1.9-.8-1.9-1.9v-17.5c0-1 .8-1.9 1.9-1.9h22.5c1 0 1.9.8 1.9 1.9v8.9z"/><path class="st0" d="M450.6 1285.1l-.6.6c-.2.2-.2.6 0 .9.1.1.3.2.4.2s.3-.1.4-.2l.6-.6c.2-.2.2-.6 0-.9s-.5-.3-.8 0zM451.8 1271.8c-1.7 0-3.1 1.4-3.1 3.1s1.4 3.1 3.1 3.1c1.7 0 3.1-1.4 3.1-3.1s-1.4-3.1-3.1-3.1zm0 5c-1 0-1.9-.8-1.9-1.9 0-1 .8-1.9 1.9-1.9s1.9.8 1.9 1.9c0 1-.8 1.9-1.9 1.9z"/></g><g><path class="st2" d="M52.3 1595.7h102.3v117.7H52.3z"/><path class="st19" d="M68.2 1725.5h69.2v8.1H68.2z"/><path class="st20" d="M76.9 1740.7h52v5h-52z"/><path class="st0" d="M100.4 1657.3v-4.3c0-.2-.1-.4-.2-.5-.4-.3-.7-.7-.7-1.2v-4.5c0-1.9 1.6-3.5 3.5-3.5h1c1.9 0 3.5 1.6 3.5 3.5v4.5c0 .5-.2.9-.7 1.2-.2.1-.2.3-.2.5v4.3c0 .3.2.5.4.7.6.3 3.5 1.8 6.2 4 .4.3.6.8.6 1.2v3.1c0 .3.2.6.6.6.3 0 .6-.2.6-.6v-3.1c0-.8-.4-1.6-1-2.1-2.6-2.1-5.4-3.6-6.3-4v-3.8c.6-.5.9-1.2.9-1.9v-4.5c0-2.5-2.1-4.6-4.6-4.6h-1c-2.5 0-4.6 2.1-4.6 4.6v4.5c0 .8.3 1.5.9 1.9v3.8c-.9.5-3.7 1.9-6.3 4-.6.5-1 1.3-1 2.1v3.1c0 .3.2.6.6.6s.6-.2.6-.6v-3.1c0-.5.2-.9.6-1.2 2.7-2.2 5.7-3.7 6.2-4 .2-.2.4-.5.4-.7z"/></g><g><path class="st2" d="M170.5 1595.7h102.3v117.7H170.5z"/><path class="st19" d="M186.4 1725.5h69.2v8.1h-69.2z"/><path class="st20" d="M195.1 1740.7h52v5h-52z"/><path class="st0" d="M218.6 1657.3v-4.3c0-.2-.1-.4-.2-.5-.4-.3-.7-.7-.7-1.2v-4.5c0-1.9 1.6-3.5 3.5-3.5h1c1.9 0 3.5 1.6 3.5 3.5v4.5c0 .5-.2.9-.7 1.2-.2.1-.2.3-.2.5v4.3c0 .3.2.5.4.7.6.3 3.5 1.8 6.2 4 .4.3.6.8.6 1.2v3.1c0 .3.2.6.6.6.3 0 .6-.2.6-.6v-3.1c0-.8-.4-1.6-1-2.1-2.6-2.1-5.4-3.6-6.3-4v-3.8c.6-.5.9-1.2.9-1.9v-4.5c0-2.5-2.1-4.6-4.6-4.6h-1c-2.5 0-4.6 2.1-4.6 4.6v4.5c0 .8.3 1.5.9 1.9v3.8c-.9.5-3.7 1.9-6.3 4-.6.5-1 1.3-1 2.1v3.1c0 .3.2.6.6.6.3 0 .6-.2.6-.6v-3.1c0-.5.2-.9.6-1.2 2.7-2.2 5.7-3.7 6.2-4 .2-.2.4-.5.4-.7z"/></g><g><path class="st2" d="M288.7 1595.7H391v117.7H288.7z"/><path class="st19" d="M304.6 1725.5h69.2v8.1h-69.2z"/><path class="st20" d="M313.2 1740.7h52v5h-52z"/><path class="st0" d="M336.8 1657.3v-4.3c0-.2-.1-.4-.2-.5-.4-.3-.7-.7-.7-1.2v-4.5c0-1.9 1.6-3.5 3.5-3.5h1c1.9 0 3.5 1.6 3.5 3.5v4.5c0 .5-.2.9-.7 1.2-.2.1-.2.3-.2.5v4.3c0 .3.2.5.4.7.6.3 3.5 1.8 6.2 4 .4.3.6.8.6 1.2v3.1c0 .3.2.6.6.6.3 0 .6-.2.6-.6v-3.1c0-.8-.4-1.6-1-2.1-2.6-2.1-5.4-3.6-6.3-4v-3.8c.6-.5.9-1.2.9-1.9v-4.5c0-2.5-2.1-4.6-4.6-4.6h-1c-2.5 0-4.6 2.1-4.6 4.6v4.5c0 .8.3 1.5.9 1.9v3.8c-.9.5-3.7 1.9-6.3 4-.6.5-1 1.3-1 2.1v3.1c0 .3.2.6.6.6s.6-.2.6-.6v-3.1c0-.5.2-.9.6-1.2 2.7-2.2 5.7-3.7 6.2-4 .2-.2.4-.5.4-.7z"/></g><g><path class="st2" d="M406.8 1595.7h102.3v117.7H406.8z"/><path class="st19" d="M422.8 1725.5H492v8.1h-69.2z"/><path class="st20" d="M431.4 1740.7h52v5h-52z"/><path class="st0" d="M455 1657.3v-4.3c0-.2-.1-.4-.2-.5-.4-.3-.7-.7-.7-1.2v-4.5c0-1.9 1.6-3.5 3.5-3.5h1c1.9 0 3.5 1.6 3.5 3.5v4.5c0 .5-.2.9-.7 1.2-.2.1-.2.3-.2.5v4.3c0 .3.2.5.4.7.6.3 3.5 1.8 6.2 4 .4.3.6.8.6 1.2v3.1c0 .3.2.6.6.6.3 0 .6-.2.6-.6v-3.1c0-.8-.4-1.6-1-2.1-2.6-2.1-5.4-3.6-6.3-4v-3.8c.6-.5.9-1.2.9-1.9v-4.5c0-2.5-2.1-4.6-4.6-4.6h-1c-2.5 0-4.6 2.1-4.6 4.6v4.5c0 .8.3 1.5.9 1.9v3.8c-.9.5-3.7 1.9-6.3 4-.6.5-1 1.3-1 2.1v3.1c0 .3.2.6.6.6.3 0 .6-.2.6-.6v-3.1c0-.5.2-.9.6-1.2 2.7-2.2 5.7-3.7 6.2-4 .2-.2.4-.5.4-.7z"/></g><path class="st19" d="M229.5 1788H321v8h-91.5z"/><g><path class="st21" d="M288.7 1812.5h219.8v24H288.7z"/><path class="st11" d="M298.8 1822.2h41.8v4.5h-41.8z"/></g><g><path class="st21" d="M288.7 1843.5h219.8v24H288.7z"/><path class="st11" d="M298.8 1853.2h41.8v4.5h-41.8z"/></g><g><path class="st21" d="M52.3 1812.5h219.8v24H52.3z"/><path class="st11" d="M62.4 1822.2h41.8v4.5H62.4z"/></g><g><path class="st21" d="M52.3 1843.5h219.8v24H52.3z"/><path class="st11" d="M62.4 1853.2h41.8v4.5H62.4z"/></g><path class="st21" d="M52.3 1879.5h456.2v81H52.3z"/><path class="st3" d="M167 1972.3h219.3v22.3H167z"/><g><circle class="st22" cx="54.3" cy="31.4" r="26"/><path class="st0" d="M56.6 41.6h-2.7V23.5l-3.5 3.7-1.6-1.7 5.4-5.6h2.4v21.7z"/></g><g><circle class="st22" cx="205.8" cy="31" r="26"/><path class="st0" d="M213.3 41.2h-14.9v-2.1c2.3-1.8 4-3.2 5.2-4.2l3.6-3.3c1.2-1.2 2-2.2 2.5-3.2s.7-1.8.7-2.7c0-1.3-.4-2.3-1.3-3-.9-.7-2-1-3.2-1-2.5 0-4.5.9-5.9 2.7l-1.7-1.7c.8-1.1 1.9-1.9 3.2-2.5 1.3-.6 2.8-.9 4.3-.9 2 0 3.7.6 5.1 1.7 1.4 1.1 2.2 2.7 2.2 4.7s-.9 4-2.6 6c-1.7 2-4.4 4.4-7.9 7.2h10.6v2.3z"/></g><g><circle class="st22" cx="472.8" cy="30.7" r="26"/><path class="st0" d="M473.8 41.3c-1.7 0-3.3-.3-4.6-1s-2.4-1.5-3.1-2.6l1.6-1.7c.6.9 1.5 1.6 2.6 2.1s2.2.8 3.5.8c1.6 0 2.8-.4 3.7-1.1.9-.7 1.3-1.7 1.3-3s-.5-2.3-1.4-2.9c-1-.6-2.3-.9-3.9-.9h-2.2v-2.5h2.2c1.5 0 2.7-.3 3.6-.9.9-.6 1.4-1.5 1.4-2.7 0-1.1-.5-2.1-1.4-2.7-.9-.7-2.1-1-3.5-1-2.2 0-4.1.9-5.7 2.6l-1.5-1.7c1.8-2.2 4.3-3.3 7.4-3.3 2.1 0 3.9.5 5.3 1.5s2.1 2.4 2.1 4.2c0 1.4-.5 2.6-1.4 3.4-1 .9-2 1.4-3.2 1.6 1.2.1 2.3.6 3.4 1.6 1.1.9 1.6 2.2 1.6 3.8 0 1.8-.7 3.3-2.1 4.5s-3.4 1.9-5.7 1.9z"/></g><g><circle class="st22" cx="99.8" cy="106.6" r="26"/><path class="st0" d="M104.7 116.9H102v-5.5H91.7v-2.2l9.3-13.9h3.7V109h3.1v2.4h-3.1v5.5zM102 109V97.7L94.4 109h7.6z"/></g><g><circle class="st22" cx="63.6" cy="338" r="26"/><path class="st0" d="M64.5 348.7c-1.5 0-2.7-.3-3.8-.9s-2-1.4-2.6-2.5c-.6-1.1-1.1-2.2-1.4-3.5-.3-1.3-.5-2.7-.5-4.2 0-2 .3-3.9.9-5.5.6-1.6 1.6-3 2.9-4.1 1.4-1.1 3-1.6 5-1.6 2.5 0 4.5.9 6 2.6l-1.4 2c-1.3-1.5-2.8-2.2-4.6-2.2-1.3 0-2.5.4-3.4 1.3-.9.8-1.6 1.9-2 3.1-.4 1.2-.6 2.6-.6 4.1v.8c.5-.9 1.4-1.6 2.5-2.3 1.1-.7 2.3-1 3.6-1 2.1 0 3.8.6 5.1 1.8 1.3 1.2 2 2.9 2 5.1 0 2-.7 3.6-2.1 5-1.5 1.3-3.3 2-5.6 2zm-.1-2.4c1.6 0 2.8-.5 3.7-1.4.9-.9 1.3-2 1.3-3.2 0-1.5-.5-2.7-1.4-3.5-.9-.8-2.1-1.2-3.6-1.2-1.1 0-2.1.3-3.1.9-1 .6-1.8 1.4-2.4 2.4.2 1.6.7 3 1.6 4.2.8 1.2 2.1 1.8 3.9 1.8z"/></g><g><circle class="st22" cx="272.8" cy="338" r="26"/><path class="st0" d="M272 348.3h-3l8.7-19.3H266v-2.4h14.8v1.9l-8.8 19.8z"/></g><g><circle class="st22" cx="99.3" cy="638.5" r="26"/><path class="st0" d="M105.2 647.5c-1.5 1.1-3.3 1.6-5.5 1.6s-4.1-.5-5.5-1.6c-1.5-1.1-2.2-2.5-2.2-4.3 0-1.4.5-2.5 1.5-3.5s2.2-1.7 3.7-2.1c-1.4-.4-2.5-1-3.4-1.9-.9-.9-1.4-2-1.4-3.3 0-1.8.7-3.2 2.2-4.2 1.5-1 3.2-1.4 5.2-1.4s3.7.5 5.2 1.4c1.5 1 2.2 2.4 2.2 4.2 0 1.3-.5 2.4-1.4 3.3-.9.9-2.1 1.5-3.5 1.9 1.5.4 2.7 1.1 3.7 2.1s1.5 2.2 1.5 3.5c-.1 1.8-.8 3.2-2.3 4.3zm-5.5-.8c1.4 0 2.6-.3 3.6-1s1.5-1.6 1.5-2.7c0-.9-.3-1.6-1-2.3s-1.4-1.1-2.1-1.4c-.7-.3-1.3-.4-1.9-.5-.6.1-1.2.2-1.9.5s-1.4.7-2.1 1.4c-.7.7-1 1.4-1 2.3 0 1.1.5 2 1.5 2.7.7.7 1.9 1 3.4 1zm0-10.3c.4-.1.9-.2 1.3-.3.4-.2.9-.4 1.5-.6.6-.3 1-.7 1.4-1.1s.5-1 .5-1.6c0-1.1-.4-2-1.3-2.6-.9-.7-2-1-3.4-1s-2.5.3-3.4 1c-.9.6-1.3 1.5-1.3 2.6 0 .6.2 1.2.5 1.6.3.5.8.9 1.4 1.1.6.3 1.1.5 1.5.6.4.1.8.2 1.3.3z"/></g><g><circle class="st22" cx="99.3" cy="786.6" r="26"/><path class="st0" d="M98.9 797.2c-2.5 0-4.5-.9-6-2.6l1.4-2c1.3 1.5 2.8 2.2 4.6 2.2 1.4 0 2.6-.4 3.5-1.3 1-.9 1.6-1.9 2-3.2.4-1.2.6-2.6.6-4v-.9c-.5.9-1.4 1.6-2.5 2.3-1.1.7-2.3 1-3.6 1-2.1 0-3.8-.6-5.1-1.8-1.3-1.2-2-2.9-2-5.1 0-2 .7-3.6 2.1-5 1.4-1.4 3.2-2.1 5.5-2.1 1.5 0 2.8.3 3.9.9s2 1.4 2.6 2.5c.6 1.1 1.1 2.2 1.4 3.5.3 1.3.5 2.7.5 4.3 0 2-.3 3.9-.9 5.5-.6 1.6-1.6 3-2.9 4.1-1.5 1.2-3.1 1.7-5.1 1.7zm.6-10.7c1.1 0 2.1-.3 3.1-.9 1-.6 1.8-1.4 2.3-2.3-.1-1.6-.6-3-1.5-4.2-.9-1.2-2.2-1.8-3.9-1.8-1.5 0-2.8.5-3.6 1.4-.9 1-1.3 2-1.3 3.2 0 1.5.5 2.7 1.4 3.5s2.1 1.1 3.5 1.1z"/></g><g><circle class="st22" cx="98.8" cy="1024.6" r="26"/><path class="st0" d="M93.8 1034.8h-2.7v-18.1l-3.5 3.7-1.6-1.7 5.4-5.6h2.4v21.7zM106.2 1035.2c-1.4 0-2.7-.3-3.8-1-1.1-.7-2-1.5-2.6-2.6-.6-1.1-1.1-2.3-1.4-3.6-.3-1.3-.5-2.6-.5-4s.2-2.7.5-4c.3-1.3.8-2.5 1.4-3.6.6-1.1 1.5-2 2.6-2.6 1.1-.7 2.4-1 3.8-1s2.7.3 3.8 1c1.1.7 2 1.5 2.6 2.6.6 1.1 1.1 2.3 1.4 3.6.3 1.3.5 2.6.5 4s-.2 2.7-.5 4c-.3 1.3-.8 2.5-1.4 3.6-.6 1.1-1.5 2-2.6 2.6-1.1.7-2.3 1-3.8 1zm-3.2-3.7c.9.9 2 1.3 3.2 1.3 1.3 0 2.4-.5 3.3-1.3.9-.9 1.5-2 1.8-3.2.3-1.3.5-2.7.5-4.2 0-1.6-.2-3-.5-4.2-.3-1.3-.9-2.3-1.8-3.2-.9-.9-2-1.3-3.3-1.3-1.3 0-2.4.4-3.2 1.3-.9.9-1.5 2-1.8 3.2s-.5 2.7-.5 4.2c0 1.6.2 3 .5 4.2s.9 2.3 1.8 3.2z"/></g><g><circle class="st22" cx="339.2" cy="1024.6" r="26"/><path class="st0" d="M335.6 1034.8h-2.7v-18.1l-3.5 3.7-1.6-1.7 5.4-5.6h2.4v21.7zM346.6 1034.8h-2.7v-18.1l-3.5 3.7-1.6-1.7 5.4-5.6h2.4v21.7z"/></g><g><circle class="st22" cx="100.5" cy="1254.9" r="26"/><path class="st0" d="M94 1265.1h-2.7V1247l-3.5 3.7-1.6-1.7 5.4-5.6H94v21.7zM113.2 1265.1H98.3v-2.1c2.3-1.8 4-3.2 5.2-4.2l3.6-3.3c1.2-1.2 2-2.2 2.5-3.2s.7-1.8.7-2.7c0-1.3-.4-2.3-1.3-3-.9-.7-2-1-3.2-1-2.5 0-4.5.9-5.9 2.7l-1.7-1.7c.8-1.1 1.9-1.9 3.2-2.5s2.8-.9 4.3-.9c2 0 3.7.6 5.1 1.7 1.4 1.1 2.2 2.7 2.2 4.7s-.9 4-2.6 6c-1.7 2-4.4 4.4-7.9 7.2h10.6v2.3z"/></g><g><circle class="st22" cx="100.5" cy="1368.3" r="26"/><path class="st0" d="M94 1378.5h-2.7v-18.1l-3.5 3.7-1.6-1.7 5.4-5.6H94v21.7zM105.2 1378.9c-1.7 0-3.3-.3-4.6-1-1.3-.7-2.4-1.5-3.1-2.6l1.6-1.7c.6.9 1.5 1.6 2.6 2.1s2.2.8 3.5.8c1.6 0 2.8-.4 3.7-1.1.9-.7 1.3-1.7 1.3-3s-.5-2.3-1.4-2.9c-1-.6-2.3-.9-3.9-.9h-2.2v-2.5h2.2c1.5 0 2.7-.3 3.6-.9.9-.6 1.4-1.5 1.4-2.7 0-1.1-.5-2.1-1.4-2.7-.9-.7-2.1-1-3.5-1-2.2 0-4.1.9-5.7 2.6l-1.5-1.7c1.8-2.2 4.3-3.3 7.4-3.3 2.1 0 3.9.5 5.3 1.5s2.1 2.4 2.1 4.2c0 1.4-.5 2.6-1.4 3.4-1 .9-2 1.4-3.2 1.6 1.2.1 2.3.6 3.4 1.6 1.1.9 1.6 2.2 1.6 3.8 0 1.8-.7 3.3-2.1 4.5-1.5 1.3-3.4 1.9-5.7 1.9z"/></g><g><circle class="st22" cx="100.7" cy="1460.4" r="26"/><path class="st0" d="M94.1 1470.7h-2.7v-18.1l-3.5 3.7-1.6-1.7 5.4-5.6h2.4v21.7zM110.7 1470.7H108v-5.5H97.7v-2.2l9.3-13.9h3.7v13.8h3.1v2.4h-3.1v5.4zm-2.7-7.9v-11.3l-7.6 11.3h7.6z"/></g><g><circle class="st22" cx="261.3" cy="1456.7" r="26"/><path class="st0" d="M254.7 1466.9H252v-18.1l-3.5 3.7-1.6-1.7 5.4-5.6h2.4v21.7zM267 1467.3c-3.3 0-5.9-1.2-7.6-3.5l1.7-1.8c1.5 1.9 3.5 2.9 6 2.9 1.5 0 2.7-.4 3.6-1.3.9-.9 1.4-2 1.4-3.3 0-1.4-.5-2.5-1.4-3.4-.9-.9-2.1-1.3-3.6-1.3-2 0-3.6.7-5 2l-2-.7v-11.7h13.3v2.4h-10.6v7.5c1.3-1.3 3-1.9 5.1-1.9 1.9 0 3.5.6 4.9 1.9 1.3 1.2 2 2.9 2 5.1 0 2.2-.7 3.9-2.2 5.2-1.5 1.3-3.4 1.9-5.6 1.9z"/></g><g><circle class="st22" cx="101.7" cy="1643.4" r="26"/><path class="st0" d="M95.1 1653.7h-2.7v-18.1l-3.5 3.7-1.6-1.7 5.4-5.6h2.4v21.7zM107.7 1654.1c-1.5 0-2.7-.3-3.8-.9-1.1-.6-2-1.4-2.6-2.5-.6-1-1.1-2.2-1.4-3.5-.3-1.3-.5-2.7-.5-4.2 0-2 .3-3.9.9-5.5s1.6-3 2.9-4.1 3-1.6 5-1.6c2.5 0 4.5.9 6 2.6l-1.4 2c-1.3-1.5-2.8-2.2-4.6-2.2-1.3 0-2.5.4-3.4 1.3-.9.8-1.6 1.9-2 3.1-.4 1.2-.6 2.6-.6 4.1v.8c.5-.9 1.4-1.6 2.5-2.3 1.1-.7 2.3-1 3.6-1 2.1 0 3.8.6 5.1 1.8 1.3 1.2 2 2.9 2 5.1 0 2-.7 3.6-2.1 5-1.5 1.3-3.3 2-5.6 2zm-.1-2.4c1.6 0 2.8-.5 3.7-1.4s1.3-2 1.3-3.2c0-1.5-.5-2.7-1.4-3.5-.9-.8-2.1-1.2-3.6-1.2-1.1 0-2.1.3-3.1.9s-1.8 1.4-2.4 2.4c.2 1.6.7 3 1.6 4.2.9 1.2 2.2 1.8 3.9 1.8z"/></g><g><circle class="st22" cx="101.7" cy="1818" r="26"/><path class="st0" d="M96.1 1828.2h-2.7v-18.1l-3.5 3.7-1.6-1.7 5.4-5.6h2.4v21.7zM105.6 1828.2h-3l8.7-19.3H99.7v-2.4h14.8v1.9l-8.9 19.8z"/></g><g><circle class="st22" cx="101.7" cy="2056.3" r="26"/><path class="st0" d="M96.1 2066.5h-2.7v-18.1l-3.5 3.7-1.6-1.7 5.4-5.6h2.4v21.7zM113.7 2065.3c-1.5 1.1-3.3 1.6-5.5 1.6s-4.1-.5-5.5-1.6c-1.5-1.1-2.2-2.5-2.2-4.3 0-1.4.5-2.5 1.5-3.5s2.2-1.7 3.7-2.1c-1.4-.4-2.5-1-3.4-1.9-.9-.9-1.4-2-1.4-3.3 0-1.8.7-3.2 2.2-4.2 1.5-1 3.2-1.4 5.2-1.4s3.7.5 5.2 1.4c1.5 1 2.2 2.4 2.2 4.2 0 1.3-.5 2.4-1.4 3.3-.9.9-2.1 1.5-3.5 1.9 1.5.4 2.7 1.1 3.7 2.1s1.5 2.2 1.5 3.5c-.1 1.8-.8 3.3-2.3 4.3zm-5.6-.8c1.4 0 2.6-.3 3.6-1s1.5-1.6 1.5-2.7c0-.9-.3-1.6-1-2.3s-1.4-1.1-2.1-1.4c-.7-.3-1.3-.4-1.9-.5-.6.1-1.2.2-1.9.5s-1.4.7-2.1 1.4c-.7.7-1 1.4-1 2.3 0 1.1.5 2 1.5 2.7.8.7 2 1 3.4 1zm0-10.2c.4-.1.9-.2 1.3-.3.4-.2.9-.4 1.5-.6.6-.3 1-.7 1.4-1.1s.5-1 .5-1.6c0-1.1-.4-2-1.3-2.6-.9-.7-2-1-3.4-1s-2.5.3-3.4 1c-.9.6-1.3 1.5-1.3 2.6 0 .6.2 1.2.5 1.6.3.5.8.9 1.4 1.1.6.3 1.1.5 1.5.6.5.1.9.2 1.3.3z"/></g><g><circle class="st22" cx="101.7" cy="2247.2" r="26"/><path class="st0" d="M96.1 2257.4h-2.7v-18.1L90 2243l-1.6-1.7 5.4-5.6h2.4v21.7zM107.4 2257.8c-2.5 0-4.5-.9-6-2.6l1.4-2c1.3 1.5 2.8 2.2 4.6 2.2 1.4 0 2.6-.4 3.5-1.3 1-.9 1.6-1.9 2-3.2.4-1.2.6-2.6.6-4v-.9c-.5.9-1.4 1.6-2.5 2.3-1.1.7-2.3 1-3.6 1-2.1 0-3.8-.6-5.1-1.8-1.3-1.2-2-2.9-2-5.1 0-2 .7-3.6 2.1-5 1.4-1.4 3.2-2.1 5.5-2.1 1.5 0 2.8.3 3.9.9s2 1.4 2.6 2.5c.6 1.1 1.1 2.2 1.4 3.5.3 1.3.5 2.7.5 4.3 0 2-.3 3.9-.9 5.5-.6 1.6-1.6 3-2.9 4.1-1.5 1.1-3.1 1.7-5.1 1.7zm.6-10.8c1.1 0 2.1-.3 3.1-.9 1-.6 1.8-1.4 2.3-2.3-.1-1.6-.6-3-1.5-4.2-.9-1.2-2.2-1.8-3.9-1.8-1.5 0-2.8.5-3.6 1.4-.9 1-1.3 2-1.3 3.2 0 1.5.5 2.7 1.4 3.5s2 1.1 3.5 1.1z"/></g><g><circle class="st22" cx="239.1" cy="2323.3" r="26"/><path class="st0" d="M237.7 2333.5h-14.9v-2.1c2.3-1.8 4-3.2 5.2-4.2l3.6-3.3c1.2-1.2 2-2.2 2.5-3.2s.7-1.8.7-2.7c0-1.3-.4-2.3-1.3-3-.9-.7-2-1-3.2-1-2.5 0-4.5.9-5.9 2.7l-1.7-1.7c.8-1.1 1.9-1.9 3.2-2.5s2.8-.9 4.3-.9c2 0 3.7.6 5.1 1.7 1.4 1.1 2.2 2.7 2.2 4.7s-.9 4-2.6 6c-1.7 2-4.4 4.4-7.9 7.2h10.6v2.3zM250.1 2333.9c-1.4 0-2.7-.3-3.8-1-1.1-.7-2-1.5-2.6-2.6-.6-1.1-1.1-2.3-1.4-3.6-.3-1.3-.5-2.6-.5-4s.2-2.7.5-4c.3-1.3.8-2.5 1.4-3.6.6-1.1 1.5-2 2.6-2.6 1.1-.7 2.4-1 3.8-1s2.7.3 3.8 1c1.1.7 2 1.5 2.6 2.6.6 1.1 1.1 2.3 1.4 3.6.3 1.3.5 2.6.5 4s-.2 2.7-.5 4c-.3 1.3-.8 2.5-1.4 3.6-.6 1.1-1.5 2-2.6 2.6-1.1.7-2.4 1-3.8 1zm-3.2-3.7c.9.9 2 1.3 3.2 1.3 1.3 0 2.4-.5 3.3-1.3.9-.9 1.5-2 1.8-3.2.3-1.3.5-2.7.5-4.2 0-1.6-.2-3-.5-4.2-.3-1.3-.9-2.3-1.8-3.2-.9-.9-2-1.3-3.3-1.3-1.3 0-2.4.4-3.2 1.3-.9.9-1.5 2-1.8 3.2s-.5 2.7-.5 4.2c0 1.6.2 3 .5 4.2s.9 2.3 1.8 3.2z"/></g><g><circle class="st22" cx="175.1" cy="152.6" r="26"/><path class="st0" d="M175.8 163.3c-3.3 0-5.9-1.2-7.6-3.5l1.7-1.8c1.5 1.9 3.5 2.9 6 2.9 1.5 0 2.7-.4 3.6-1.3.9-.9 1.4-2 1.4-3.3 0-1.4-.5-2.5-1.4-3.4s-2.1-1.3-3.6-1.3c-2 0-3.6.7-5 2l-2-.7v-11.7h13.3v2.4h-10.6v7.5c1.3-1.3 3-2 5.1-2 1.9 0 3.5.6 4.9 1.9 1.3 1.2 2 2.9 2 5.1 0 2.2-.7 3.9-2.2 5.2-1.6 1.3-3.4 2-5.6 2z"/></g></svg>