<svg width="477" height="782" viewBox="0 0 477 782" xmlns="http://www.w3.org/2000/svg"><g opacity=".2" fill="none"><path fill-rule="evenodd" clip-rule="evenodd" d="M2.452 565.019c-18.512-208.936 71.8-333.662 136.4-389.082 0 0-10.996 98.138 31.183 119.039 0 0-14.389-136.962 112.419-214.976 10.566 210.192 238.854 242.989 186.854 518" fill="#C1C8CC"/><path fill-rule="evenodd" clip-rule="evenodd" d="M438.395 425.947c-14.819-23.472-33.744-44.12-55.788-61.025C342.668 334.289 292.515 316 238 316 107.669 316 2 420.312 2 549c0 128.674 105.669 233 236 233 130.359 0 236-104.326 236-233 0-45.179-13.06-87.35-35.605-123.053z" fill="#C1C8CC"/><path fill-rule="evenodd" clip-rule="evenodd" d="M238 722c-97.206 0-176-77.678-176-173.507C62 452.678 140.794 375 238 375c40.655 0 78.036 13.627 107.841 36.43 16.425 12.584 30.549 27.959 41.585 45.447C404.251 483.456 414 514.854 414 548.493 414 644.322 335.206 722 238 722z" fill="#fff"/><path fill-rule="evenodd" clip-rule="evenodd" d="M268 555.953C268 572.561 254.344 586 237.5 586S207 572.561 207 555.953C207 539.359 220.656 412 237.5 412S268 539.359 268 555.953z" fill="#C1C8CC"/><path fill-rule="evenodd" clip-rule="evenodd" d="M221.867 583.18c-11.823-11.709-11.823-30.7 0-42.409 11.823-11.695 30.998-11.695 42.82 0 11.823 11.71 61.315 79.73 49.506 91.44-11.823 11.695-80.503-37.321-92.326-49.03z" fill="#C1C8CC"/><mask id="a" maskUnits="userSpaceOnUse" x="329" y="0" width="54" height="161"><path fill-rule="evenodd" clip-rule="evenodd" d="M0 0h54v161H0V0z" transform="translate(329)" fill="#fff"/></mask><g mask="url(#a)"><path fill-rule="evenodd" clip-rule="evenodd" d="M345.301 161c81.455-61.865 1.778-75.598 26.214-161 0 0-22.422 4.79-38.047 39.229-18.157 40.017 25.814 77.457 11.833 121.771z" fill="#C1C8CC"/></g></g></svg>