<svg xmlns="http://www.w3.org/2000/svg" xmlns:xlink="http://www.w3.org/1999/xlink" viewBox="0 0 649 624"><image width="649" height="624" xlink:href="7C3B337CEADDAFA0.png" overflow="visible"/><path fill="#fff" d="M0 0h649v623.333H0z"/><path fill="#e2e4e7" d="M62.667 258.042h529.605v254.625H62.667zM62.667 65h529.605v162.163H62.667z"/><path fill="#d9dee3" d="M.587 543.546H649v79.788H.587z"/><path d="M564.001 333.612H92.697a.364.364 0 0 1-.364-.364v-6.915H564c.201 0 .364.163.364.364v6.552c0 .2-.163.363-.363.363zM564.001 353.862H92.697a.364.364 0 0 1-.364-.364v-6.915H564c.201 0 .364.163.364.364v6.552c0 .2-.163.363-.363.363zM564.001 375.862H92.697a.364.364 0 0 1-.364-.364v-6.915H564c.201 0 .364.163.364.364v6.552c0 .2-.163.363-.363.363zM564.001 395.862H92.697a.364.364 0 0 1-.364-.364v-6.915H564c.201 0 .364.163.364.364v6.552c0 .2-.163.363-.363.363zM564.001 416.112H92.697a.364.364 0 0 1-.364-.364v-6.915H564c.201 0 .364.163.364.364v6.552c0 .2-.163.363-.363.363zM564.001 438.112H92.697a.364.364 0 0 1-.364-.364v-6.915H564c.201 0 .364.163.364.364v6.552c0 .2-.163.363-.363.363zM564.001 458.362H92.697a.364.364 0 0 1-.364-.364v-6.915H564c.201 0 .364.163.364.364v6.552c0 .2-.163.363-.363.363zM564.001 480.362H92.697a.364.364 0 0 1-.364-.364v-6.915H564c.201 0 .364.163.364.364v6.552c0 .2-.163.363-.363.363z" fill="#ced3d6"/><path fill="#acb2b8" d="M245 291.25h165.431v10.25H245zM62.657 574.489h53.75v20.75h-53.75zM456.586 578.178h135.081v12.393H456.586zM292.532 28.5h59.75v22.25h-59.75z"/><g fill="#fff"><path d="M310.629 35.417h1.044v7.208h3.454v.875h-4.498v-8.083zM321.342 40.55c0 2.146-1.486 3.082-2.89 3.082-1.571 0-2.783-1.151-2.783-2.986 0-1.943 1.271-3.082 2.879-3.082 1.667-.001 2.794 1.21 2.794 2.986zm-4.606.059c0 1.271.732 2.231 1.764 2.231 1.007 0 1.763-.947 1.763-2.255 0-.983-.491-2.23-1.739-2.23-1.248 0-1.788 1.151-1.788 2.254zM327.679 37.695c-.024.419-.049.887-.049 1.595v3.37c0 1.331-.264 2.146-.827 2.65-.563.528-1.379.696-2.11.696-.696 0-1.464-.168-1.932-.48l.264-.804c.384.24.984.456 1.703.456 1.08 0 1.871-.564 1.871-2.027v-.648h-.023c-.324.54-.948.972-1.848.972-1.438 0-2.471-1.223-2.471-2.831 0-1.967 1.284-3.082 2.615-3.082 1.007 0 1.559.527 1.811 1.007h.024l.048-.875h.924zm-1.092 2.291c0-.18-.012-.336-.06-.479-.192-.612-.708-1.116-1.476-1.116-1.008 0-1.728.852-1.728 2.195 0 1.14.576 2.087 1.716 2.087.647 0 1.235-.408 1.463-1.079.06-.18.084-.384.084-.564v-1.044zM334.638 40.55c0 2.146-1.486 3.082-2.89 3.082-1.571 0-2.783-1.151-2.783-2.986 0-1.943 1.271-3.082 2.879-3.082 1.667-.001 2.794 1.21 2.794 2.986zm-4.606.059c0 1.271.732 2.231 1.764 2.231 1.007 0 1.763-.947 1.763-2.255 0-.983-.491-2.23-1.739-2.23-1.248 0-1.788 1.151-1.788 2.254z"/></g><g fill="#fff"><path d="M77.754 580.302h1.043v7.208h3.454v.876h-4.498v-8.084zM88.467 585.436c0 2.146-1.487 3.082-2.89 3.082-1.571 0-2.783-1.151-2.783-2.986 0-1.942 1.271-3.082 2.878-3.082 1.668-.001 2.795 1.21 2.795 2.986zm-4.605.059c0 1.271.732 2.231 1.763 2.231 1.007 0 1.763-.948 1.763-2.255 0-.983-.492-2.231-1.739-2.231s-1.787 1.152-1.787 2.255zM94.804 582.581c-.024.42-.048.888-.048 1.595v3.37c0 1.332-.264 2.147-.827 2.65-.564.528-1.379.696-2.111.696-.696 0-1.463-.168-1.931-.479l.264-.804c.384.239.984.455 1.703.455 1.08 0 1.871-.563 1.871-2.026v-.647H93.7c-.324.539-.948.971-1.847.971-1.439 0-2.471-1.223-2.471-2.83 0-1.967 1.284-3.082 2.615-3.082 1.007 0 1.559.527 1.811 1.007h.024l.048-.875h.924zm-1.092 2.291a1.5 1.5 0 0 0-.06-.48c-.192-.611-.708-1.115-1.476-1.115-1.007 0-1.727.852-1.727 2.195 0 1.139.576 2.087 1.715 2.087.647 0 1.235-.408 1.463-1.08.06-.18.084-.384.084-.563v-1.044zM101.763 585.436c0 2.146-1.487 3.082-2.89 3.082-1.571 0-2.783-1.151-2.783-2.986 0-1.942 1.271-3.082 2.878-3.082 1.668-.001 2.795 1.21 2.795 2.986zm-4.605.059c0 1.271.732 2.231 1.763 2.231 1.007 0 1.763-.948 1.763-2.255 0-.983-.492-2.231-1.739-2.231s-1.787 1.152-1.787 2.255z"/></g><circle cx="288.19" cy="33.349" r="26" fill="#2e86dd"/><path d="M291.648 43.588h-3.065V23.017l-3.952 4.173-1.847-1.884 6.168-6.353h2.696v24.635z" fill="#fff"/><circle cx="108.826" cy="108.741" r="26" fill="#2e86dd"/><path d="M116.33 118.981h-14.886v-2.145c2.253-1.776 4.003-3.19 5.249-4.242a52.043 52.043 0 0 0 3.608-3.348c1.159-1.181 1.977-2.231 2.454-3.152s.715-1.836.715-2.747c0-1.3-.444-2.286-1.333-2.958-.889-.671-1.95-1.007-3.186-1.007-2.492 0-4.453.91-5.882 2.73l-1.658-1.723c.823-1.083 1.901-1.923 3.234-2.519 1.333-.596 2.768-.894 4.306-.894 1.972 0 3.678.553 5.119 1.658 1.441 1.105 2.161 2.676 2.161 4.712 0 2.015-.867 4.025-2.6 6.029-1.733 2.004-4.377 4.404-7.93 7.199h10.628v2.407z" fill="#fff"/><g><circle cx="108.826" cy="318.994" r="26" fill="#2e86dd"/><path d="M109.813 329.623c-1.734 0-3.272-.336-4.615-1.007-1.344-.672-2.373-1.528-3.088-2.568l1.593-1.689c.65.866 1.506 1.56 2.567 2.08 1.062.52 2.221.78 3.478.78 1.581 0 2.822-.363 3.721-1.089s1.349-1.718 1.349-2.975c0-1.3-.482-2.264-1.446-2.893-.964-.628-2.28-.942-3.949-.942-1.279 0-2.026.012-2.243.032v-2.47c.238.021.986.032 2.243.032 1.473 0 2.681-.297 3.624-.894.942-.596 1.414-1.489 1.414-2.682 0-1.147-.46-2.053-1.381-2.714-.921-.66-2.075-.991-3.461-.991-2.188 0-4.095.878-5.72 2.633l-1.495-1.69c1.842-2.231 4.312-3.348 7.411-3.348 2.145 0 3.905.516 5.281 1.544 1.376 1.029 2.064 2.443 2.064 4.242 0 1.43-.477 2.573-1.43 3.429-.954.856-2.037 1.393-3.25 1.608 1.191.108 2.324.629 3.396 1.561 1.072.932 1.609 2.188 1.609 3.77 0 1.842-.694 3.343-2.08 4.502-1.389 1.16-3.252 1.739-5.592 1.739z" fill="#fff"/></g><g><circle cx="108.826" cy="564.632" r="26" fill="#2e86dd"/><path d="M112.253 574.871h-2.698v-5.493H99.252v-2.242l9.295-13.943h3.705v13.813h3.055v2.372h-3.055v5.493zm-2.698-7.865v-11.311l-7.605 11.311h7.605z" fill="#fff"/></g></svg>